#N canvas 621 137 810 489 8;
#X obj 34 170 nbx 2 14 -1e+37 1e+37 0 0 empty empty empty 0 -8 0 10 #dcdcdc #000000 #000000 0 256;
#X obj 34 81 bng 19 250 50 0 empty empty empty 17 7 0 10 #dcdcdc #000000 #000000;
#X obj 75 169 tgl 18 0 empty empty empty 17 7 0 10 #dcdcdc #000000 #000000 0 1;
#X obj 115 169 tgl 18 0 empty empty empty 17 7 0 10 #dcdcdc #000000 #000000 0 1;
#X obj 156 171 nbx 2 14 -1e+37 1e+37 0 0 empty empty empty 0 -8 0 10 #dcdcdc #000000 #000000 0 256;
#X floatatom 75 195 2 0 0 0 - - - 0;
#X floatatom 115 195 2 0 0 0 - - - 0;
#X obj 64 64 vradio 15 1 0 3 empty empty empty 0 -8 0 10 #dcdcdc #000000 #000000 0;
#X text 82 64 0: up;
#X text 82 79 1: down;
#X text 82 94 2: updown;
#X floatatom 64 117 2 0 0 0 - - - 0;
#X text 135 194 maximum;
#X text 21 194 minimum;
#X obj 34 139 cyclone/counter 2 1 5, f 25;
#X obj 115 216 bng 15 250 50 0 empty empty empty 17 7 0 10 #fcfcfc #000000 #000000;
#X obj 75 217 bng 15 250 50 0 empty empty empty 17 7 0 10 #fcfcfc #000000 #000000;
#X obj 34 37 metro 200;
#X obj 41 7 loadbang;
#X obj 255 74 else/biquads~;
#X obj 255 103 convolve~;
#X obj 266 177 earplug~;
#X obj 266 198 dac~, f 8;
#X obj 255 124 *~ 0.01;
#X connect 1 0 14 0;
#X connect 2 0 5 0;
#X connect 3 0 6 0;
#X connect 5 0 16 0;
#X connect 6 0 15 0;
#X connect 7 0 11 0;
#X connect 11 0 14 1;
#X connect 14 0 0 0;
#X connect 14 1 2 0;
#X connect 14 2 3 0;
#X connect 14 3 4 0;
#X connect 17 0 1 0;
#X connect 18 0 17 0;
#X connect 19 0 20 0;
#X connect 20 0 23 0;
#X connect 21 0 22 0;
#X connect 21 1 22 1;
#X connect 23 0 21 0;
