#N canvas 0 0 925 1132 10;
#X obj 8 6 inlet;
#X obj 8 51 makenote 60 500;
#X obj 8 73 pack f f;
#X obj 8 191 outlet~;
#X msg 150 22 60;
#X obj 8 114 else/plaits~ -model 11 -tr_active -midi;
#X connect 0 0 1 0;
#X connect 1 0 2 0;
#X connect 1 1 2 1;
#X connect 2 0 5 0;
#X connect 4 0 1 0;
#X connect 5 0 3 0;
