#N canvas 121 80 1282 686 10;
#X obj 3 3 tgl 45 0 s-tgl1 r-tgl1 empty 0 -8 0 10 #fcfcfc #000000 #000000 0 1;
#X obj 153 2 tgl 45 0 s-tgl2 r-tgl2 empty 0 -8 0 10 #fcfcfc #000000 #000000 0 1;
#X obj 153 90 tgl 45 0 s-tgl4 r-tgl4 empty 0 -8 0 10 #fcfcfc #000000 #000000 0 1;
#X obj 3 90 tgl 45 0 s-tgl3 r-tgl3 empty 0 -8 0 10 #fcfcfc #000000 #000000 0 1;
#X obj 208 4 r R-8;
#N canvas 266 303 622 364 tgl2 0;
#X obj 2 33 unpack f f;
#X obj 2 74 change;
#X obj 2 119 s r-tgl2;
#X obj 2 53 expr if ($f1 > 0.9 && $f2 < 0.2 \, 1 \, 0);
#X obj 2 4 inlet;
#X connect 0 0 3 0;
#X connect 0 1 3 1;
#X connect 1 0 2 0;
#X connect 3 0 1 0;
#X connect 4 0 0 0;
#X restore 257 94 pd tgl2;
#N canvas 266 303 622 364 tgl1 0;
#X obj 2 4 inlet;
#X obj 1 25 unpack f f;
#X obj 1 45 expr if ($f1 < 0.2 && $f2 < 0.2 \, 1 \, 0);
#X obj 1 111 s r-tgl1;
#X obj 1 66 change;
#X connect 0 0 1 0;
#X connect 1 0 2 0;
#X connect 1 1 2 1;
#X connect 2 0 4 0;
#X connect 4 0 3 0;
#X restore 209 94 pd tgl1;
#N canvas 266 303 622 364 tgl3 0;
#X obj 2 33 unpack f f;
#X obj 2 74 change;
#X obj 2 4 inlet;
#X obj 2 53 expr if ($f1 < 0.2 && $f2 > 0.8 \, 1 \, 0);
#X obj 2 119 s r-tgl3;
#X connect 0 0 3 0;
#X connect 0 1 3 1;
#X connect 1 0 4 0;
#X connect 2 0 0 0;
#X connect 3 0 1 0;
#X restore 306 94 pd tgl3;
#N canvas 266 303 622 364 tgl4 0;
#X obj 2 33 unpack f f;
#X obj 2 74 change;
#X obj 2 4 inlet;
#X obj 2 53 expr if ($f1 > 0.8 && $f2 > 0.8 \, 1 \, 0);
#X obj 2 119 s r-tgl4;
#X connect 0 0 3 0;
#X connect 0 1 3 1;
#X connect 1 0 4 0;
#X connect 2 0 0 0;
#X connect 3 0 1 0;
#X restore 355 94 pd tgl4;
#X text 38 57 Use your right hand!;
#X connect 4 0 5 0;
#X connect 4 0 6 0;
#X connect 4 0 7 0;
#X connect 4 0 8 0;
#X coords 0 -1 1 1 200 140 1 0 0;
