#N canvas 663 74 330 417 12;
#N canvas 138 37 649 418 patch 0;
#X obj 10 112 nbx 5 14 8 2048 0 1 r-memory s-memory empty 0 -10 0 8 #ffffff #000000 #000000 32 256;
#X obj 52 193 bng 25 250 50 0 s-compile r-compile empty -15 -10 0 12 #ffc7c6 #ff0400 #000000;
#X obj 149 49 bng 25 250 50 0 s-pd4web-patch r-pd4web-patch empty 0 -10 0 12 #c6ffc7 #0f4710 #000000;
#X obj 93 7 cnv 15 133 25 empty empty Pd4Web\ Compiler 20 12 0 12 #dfdfdf #000000 0;
#X obj 7 37 cnv 5 310 10 empty empty 1)\ Choose\ Patch 2 5 0 8 #c6ffc7 #000000 0;
#X obj 7 181 cnv 5 150 10 empty empty 3)\ Compile\ Patch 2 5 0 8 #ffc7c6 #000000 0;
#X obj 7 94 cnv 5 310 10 empty empty 2)\ Configurations 2 5 0 8 #ffe3c6 #000000 0;
#X obj 59 115 cnv 5 240 10 empty empty Memory\ (Mb)\ -\ Big\ patches\ require\ more\ memory. 2 5 0 8 #feffc6 #000000 0;
#X obj 374 34 cnv 5 240 10 empty empty More\ Info\ if\ something\ go\ wrong. 2 5 0 8 #feffc6 #000000 0;
#X obj 326 32 tgl 15 1 s-verbose r-verbose empty 0 -10 0 12 #fcfcfc #000000 #000000 0 1;
#X obj 326 9 tgl 15 1 s-gui r-gui empty 0 -10 0 12 #fcfcfc #000000 #000000 1 1;
#X obj 374 11 cnv 5 240 10 empty empty On/Off\ -\ Render\ the\ Gui. 2 5 0 8 #feffc6 #000000 0;
#N canvas 963 554 474 486 (subpatch) 0;
#X coords 0 1 100 -1 297 21 1;
#X restore 8 109 graph;
#N canvas 0 50 450 250 (subpatch) 0;
#X coords 0 1 100 -1 297 21 1;
#X restore 324 29 graph;
#N canvas 0 50 450 250 (subpatch) 0;
#X coords 0 1 100 -1 297 21 1;
#X restore 324 6 graph;
#X obj 166 181 cnv 5 150 10 empty empty 4)\ Run\ the\ Browser\ Server 2 5 0 8 #c6feff #000000 0;
#X obj 228 193 tgl 25 0 s-browser r-browser empty 0 -10 0 12 #c6feff #000000 #000000 0 1;
#X obj 10 138 nbx 5 14 0.1 10 0 1 r-zoom s-zoom empty 0 -10 0 8 #ffffff #000000 #000000 2 256;
#X obj 59 141 cnv 5 240 10 empty empty Zoom\ -\ The\ size\ that\ the\ patch\ will\ be\ render. 2 5 0 8 #feffc6 #000000 0;
#N canvas 963 554 474 486 (subpatch) 0;
#X coords 0 1 100 -1 297 21 1;
#X restore 8 135 graph;
#X obj 207 365 cnv 5 110 10 empty empty Update\ pd4web\ package 2 5 0 8 #e3c6ff #000000 0;
#X obj 251 377 bng 25 250 50 0 s-pd4web-update r-pd4web-update empty 0 -10 0 12 #e3c6ff #0f4710 #000000;
#X obj 7 275 cnv 5 310 10 empty empty 5)\ Extra\ Options 2 5 0 8 #bbbbbb #000000 0;
#X obj 8 290 bng 25 250 50 0 s-compile r-compile empty -15 -10 0 12 #bbbbbb #ff0400 #000000;
#X obj 8 318 bng 25 250 50 0 s-compile r-compile empty -15 -10 0 12 #bbbbbb #ff0400 #000000;
#X obj 130 290 nbx 2 17 0 2 0 1 s-template1 r-template1 empty 0 -10 0 12 #fcfcfc #000000 #000000 0 256;
#X obj 35 298 cnv 5 30 10 empty empty Clear 2 5 0 8 #ffffff #000000 0;
#X obj 36 325 cnv 5 30 10 empty empty Update\ from\ Git 2 5 0 8 #ffffff #000000 0;
#X obj 164 294 cnv 5 30 10 empty empty Template\ Number 2 5 0 8 #ffffff #000000 0;
#X obj 8 382 tgl 19 0 s-debug1 r-debug1 empty 0 -10 0 12 #fcfcfc #000000 #000000 0 1;
#X obj 29 386 cnv 5 30 10 empty empty Debug 2 5 0 8 #ffffff #000000 0;
#N canvas 179 216 1155 671 pd4web-core 0;
#X obj 32 148 r r-memory;
#X obj 32 173 nbx 5 18 -1e+37 1e+37 0 0 empty empty empty 0 -10 0 12 #fcfcfc #000000 #000000 0 256;
#X msg 32 397 set memory \$1;
#X obj 279 155 r s-pd4web-patch;
#N canvas 1443 554 471 486 path 0;
#X obj 103 233 symbol;
#X symbolatom 148 165 10 0 0 0 - - - 0;
#X obj 260 292 print PATH;
#X obj 103 291 outlet;
#X obj 56 115 openpanel;
#X obj 139 115 openpanel 1;
#X msg 139 141 symbol \$1/;
#X obj 56 58 route file directory dir random;
#X obj 237 259 t s s b;
#X obj 360 292 print -n;
#X msg 360 266 -------------------;
#X obj 56 25 inlet;
#N canvas 667 322 513 304 random 0;
#X obj 71 39 inlet;
#X obj 71 225 outlet;
#X obj 71 77 t b;
#X obj 71 161 random;
#X obj 71 129 t b f;
#X obj 143 149 text define -k \$0-base+ext-strings;
#A set ///foo/bar/pizza \; dir/subdir/ \; soundfile.wav \; /path/to/pd.exe \; ../file.txt;
#X obj 71 102 text size \$0-base+ext-strings;
#X obj 71 188 text get \$0-base+ext-strings;
#X connect 0 0 2 0;
#X connect 2 0 6 0;
#X connect 3 0 7 0;
#X connect 4 0 3 0;
#X connect 4 1 3 1;
#X connect 6 0 4 0;
#X connect 7 0 1 0;
#X restore 254 155 pd random;
#X obj 237 323 s \$0-base+ext;
#X obj 237 234 r \$0-base+ext-in;
#X obj 56 87 b;
#X obj 139 88 b;
#X obj 270 178 b;
#X connect 0 0 3 0;
#X connect 1 0 0 0;
#X connect 4 0 0 0;
#X connect 5 0 6 0;
#X connect 6 0 0 0;
#X connect 7 0 15 0;
#X connect 7 1 16 0;
#X connect 7 2 16 0;
#X connect 7 3 12 0;
#X connect 7 4 17 0;
#X connect 8 0 13 0;
#X connect 8 1 2 0;
#X connect 8 2 10 0;
#X connect 10 0 9 0;
#X connect 11 0 7 0;
#X connect 12 0 0 0;
#X connect 14 0 8 0;
#X connect 15 0 4 0;
#X connect 16 0 5 0;
#X connect 17 0 0 0;
#X restore 279 203 pd path;
#X msg 279 179 file;
#X obj 302 412 r s-compile;
#X obj 381 254 file splitname;
#X obj 381 279 unpack s s;
#X obj 448 346 s r-patch-path;
#X msg 448 322 set \$1;
#X obj 279 229 t a a, f 15;
#X msg 279 256 set patch \$1;
#X obj 385 412 r s-verbose;
#X msg 385 437 set verbose \$1;
#X obj 278 557 pd4web;
#X obj 32 268 expr if($f1 > 2048 \, 2048 \, $f1);
#X obj 32 318 nbx 5 18 -1e+37 1e+37 0 0 empty empty empty 0 -10 0 12 #fcfcfc #000000 #000000 0 256;
#X obj 89 41 r s-gui;
#X obj 89 66 tgl 20 0 empty empty empty 0 -10 0 12 #fcfcfc #000000 #000000 0 1;
#X obj 152 66 tgl 20 0 empty empty empty 0 -10 0 12 #fcfcfc #000000 #000000 0 1;
#X obj 152 41 r s-verbose;
#N canvas 963 28 951 486 (subpatch) 0;
#X obj 8 5 inlet;
#X obj 8 30 t f f;
#X obj 8 121 spigot;
#X obj 8 193 s s-memory;
#X obj 47 78 expr if($f1 > 2048 \, 1 \, 0);
#X msg 8 146 2048;
#X connect 0 0 1 0;
#X connect 1 0 2 0;
#X connect 1 1 4 0;
#X connect 2 0 5 0;
#X connect 4 0 2 1;
#X connect 5 0 3 0;
#X restore 85 224 pd;
#X obj 467 53 r s-browser;
#X msg 467 135 browser \$1;
#X obj 177 369 nbx 5 18 -1e+37 1e+37 0 0 empty empty empty 0 -10 0 12 #fcfcfc #000000 #000000 0 256;
#X obj 177 344 r r-zoom;
#X msg 177 392 set zoom \$1;
#X obj 297 313 r s-pd4web-update;
#X msg 297 337 update;
#X obj 505 438 r s-debug1;
#X obj 505 462 tgl 19 0 empty empty empty 0 -10 0 12 #fcfcfc #000000 #000000 0 1;
#X msg 505 486 set debug \$1;
#X msg 609 486 set template \$1;
#X obj 609 438 r s-template1;
#X obj 609 462 nbx 5 17 -1e+37 1e+37 0 0 empty empty empty 0 -10 0 12 #fcfcfc #000000 #000000 0 256;
#X obj 36 511 loadbang;
#X msg 36 535 0;
#X obj 36 559 s r-template1;
#X connect 0 0 1 0;
#X connect 1 0 16 0;
#X connect 1 0 22 0;
#X connect 2 0 15 0;
#X connect 3 0 5 0;
#X connect 4 0 11 0;
#X connect 5 0 4 0;
#X connect 6 0 15 0;
#X connect 7 0 8 0;
#X connect 8 1 10 0;
#X connect 10 0 9 0;
#X connect 11 0 12 0;
#X connect 11 1 7 0;
#X connect 12 0 15 0;
#X connect 13 0 14 0;
#X connect 14 0 15 0;
#X connect 16 0 17 0;
#X connect 17 0 2 0;
#X connect 18 0 19 0;
#X connect 21 0 20 0;
#X connect 23 0 24 0;
#X connect 24 0 15 0;
#X connect 25 0 27 0;
#X connect 26 0 25 0;
#X connect 27 0 15 0;
#X connect 28 0 29 0;
#X connect 29 0 15 0;
#X connect 30 0 31 0;
#X connect 31 0 32 0;
#X connect 32 0 15 0;
#X connect 33 0 15 0;
#X connect 34 0 35 0;
#X connect 35 0 33 0;
#X connect 36 0 37 0;
#X connect 37 0 38 0;
#X restore 324 386 pd pd4web-core;
#X coords 0 -1 1 1 315 400 2 5 5;
#X restore 5 5 pd patch;
