#N canvas 670 323 579 415 12;
#X obj 60 157 bng 23 250 50 0 nutelaOS akdkabdk empty 0 -10 0 12 #dfdfdf #000000 #000000;
#N canvas 4 21 1912 1020 links 1;
#X obj 108 378 pdcontrol;
#X obj 133 192 r linux;
#X msg 133 224 browse https://www.charlesneimog.com/py4pd/setup/#install-python;
#X obj 108 125 r nutelaOS;
#X obj 157 271 r howinstallpython;
#X obj 68 25 inlet;
#X obj 68 55 symbol;
#X msg 68 89 browse https://\$1;
#X msg 108 160 browse https://www.python.org/downloads/release/python-3127;
#X msg 157 303 browse http://charlesneimog.github.io/py4pd/setup/#install-python;
#X connect 1 0 2 0;
#X connect 2 0 0 0;
#X connect 3 0 8 0;
#X connect 4 0 9 0;
#X connect 5 0 6 0;
#X connect 6 0 7 0;
#X connect 7 0 0 0;
#X connect 8 0 0 0;
#X connect 9 0 0 0;
#X restore 58 328 pd links;
#X text 89 159 <-- Click for MacOS OR Windows (go to the bottom of page).;
#X obj 59 44 cnv 5 5 22 empty empty Thanks\ for\ downloading\ [pd4web]\ by\ Charles\ K.\ Neimog! 10 12 0 15 #000000 #202020 0;
#X text 56 88 [pd4web] allows to use complet Pd Patches inside web-browsers., f 71;
#X obj 61 130 cnv 5 5 22 empty empty You\ need\ to\ have\ python\ installed! 10 12 0 15 #ff0400 #ff0400 0;
#X obj 59 365 pd4web;
#X text 272 296 <= Help and complete docs!;
#X text 113 364 <= To compile your patch open the help patch of [pd4web];
#X msg 58 297 charlesneimog.github.io/pd4web;
#X text 61 198 If you saw the message '[pd4web] pd4web is ready!' you have everything configured correctly.;
#X connect 9 0 1 0;
