#N canvas 644 23 632 1016 10;
#X obj 11 234 osc~ 440;
#X obj 14 13 bng 45 250 50 0 s-bng1 r-bng1 empty 0 -9 0 10 #fcfcfc #000000 #000000;
#X obj 102 230 r s-bng1;
#X obj 102 282 line;
#X obj 102 304 nbx 5 16 -1e+37 1e+37 0 0 empty empty empty 0 -9 0 10 #fcfcfc #000000 #000000 0 256;
#X msg 102 252 0 \, 1 1000;
#X msg 102 347 1 \, 0 1000;
#X obj 102 369 line;
#X obj 11 416 *~;
#X obj 11 438 dac~ 1;
#X obj 102 325 sel 1;
#X connect 0 0 8 0;
#X connect 2 0 5 0;
#X connect 3 0 4 0;
#X connect 3 0 8 1;
#X connect 4 0 10 0;
#X connect 5 0 3 0;
#X connect 6 0 7 0;
#X connect 7 0 8 1;
#X connect 8 0 9 0;
#X connect 10 0 6 0;
#X coords 0 -1 1 1 200 200 1 10 10;
