#N canvas 602 32 1257 885 8;
#X obj 185 408 outlet~;
#X obj 231 408 outlet~;
#X obj 185 214 +~, f 14;
#X obj 185 255 /~ 2;
#X obj 27 114 delay 1 1 msec;
#X obj 27 133 f, f 20;
#X obj 27 175 nbx 5 14 -1e+37 1e+37 0 0 empty empty empty 0 -8 0 8 #fcfcfc #000000 #000000 0 256;
#X obj 185 173 else/plaits~ -trigger -midi -model 11;
#X obj 27 154 / 1.2;
#X obj 27 194 else/spread 60;
#X obj 185 235 *~ 0.5;
#X obj 446 280 cyclone/peakamp~;
#X obj 446 257 metro 200;
#X obj 446 300 cyclone/atodb;
#X obj 446 231 tgl 15 0 empty empty empty 0 -8 0 8 #fcfcfc #000000 #000000 0 1;
#X obj 446 333 expr if($f1 < -100 \, 0 \, 1);
#X obj 446 356 sel 0;
#X obj 405 144 f;
#X obj 239 130 - 0.05;
#X obj 239 110 f, f 5;
#X obj 101 83 t b f f b b, f 23;
#X obj 253 151 nbx 5 14 -1e+37 1e+37 0 0 empty empty empty 0 -8 0 8 #fcfcfc #000000 #000000 0 256;
#X msg 301 231 print;
#X obj 185 273 else/giga.rev~ -late 0.1 -decay 5;
#X obj 308 131 switch~;
#X obj 308 112 tgl 15 0 empty empty empty 0 -8 0 8 #fcfcfc #000000 #000000 0 1;
#X obj 101 11 inlet;
#X msg 308 83 1;
#X obj 185 314 earplug~;
#X obj 101 36 unpack f f f f f f f, f 42;
#X obj 308 59 t b b;
#X obj 335 22 bng 15 250 50 0 empty empty empty 0 -8 0 8 #fcfcfc #000000 #000000;
#X obj 405 99 del 200 1 msec;
#X obj 438 121 bng 15 250 50 0 empty empty empty 0 -8 0 8 #fcfcfc #000000 #000000;
#X msg 342 311 0;
#X connect 2 0 10 0;
#X connect 3 0 23 0;
#X connect 4 0 5 0;
#X connect 5 0 8 0;
#X connect 6 0 9 0;
#X connect 7 0 2 0;
#X connect 7 1 2 1;
#X connect 8 0 6 0;
#X connect 9 1 20 0;
#X connect 10 0 3 0;
#X connect 11 0 13 0;
#X connect 12 0 11 0;
#X connect 13 0 15 0;
#X connect 14 0 12 0;
#X connect 15 0 16 0;
#X connect 16 0 34 0;
#X connect 17 0 14 0;
#X connect 18 0 7 0;
#X connect 18 0 19 1;
#X connect 18 0 21 0;
#X connect 19 0 18 0;
#X connect 20 0 4 0;
#X connect 20 1 4 1;
#X connect 20 2 5 1;
#X connect 20 3 7 0;
#X connect 20 4 19 0;
#X connect 22 0 23 0;
#X connect 23 0 28 0;
#X connect 23 1 11 0;
#X connect 25 0 24 0;
#X connect 26 0 29 0;
#X connect 27 0 17 1;
#X connect 27 0 25 0;
#X connect 28 0 0 0;
#X connect 28 1 1 0;
#X connect 29 0 20 0;
#X connect 29 1 8 1;
#X connect 29 2 19 1;
#X connect 29 3 10 1;
#X connect 29 4 18 1;
#X connect 29 5 28 1;
#X connect 29 5 30 0;
#X connect 29 6 30 0;
#X connect 30 0 27 0;
#X connect 30 1 32 0;
#X connect 31 0 30 0;
#X connect 32 0 17 0;
#X connect 32 0 33 0;
#X connect 34 0 25 0;
#X connect 34 0 14 0;
