#N canvas 6 556 951 486 10;
#X text 7 7665 ------------------------------------------------------------------------------, f 78;
#X text 15 26 ------------------------------------------------------------------------------, f 78;
#X obj 53 75 notein;
#X obj 103 75 ctlin;
#X obj 145 75 pgmin;
#X obj 188 75 bendin;
#X obj 236 75 touchin;
#X obj 53 99 polytouchin;
#X obj 303 88 midiin;
#X obj 138 99 sysexin;
#X text 362 89 - MIDI input;
#X obj 52 131 noteout;
#X obj 109 131 ctlout;
#X obj 158 131 pgmout;
#X obj 209 131 bendout;
#X obj 52 153 touchout;
#X obj 119 153 polytouchout;
#X obj 213 153 midiout;
#X text 278 141 - MIDI output;
#X obj 52 183 makenote;
#X obj 52 208 stripnote;
#X text 183 207 - strip "note off" messages;
#X obj 52 233 poly;
#X text 183 182 - schedule delayed "note off" message for a note-on;
#X obj 52 259 oscparse;
#X obj 52 283 oscformat;
#X obj 195 99 midirealtimein;
#X text 183 282 - convert lists to OSC packets;
#X text 183 258 - parse OSC packets into Pd messages;
#X text 183 232 - MIDI-style polyphonic voice allocator;
#X text 18 39 ------------------------------ MIDI/OSC -------------------------------------, f 77;
