#N canvas 567 184 456 501 8;
#X obj 10 7 inlet;
#N canvas 610 267 999 717 route 0;
#X obj 4 3 inlet;
#X obj 4 162 route size score delay, f 82;
#X obj 85 266 loadbang;
#X obj 136 4 inlet;
#X msg 136 129 size \$1 \$2;
#X msg 4 246 donecanvasdialog 1 1 2 0 -1 1 1 \$1 \$2 10 80;
#X msg 85 317 donecanvasdialog 1 0 1 0 -1 1 1 10 10 10 80;
#X obj 178 44 list length;
#X obj 136 82 spigot;
#X obj 178 82 sel 0;
#X obj 87 3 bng 15 250 50 0 empty empty empty 0 -8 0 8 #fcfcfc #000000 #000000;
#X msg 178 103 200 100;
#X msg 26 92 dirty 0;
#X obj 4 24 t a b;
#X obj 140 222 s score-\$0;
#X msg 140 203 open \$1;
#X obj 140 180 symbol;
#X obj 4 339 s pd4webScore-\$0;
#X obj 26 113 s pd4webScore-\$0;
#X obj 136 25 t a a b, f 26;
#X msg 313 268 dirty 0;
#X obj 313 289 s pd4webScore-\$0;
#X obj 85 287 t b b;
#X obj 59 24 loadbang;
#X obj 59 48 metro 1;
#X obj 42 24 bng 15 250 50 0 empty empty empty 0 -8 0 8 #fcfcfc #000000 #000000;
#X connect 0 0 13 0;
#X connect 1 0 5 0;
#X connect 1 1 16 0;
#X connect 2 0 22 0;
#X connect 3 0 19 0;
#X connect 4 0 1 0;
#X connect 5 0 17 0;
#X connect 6 0 17 0;
#X connect 7 0 9 0;
#X connect 7 0 8 1;
#X connect 8 0 4 0;
#X connect 9 0 11 0;
#X connect 10 0 19 0;
#X connect 11 0 4 0;
#X connect 12 0 18 0;
#X connect 13 0 1 0;
#X connect 13 1 12 0;
#X connect 15 0 14 0;
#X connect 16 0 15 0;
#X connect 19 0 8 0;
#X connect 19 1 7 0;
#X connect 19 2 12 0;
#X connect 20 0 21 0;
#X connect 22 0 6 0;
#X connect 22 1 20 0;
#X connect 23 0 24 0;
#X connect 24 0 12 0;
#X connect 25 0 24 0;
#X coords 0 717 1 716 200 100 0;
#X restore 10 57 pd route;
#X obj 47 11 loadbang;
#X obj 94 10 namecanvas pd4webScore-\$0;
#X obj 47 32 else/args;
#X text 242 40 OBS: This will not be used in the patch \, it is just a way to show how the patch will look., f 38;
#X connect 0 0 1 0;
#X connect 2 0 4 0;
#X connect 4 0 1 1;
#X coords 0 -1 1 1 200 200 2 10 80;
