#N canvas 963 28 200 200 8;
#X obj 46 7 vsl 25 160 0 8 0 0 s-vsl2 r-vsl2 empty 0 -9 0 8 #fcfcfc #000000 #000000 0 1;
#X obj 76 7 hsl 128 15 0 127 0 0 hsl3-s hsl3-r empty -2 -8 0 8 #fcfcfc #000000 #000000 0 1;
#X obj 74 26 tgl 50 0 st-1 rt-1 empty 0 -8 0 8 #fcfcfc #000000 #000000 0 1;
#X obj 127 26 bng 50 250 50 0 s-b1 r-b1 empty 0 -8 0 8 #fcfcfc #000000 #000000;
#X obj 76 95 vradio 15 1 0 5 vrs-1 vrr-1 empty 0 -8 0 8 #fcfcfc #000000 #000000 0;
#X obj 76 78 hradio 15 1 0 5 hrs-1 hrr-1 empty 0 -8 0 8 #fcfcfc #000000 #000000 0;
#X obj 28 8 vu 15 160 r-vu1 empty -1 -8 0 8 #404040 #000000 0 0;
#X obj 191 166 osc~ 440;
#X obj 191 230 *~;
#X obj 191 311 s r-vu1;
#N canvas 329 161 625 417 vu 0;
#X obj 59 129 env~ 1024;
#X obj 161 111 abs~;
#X obj 161 213 snapshot~;
#X obj 161 256 rmstodb;
#X obj 161 21 inlet~;
#X obj 161 288 - 100;
#X obj 59 287 - 100;
#X obj 59 361 outlet;
#X obj 161 361 outlet;
#X text 344 307 Check the help file of env~ and slop~ for more details., f 31;
#X obj 239 89 expr 1000 / $f1;
#X floatatom 239 117 5 0 0 0 - - - 0;
#X obj 161 146 slop~ 0 0 0 0 1e+09;
#X obj 239 18 inlet;
#X floatatom 239 57 5 0 0 0 - - - 0;
#X text 359 89 convert to hz;
#X text 282 118 hz;
#X text 284 57 peak decay time in ms;
#X obj 59 171 t f b;
#X text 345 132 The env~ object is dedicated to RMS analysis. Its output is in dB (0-100 range \, pd style) but needs to be converted to dBFS (and we do that by simply subtracting 100)., f 31;
#X text 345 225 The slop~ object is used here for peak detection. We need to convert the output to dB with rmstodb and also subtract by 100 to convert it to dBFS., f 31;
#X connect 0 0 18 0;
#X connect 1 0 12 0;
#X connect 2 0 3 0;
#X connect 3 0 5 0;
#X connect 4 0 0 0;
#X connect 4 0 1 0;
#X connect 5 0 8 0;
#X connect 6 0 7 0;
#X connect 10 0 11 0;
#X connect 11 0 12 3;
#X connect 12 0 2 0;
#X connect 13 0 14 0;
#X connect 14 0 10 0;
#X connect 18 0 6 0;
#X connect 18 1 2 0;
#X restore 191 291 pd vu;
#X obj 240 166 osc~ 0.1;
#X text 95 94 Value 1;
#X text 95 110 Value 2;
#X text 95 125 Value 3;
#X text 95 140 Value 4;
#X text 95 155 Value 5;
#X obj 89 295 *~;
#X obj 89 316 dac~;
#X obj 251 54 metro 1000;
#X obj 251 75 expr random(1 \, 10000);
#X obj 251 96 s onFloat;
#X obj 251 16 loadbang;
#X obj 330 150 metro 1000;
#X obj 330 132 loadbang;
#X obj 330 293 s onSymbol;
#X obj 330 171 expr random(1 \, 3);
#X obj 330 192 sel 1 2 3;
#X msg 330 213 symbol1;
#X msg 344 233 symbol2;
#X msg 358 258 symbol3;
#X connect 0 0 17 1;
#X connect 7 0 8 0;
#X connect 8 0 10 0;
#X connect 8 0 17 0;
#X connect 10 0 9 0;
#X connect 11 0 8 1;
#X connect 17 0 18 0;
#X connect 17 0 18 1;
#X connect 19 0 20 0;
#X connect 20 0 21 0;
#X connect 22 0 19 0;
#X connect 23 0 26 0;
#X connect 24 0 23 0;
#X connect 26 0 27 0;
#X connect 27 0 28 0;
#X connect 27 1 29 0;
#X connect 27 2 30 0;
#X connect 28 0 25 0;
#X connect 29 0 25 0;
#X connect 30 0 25 0;
