#N canvas 761 340 398 381 10;
#X obj 4 7 declare -lib saf;
#X obj 4 102 saf.encoder~ 1 3, f 17;
#X obj 4 154 dac~, f 17;
#N canvas 965 30 938 1001 POSITIONS 0;
#X msg 3 191 source 1 \$1 \$2;
#X text 335 190 source <source_index> <azi> <ele>;
#X obj 3 170 list;
#X obj 3 125 nbx 5 16 -180 180 0 0 empty empty empty 0 -9 0 10 #fcfcfc #000000 #000000 0 256;
#X obj 24 147 nbx 5 16 -90 90 0 1 empty empty empty 0 -9 0 10 #fcfcfc #000000 #000000 64 256;
#N canvas 1442 550 472 489 (subpatch) 0;
#X obj 11 51 tgl 28 0 empty empty empty 0 -9 0 10 #fcfcfc #000000 #000000 0 1;
#X obj 11 106 int;
#X obj 11 128 + 1;
#X obj 11 150 % 360;
#X obj 11 172 - 180;
#X obj 11 194 outlet;
#X obj 11 24 inlet;
#X obj 11 84 metro 50;
#X connect 0 0 7 0;
#X connect 1 0 2 0;
#X connect 2 0 1 1;
#X connect 2 0 3 0;
#X connect 3 0 4 0;
#X connect 4 0 5 0;
#X connect 6 0 0 0;
#X connect 7 0 1 0;
#X coords 0 -1 1 1 30 30 1 10 50;
#X restore 3 89 pd;
#X obj 111 169 list;
#X obj 111 124 nbx 5 16 -180 180 0 0 empty empty empty 0 -9 0 10 #fcfcfc #000000 #000000 0 256;
#X obj 132 146 nbx 5 16 -90 90 0 1 empty empty empty 0 -9 0 10 #fcfcfc #000000 #000000 45 256;
#X msg 111 190 source 2 \$1 \$2;
#X obj 3 59 loadbang;
#N canvas 1442 550 472 489 (subpatch) 0;
#X obj 11 51 tgl 28 0 empty empty empty 0 -9 0 10 #fcfcfc #000000 #000000 0 1;
#X obj 11 106 int;
#X obj 11 128 + 1;
#X obj 11 173 % 360;
#X obj 11 153 - 180;
#X obj 11 216 outlet;
#X obj 11 24 inlet;
#X obj 11 195 - 180;
#X obj 11 84 metro 33;
#X connect 0 0 8 0;
#X connect 1 0 2 0;
#X connect 2 0 1 1;
#X connect 2 0 4 0;
#X connect 3 0 7 0;
#X connect 4 0 3 0;
#X connect 6 0 0 0;
#X connect 7 0 5 0;
#X connect 8 0 1 0;
#X coords 0 -1 1 1 30 30 1 10 50;
#X restore 111 90 pd;
#X obj 111 60 loadbang;
#X obj 239 168 list;
#X obj 239 123 nbx 5 16 -180 180 0 0 empty empty empty 0 -9 0 10 #fcfcfc #000000 #000000 0 256;
#X obj 260 145 nbx 5 16 -90 90 0 1 empty empty empty 0 -9 0 10 #fcfcfc #000000 #000000 20 256;
#N canvas 1442 550 472 489 (subpatch) 0;
#X obj 11 51 tgl 28 0 empty empty empty 0 -9 0 10 #fcfcfc #000000 #000000 0 1;
#X obj 11 106 int;
#X obj 11 128 + 1;
#X obj 11 173 % 360;
#X obj 11 153 - 180;
#X obj 11 216 outlet;
#X obj 11 24 inlet;
#X obj 11 195 - 180;
#X obj 11 84 metro 100;
#X connect 0 0 8 0;
#X connect 1 0 2 0;
#X connect 2 0 1 1;
#X connect 2 0 4 0;
#X connect 3 0 7 0;
#X connect 4 0 3 0;
#X connect 6 0 0 0;
#X connect 7 0 5 0;
#X connect 8 0 1 0;
#X coords 0 -1 1 1 30 30 1 10 50;
#X restore 239 89 pd;
#X obj 239 59 loadbang;
#X msg 239 189 source 3 \$1 \$2;
#X obj 3 227 outlet;
#X connect 0 0 19 0;
#X connect 2 0 0 0;
#X connect 3 0 2 0;
#X connect 4 0 2 1;
#X connect 5 0 3 0;
#X connect 6 0 9 0;
#X connect 7 0 6 0;
#X connect 8 0 6 1;
#X connect 9 0 19 0;
#X connect 10 0 5 0;
#X connect 11 0 7 0;
#X connect 12 0 11 0;
#X connect 13 0 18 0;
#X connect 14 0 13 0;
#X connect 15 0 13 1;
#X connect 16 0 14 0;
#X connect 17 0 16 0;
#X connect 18 0 19 0;
#X restore 119 55 pd POSITIONS;
#N canvas 965 552 938 479 sources 0;
#X obj 16 253 outlet~;
#X obj 107 130 osc~ 200;
#N canvas 963 550 951 489 line 0;
#X obj 37 37 inlet~;
#X obj 37 109 *~;
#X obj 37 209 outlet~;
#X obj 99 81 line~;
#X obj 169 139 snapshot~;
#X obj 169 161 nbx 5 16 -1e+37 1e+37 0 0 empty empty empty 0 -9 0 10 #fcfcfc #000000 #000000 0 256;
#X obj 170 214 sel 1 0, f 28;
#X obj 37 131 *~ 0.1;
#X obj 353 226 tgl 18 0 empty empty empty 0 -9 0 10 #fcfcfc #000000 #000000 0 1;
#X obj 353 249 sel 1 0, f 27;
#X obj 353 309 mtof;
#X obj 432 311 mtof;
#X obj 433 183 loadbang;
#X msg 433 205 0;
#X obj 353 355 s r-fund;
#X obj 432 357 s r-fund;
#X obj 360 184 nbx 5 16 -1e+37 1e+37 0 0 empty empty empty 0 -9 0 10 #fcfcfc #000000 #000000 0 256;
#X obj 353 203 sel 0, f 9;
#X obj 353 164 % 8;
#X obj 280 24 r play;
#X obj 249 97 metro 50;
#X obj 257 49 loadbang;
#X obj 257 72 tgl 18 0 empty empty empty 0 -9 0 10 #fcfcfc #000000 #000000 0 1;
#X obj 189 268 bng 18 250 50 0 empty empty empty 0 -9 0 10 #fcfcfc #000000 #000000;
#X msg 116 46 0 \, 1 88;
#X msg 170 309 1 \, 0 88;
#X obj 169 182 change;
#X obj 355 114 int;
#X obj 355 137 + 1;
#X obj 170 240 delay 705 1 msec;
#X obj 353 272 55;
#X obj 432 274 50;
#X connect 0 0 1 0;
#X connect 1 0 7 0;
#X connect 3 0 1 1;
#X connect 3 0 4 0;
#X connect 4 0 5 0;
#X connect 5 0 26 0;
#X connect 6 0 29 0;
#X connect 7 0 2 0;
#X connect 8 0 9 0;
#X connect 9 0 30 0;
#X connect 9 1 31 0;
#X connect 10 0 14 0;
#X connect 11 0 15 0;
#X connect 12 0 13 0;
#X connect 13 0 9 0;
#X connect 17 0 8 0;
#X connect 18 0 16 0;
#X connect 18 0 17 0;
#X connect 19 0 24 0;
#X connect 19 0 27 0;
#X connect 20 0 4 0;
#X connect 21 0 22 0;
#X connect 22 0 20 0;
#X connect 24 0 3 0;
#X connect 25 0 3 0;
#X connect 26 0 6 0;
#X connect 27 0 28 0;
#X connect 28 0 18 0;
#X connect 28 0 27 1;
#X connect 29 0 25 0;
#X connect 29 0 23 0;
#X connect 30 0 10 0;
#X connect 31 0 11 0;
#X restore 107 161 pd line;
#X obj 107 103 nbx 5 16 -1e+37 1e+37 0 0 empty r-fund empty 0 -9 0 10 #fcfcfc #000000 #000000 0 256;
#N canvas 1439 552 464 479 line 0;
#X obj 595 432 outlet~;
#X obj 99 81 line~;
#X obj 169 139 snapshot~;
#X obj 169 161 nbx 5 16 -1e+37 1e+37 0 0 empty empty empty 0 -9 0 10 #fcfcfc #000000 #000000 0 256;
#X obj 170 214 sel 1 0, f 53;
#X obj 99 35 r play;
#X obj 249 97 metro 50;
#X obj 257 49 loadbang;
#X obj 257 72 tgl 18 0 empty empty empty 0 -9 0 10 #fcfcfc #000000 #000000 0 1;
#X obj 189 268 bng 18 250 50 0 empty empty empty 0 -9 0 10 #fcfcfc #000000 #000000;
#X msg 99 57 0 \, 1 88;
#X msg 170 309 1 \, 0 88;
#X obj 169 182 change;
#X obj 170 240 delay 705 1 msec;
#X obj 595 295 noise~;
#X obj 327 239 bng 18 250 50 0 empty empty empty 0 -9 0 10 #fcfcfc #000000 #000000;
#X obj 327 284 bng 18 250 50 0 empty empty empty 0 -9 0 10 #fcfcfc #000000 #000000;
#X obj 327 329 line~;
#X obj 595 322 *~;
#X obj 327 351 snapshot~;
#X obj 327 373 nbx 5 16 -1e+37 1e+37 0 0 empty empty empty 0 -9 0 10 #fcfcfc #000000 #000000 0 256;
#X obj 327 394 change;
#X obj 261 325 metro 50;
#X obj 269 277 loadbang;
#X obj 269 300 tgl 18 0 empty empty empty 0 -9 0 10 #fcfcfc #000000 #000000 0 1;
#X obj 327 416 sel 1;
#X msg 327 307 0 \, 1 33;
#X msg 361 442 1 \, 0 33;
#X obj 595 344 *~ 0.5;
#X obj 449 353 line~;
#X obj 449 375 snapshot~;
#X obj 449 397 nbx 5 16 -1e+37 1e+37 0 0 empty empty empty 0 -9 0 10 #fcfcfc #000000 #000000 0 256;
#X obj 449 418 change;
#X obj 449 440 sel 1;
#X msg 483 466 1 \, 0 33;
#X msg 399 321 0 \, 1 33;
#X obj 569 134 expr random(1 \, 2);
#X obj 548 93 bng 18 250 50 0 empty empty empty 0 -9 0 10 #fcfcfc #000000 #000000;
#X obj 569 156 nbx 5 16 -1e+37 1e+37 0 0 empty empty empty 0 -9 0 10 #fcfcfc #000000 #000000 0 256;
#X obj 451 247 expr if(random(1 \, 3) == 1 \, 176 \, 353);
#X obj 473 269 expr if(random(1 \, 3) == 1 \, 176 \, 353);
#X obj 327 262 del 176 1 msec;
#X obj 381 290 del 176 1 msec;
#X obj 595 366 hip~ 5000;
#X connect 1 0 2 0;
#X connect 2 0 3 0;
#X connect 3 0 12 0;
#X connect 4 0 13 0;
#X connect 4 1 15 0;
#X connect 4 1 39 0;
#X connect 4 1 40 0;
#X connect 5 0 10 0;
#X connect 6 0 2 0;
#X connect 7 0 8 0;
#X connect 8 0 6 0;
#X connect 10 0 1 0;
#X connect 11 0 1 0;
#X connect 12 0 4 0;
#X connect 13 0 11 0;
#X connect 13 0 9 0;
#X connect 14 0 18 0;
#X connect 15 0 41 0;
#X connect 16 0 26 0;
#X connect 17 0 19 0;
#X connect 17 0 18 1;
#X connect 18 0 28 0;
#X connect 19 0 20 0;
#X connect 20 0 21 0;
#X connect 21 0 25 0;
#X connect 22 0 19 0;
#X connect 22 0 30 0;
#X connect 23 0 24 0;
#X connect 24 0 22 0;
#X connect 25 0 27 0;
#X connect 26 0 17 0;
#X connect 27 0 17 0;
#X connect 28 0 43 0;
#X connect 29 0 30 0;
#X connect 29 0 18 1;
#X connect 30 0 31 0;
#X connect 31 0 32 0;
#X connect 32 0 33 0;
#X connect 33 0 34 0;
#X connect 34 0 29 0;
#X connect 35 0 29 0;
#X connect 36 0 38 0;
#X connect 37 0 36 0;
#X connect 39 0 42 1;
#X connect 40 0 41 1;
#X connect 41 0 16 0;
#X connect 41 0 42 0;
#X connect 42 0 35 0;
#X connect 43 0 0 0;
#X restore 199 167 pd line;
#X obj 16 206 snake~ in 3, f 31;
#N canvas 1439 552 464 479 source1 0;
#X obj 20 212 outlet~;
#X obj 30 107 tabplay~ maracatu;
#X obj 129 129 bng 18 250 50 0 empty empty empty 0 -9 0 10 #fcfcfc #000000 #000000;
#X obj 30 87 bng 18 250 50 0 empty empty empty 0 -9 0 10 #fcfcfc #000000 #000000;
#X obj 30 60 loadbang;
#X obj 129 152 s play;
#X connect 1 0 0 0;
#X connect 1 1 2 0;
#X connect 2 0 1 0;
#X connect 2 0 5 0;
#X connect 3 0 1 0;
#X connect 4 0 3 0;
#X restore 16 62 pd source1;
#N canvas 0 50 450 250 (subpatch) 0;
#X array maracatu 135520 float 4;
#X coords 0 1 135519 -1 111 41 1 0 0;
#X restore 227 23 graph;
#X obj 231 125 soundfiler;
#X obj 231 75 loadbang;
#X msg 231 101 read -resize ./Audios/som.wav maracatu;
#X connect 1 0 2 0;
#X connect 2 0 5 1;
#X connect 3 0 1 0;
#X connect 4 0 5 2;
#X connect 5 0 0 0;
#X connect 6 0 5 0;
#X connect 9 0 10 0;
#X connect 10 0 8 0;
#X restore 4 33 pd sources;
#X obj 4 55 snake~ out 3, f 17;
#X obj 4 131 saf.binaural~ 1 2;
#X obj 109 7 declare -lib pdlua;
#X obj 119 101 saf.panning -plan_size 200 -sources_size 3 -fig_size 200;
#X connect 1 0 6 0;
#X connect 1 1 6 1;
#X connect 1 2 6 2;
#X connect 1 3 6 3;
#X connect 3 0 1 0;
#X connect 3 0 8 0;
#X connect 4 0 5 0;
#X connect 5 0 1 0;
#X connect 5 1 1 1;
#X connect 5 2 1 2;
#X connect 6 0 2 0;
#X connect 6 1 2 1;
