#N canvas -61 -23 1920 977 8;
#X obj 16 327 earplug~;
#X obj 16 174 osc~ 440;
#X obj 83 299 nbx 5 14 -1e+37 1e+37 0 0 empty empty empty 0 -8 0 8 #fcfcfc #000000 #000000 0 256;
#X obj 83 278 else/count -alt 30 300;
#X obj 83 190 loadbang;
#X obj 98 210 bng 15 250 50 0 empty empty empty 0 -8 0 8 #fcfcfc #000000 #000000;
#X obj 16 359 dac~, f 8;
#X obj 319 261 nbx 5 14 -1e+37 1e+37 0 0 empty empty empty 0 -8 0 8 #fcfcfc #000000 #000000 0 256;
#X obj 319 79 loadbang;
#X obj 334 99 bng 15 250 50 0 empty empty empty 0 -8 0 8 #fcfcfc #000000 #000000;
#X obj 247 367 dac~, f 14;
#X obj 247 222 osc~ 330;
#X obj 247 335 earplug~ 30 30;
#X obj 319 240 else/count -alt 300 30;
#X obj 247 243 *~ 0.02;
#X obj 16 195 *~ 0.02;
#X obj 328 172 nbx 5 14 -1e+37 1e+37 0 0 empty empty empty 0 -8 0 8 #fcfcfc #000000 #000000 0 256;
#X obj 7 11 loadbang;
#X obj 22 31 bng 15 250 50 0 empty empty empty 0 -8 0 8 #fcfcfc #000000 #000000;
#X obj 16 134 nbx 5 14 -1e+37 1e+37 0 0 empty empty empty 0 -8 0 8 #fcfcfc #000000 #000000 0 256;
#X obj 16 113 else/count -alt 300 900;
#X obj 328 151 else/count -alt 900 300;
#X obj 83 233 metro 50;
#X obj 319 122 metro 77;
#X obj 7 54 metro 33;
#X obj 550 192 nbx 5 14 -1e+37 1e+37 0 0 empty empty empty 0 -8 0 8 #fcfcfc #000000 #000000 0 256;
#X obj 550 10 loadbang;
#X obj 565 30 bng 15 250 50 0 empty empty empty 0 -8 0 8 #fcfcfc #000000 #000000;
#X obj 478 298 dac~, f 14;
#X obj 478 153 osc~ 330;
#X obj 478 266 earplug~ 30 30;
#X obj 550 171 else/count -alt 300 30;
#X obj 478 174 *~ 0.02;
#X obj 559 103 nbx 5 14 -1e+37 1e+37 0 0 empty empty empty 0 -8 0 8 #fcfcfc #000000 #000000 0 256;
#X obj 559 82 else/count -alt 900 300;
#X obj 550 53 metro 77;
#X obj 793 297 nbx 5 14 -1e+37 1e+37 0 0 empty empty empty 0 -8 0 8 #fcfcfc #000000 #000000 0 256;
#X obj 839 119 loadbang;
#X obj 854 139 bng 15 250 50 0 empty empty empty 0 -8 0 8 #fcfcfc #000000 #000000;
#X obj 721 403 dac~, f 14;
#X obj 721 258 osc~ 330;
#X obj 721 371 earplug~ 30 30;
#X obj 793 276 else/count -alt 300 30;
#X obj 721 279 *~ 0.02;
#X obj 802 228 nbx 5 14 -1e+37 1e+37 0 0 empty empty empty 0 -8 0 8 #fcfcfc #000000 #000000 0 256;
#X obj 802 207 else/count -alt 900 300;
#X obj 839 162 metro 77;
#X obj 595 393 nbx 5 14 -1e+37 1e+37 0 0 empty empty empty 0 -8 0 8 #fcfcfc #000000 #000000 0 256;
#X obj 610 231 bng 15 250 50 0 empty empty empty 0 -8 0 8 #fcfcfc #000000 #000000;
#X obj 523 499 dac~, f 14;
#X obj 523 354 osc~ 330;
#X obj 523 467 earplug~ 30 30;
#X obj 595 372 else/count -alt 300 30;
#X obj 523 375 *~ 0.02;
#X obj 604 304 nbx 5 14 -1e+37 1e+37 0 0 empty empty empty 0 -8 0 8 #fcfcfc #000000 #000000 0 256;
#X obj 604 283 else/count -alt 900 300;
#X obj 595 254 metro 77;
#X obj 654 138 sel 540;
#X obj 698 215 + 50;
#X obj 698 194 random 100;
#X obj 722 134 bng 15 250 50 0 empty empty empty 0 -8 0 8 #fcfcfc #000000 #000000;
#X obj 744 76 random 1;
#X obj 744 97 sel 0 1;
#X msg 744 118 up;
#X msg 772 119 down;
#X msg 561 236 0;
#X obj 701 53 bng 15 250 50 0 empty empty empty 0 -8 0 8 #fcfcfc #000000 #000000;
#X obj 328 191 sel 0;
#X obj 208 27 random 1;
#X obj 208 48 sel 0 1;
#X msg 208 69 up;
#X msg 236 70 down;
#X obj 144 153 sel 304;
#X obj 661 301 random 1;
#X obj 661 322 sel 0 1;
#X msg 661 343 up;
#X msg 689 344 down;
#X msg 701 73 540;
#X obj 430 73 random 300;
#X obj 430 94 + 300;
#X connect 0 0 6 0;
#X connect 0 1 6 1;
#X connect 1 0 15 0;
#X connect 2 0 0 1;
#X connect 3 0 2 0;
#X connect 4 0 22 0;
#X connect 5 0 22 0;
#X connect 7 0 12 1;
#X connect 8 0 23 0;
#X connect 9 0 23 0;
#X connect 11 0 14 0;
#X connect 12 0 10 0;
#X connect 12 1 10 1;
#X connect 13 0 7 0;
#X connect 14 0 12 0;
#X connect 15 0 0 0;
#X connect 16 0 11 0;
#X connect 16 0 67 0;
#X connect 17 0 24 0;
#X connect 18 0 24 0;
#X connect 19 0 1 0;
#X connect 19 0 72 0;
#X connect 20 0 19 0;
#X connect 21 0 16 0;
#X connect 22 0 3 0;
#X connect 23 0 13 0;
#X connect 23 0 21 0;
#X connect 24 0 20 0;
#X connect 25 0 30 1;
#X connect 26 0 35 0;
#X connect 27 0 35 0;
#X connect 29 0 32 0;
#X connect 30 0 28 0;
#X connect 30 1 28 1;
#X connect 31 0 25 0;
#X connect 32 0 30 0;
#X connect 33 0 29 0;
#X connect 33 0 57 0;
#X connect 34 0 33 0;
#X connect 35 0 31 0;
#X connect 35 0 34 0;
#X connect 36 0 41 1;
#X connect 37 0 46 0;
#X connect 38 0 46 0;
#X connect 40 0 43 0;
#X connect 41 0 39 0;
#X connect 41 1 39 1;
#X connect 42 0 36 0;
#X connect 43 0 41 0;
#X connect 44 0 40 0;
#X connect 45 0 44 0;
#X connect 46 0 42 0;
#X connect 46 0 45 0;
#X connect 47 0 51 1;
#X connect 48 0 56 0;
#X connect 48 0 65 0;
#X connect 48 0 73 0;
#X connect 50 0 53 0;
#X connect 51 0 49 0;
#X connect 51 1 49 1;
#X connect 52 0 47 0;
#X connect 53 0 51 0;
#X connect 54 0 50 0;
#X connect 55 0 54 0;
#X connect 56 0 52 0;
#X connect 56 0 55 0;
#X connect 57 0 48 0;
#X connect 57 0 59 0;
#X connect 57 0 38 0;
#X connect 57 0 61 0;
#X connect 58 0 56 1;
#X connect 58 0 46 1;
#X connect 59 0 58 0;
#X connect 60 0 59 0;
#X connect 61 0 62 0;
#X connect 62 0 63 0;
#X connect 62 1 64 0;
#X connect 63 0 45 0;
#X connect 64 0 45 0;
#X connect 65 0 21 0;
#X connect 66 0 77 0;
#X connect 66 0 78 0;
#X connect 67 0 68 0;
#X connect 68 0 69 0;
#X connect 69 0 70 0;
#X connect 69 1 71 0;
#X connect 70 0 20 0;
#X connect 71 0 20 0;
#X connect 72 0 66 0;
#X connect 73 0 74 0;
#X connect 74 0 75 0;
#X connect 74 1 76 0;
#X connect 75 0 55 0;
#X connect 76 0 55 0;
#X connect 77 0 57 0;
#X connect 78 0 79 0;
#X connect 79 0 21 0;
