#N canvas 581 -20 1120 806 8;
#X obj 16 214 earplug~;
#X obj 16 61 osc~ 440;
#X obj 83 186 nbx 5 14 -1e+37 1e+37 0 0 empty empty empty 0 -8 0 8 #fcfcfc #000000 #000000 0 256;
#X obj 83 165 else/count -alt 30 300;
#X obj 83 77 loadbang;
#X obj 98 97 bng 15 250 50 0 empty empty empty 0 -8 0 8 #fcfcfc #000000 #000000;
#X obj 16 246 dac~, f 8;
#X obj 338 206 nbx 5 14 -1e+37 1e+37 0 0 empty empty empty 0 -8 0 8 #fcfcfc #000000 #000000 0 256;
#X obj 338 24 loadbang;
#X obj 353 44 bng 15 250 50 0 empty empty empty 0 -8 0 8 #fcfcfc #000000 #000000;
#X obj 266 312 dac~, f 14;
#X obj 266 167 osc~ 330;
#X obj 266 280 earplug~ 30 30;
#X obj 338 185 else/count -alt 300 30;
#X obj 266 188 *~ 0.02;
#X obj 16 82 *~ 0.02;
#X obj 347 117 nbx 5 14 -1e+37 1e+37 0 0 empty empty empty 0 -8 0 8 #fcfcfc #000000 #000000 0 256;
#X obj 199 8 loadbang;
#X obj 214 28 bng 15 250 50 0 empty empty empty 0 -8 0 8 #fcfcfc #000000 #000000;
#X obj 208 101 nbx 5 14 -1e+37 1e+37 0 0 empty empty empty 0 -8 0 8 #fcfcfc #000000 #000000 0 256;
#X obj 208 80 else/count -alt 300 900;
#X obj 347 96 else/count -alt 900 300;
#X obj 83 120 metro 50;
#X obj 338 67 metro 77;
#X obj 199 51 metro 33;
#X connect 0 0 6 0;
#X connect 0 1 6 1;
#X connect 1 0 15 0;
#X connect 2 0 0 1;
#X connect 3 0 2 0;
#X connect 4 0 22 0;
#X connect 5 0 22 0;
#X connect 7 0 12 1;
#X connect 8 0 23 0;
#X connect 9 0 23 0;
#X connect 11 0 14 0;
#X connect 12 0 10 0;
#X connect 12 1 10 1;
#X connect 13 0 7 0;
#X connect 14 0 12 0;
#X connect 15 0 0 0;
#X connect 16 0 11 0;
#X connect 17 0 24 0;
#X connect 18 0 24 0;
#X connect 19 0 1 0;
#X connect 20 0 19 0;
#X connect 21 0 16 0;
#X connect 22 0 3 0;
#X connect 23 0 13 0;
#X connect 23 0 21 0;
#X connect 24 0 20 0;
