#N canvas 659 6 1210 649 8;
#X obj 13 291 dac~, f 14;
#X obj 51 14 r azimuth;
#X obj 13 14 adc~ 1;
#X floatatom 51 192 5 0 0 0 - - - 0;
#X obj 51 234 line 0 1;
#X obj 51 211 pack 0 1000;
#X obj 104 46 vsl 15 128 30 330 0 0 empty empty empty 0 -9 0 8 #fcfcfc #000000 #000000 0 1;
#X obj 13 56 else/giga.rev~;
#X obj 13 257 earplug~ 90 20;
#X msg 210 86 size 300 \, decay 103 \, damp 0.43 \, bw 0.51 \, dry 0.55 \, early 0.05 \, late 0.1, f 71;
#X obj 245 45 loadbang;
#X obj 203 28 bng 15 250 50 0 empty empty empty 0 -8 0 8 #fcfcfc #000000 #000000;
#X connect 1 0 3 0;
#X connect 2 0 7 0;
#X connect 3 0 5 0;
#X connect 4 0 8 1;
#X connect 5 0 4 0;
#X connect 6 0 3 0;
#X connect 7 0 8 0;
#X connect 8 0 0 0;
#X connect 8 1 0 1;
#X connect 9 0 7 0;
#X connect 10 0 9 0;
#X connect 11 0 9 0;
