#N canvas 963 23 951 1016 10;
#X obj 5 7 r m-11;
#X obj 5 28 onebang;
#X obj 92 7 r min-onset;
#X obj 664 380 loadbang;
#X obj 664 424 s min-onset;
#X obj 5 50 list prepend 1;
#X obj 114 73 onebang;
#X obj 201 52 r min-onset;
#X obj 114 52 r m-12;
#X obj 210 143 onebang;
#X obj 297 122 r min-onset;
#X obj 210 122 r m-13;
#X obj 306 214 onebang;
#X obj 393 193 r min-onset;
#X obj 306 193 r m-14;
#X obj 114 95 list prepend 2;
#X obj 210 165 list prepend 3;
#X obj 306 236 list prepend 4;
#X obj 356 283 onebang;
#X obj 443 262 r min-onset;
#X obj 356 262 r m-15;
#X obj 356 305 list prepend 5;
#X obj 312 141 bng 18 250 50 0 empty empty empty 0 -9 0 10 #fcfcfc #000000 #000000;
#X obj 426 34 onebang;
#X obj 513 13 r min-onset;
#X obj 537 79 onebang;
#X obj 624 58 r min-onset;
#X obj 633 149 onebang;
#X obj 720 128 r min-onset;
#X obj 735 147 bng 18 250 50 0 empty empty empty 0 -9 0 10 #fcfcfc #000000 #000000;
#X obj 426 13 r m-23;
#X obj 537 58 r m-24;
#X obj 633 128 r m-25;
#X obj 426 56 list prepend 6;
#X obj 537 101 list prepend 7;
#X obj 633 171 list prepend 8;
#X obj 647 241 onebang;
#X obj 734 220 r min-onset;
#X obj 743 311 onebang;
#X obj 830 290 r min-onset;
#X obj 845 309 bng 18 250 50 0 empty empty empty 0 -9 0 10 #fcfcfc #000000 #000000;
#X obj 647 220 r m-34;
#X obj 743 290 r m-35;
#X obj 647 263 list prepend 9;
#X obj 743 333 list prepend 10;
#X obj 108 226 onebang;
#X obj 195 205 r min-onset;
#X obj 210 224 bng 18 250 50 0 empty empty empty 0 -9 0 10 #fcfcfc #000000 #000000;
#X obj 108 248 list prepend 11;
#X obj 108 205 r m-45;
#X obj 5 351 clone 12 Libs/plaits;
#X obj 664 402 metro 400;
#X obj 5 424 giga.rev~;
#X msg 147 396 size 143 \, decay 7 \, damp 0.71 \, bw 0.34 \, dry 0.7 \, early 0.28 \, late 0.35, f 69;
#X obj 5 446 dac~ 1 2, f 14;
#X obj 147 369 loadbang;
#X connect 0 0 1 0;
#X connect 1 0 5 0;
#X connect 2 0 1 1;
#X connect 3 0 51 0;
#X connect 5 0 50 0;
#X connect 6 0 15 0;
#X connect 7 0 6 1;
#X connect 8 0 6 0;
#X connect 9 0 16 0;
#X connect 10 0 9 1;
#X connect 11 0 9 0;
#X connect 12 0 17 0;
#X connect 13 0 12 1;
#X connect 14 0 12 0;
#X connect 15 0 50 0;
#X connect 16 0 50 0;
#X connect 17 0 50 0;
#X connect 18 0 21 0;
#X connect 19 0 18 1;
#X connect 20 0 18 0;
#X connect 21 0 50 0;
#X connect 22 0 16 0;
#X connect 23 0 33 0;
#X connect 24 0 23 1;
#X connect 25 0 34 0;
#X connect 26 0 25 1;
#X connect 27 0 35 0;
#X connect 28 0 27 1;
#X connect 29 0 35 0;
#X connect 30 0 23 0;
#X connect 31 0 25 0;
#X connect 32 0 27 0;
#X connect 33 0 50 0;
#X connect 34 0 50 0;
#X connect 35 0 50 0;
#X connect 36 0 43 0;
#X connect 37 0 36 1;
#X connect 38 0 44 0;
#X connect 39 0 38 1;
#X connect 40 0 44 0;
#X connect 41 0 36 0;
#X connect 42 0 38 0;
#X connect 43 0 50 0;
#X connect 44 0 50 0;
#X connect 45 0 48 0;
#X connect 46 0 45 1;
#X connect 47 0 48 0;
#X connect 48 0 50 0;
#X connect 49 0 45 0;
#X connect 50 0 52 0;
#X connect 51 0 4 0;
#X connect 52 0 54 0;
#X connect 52 1 54 1;
#X connect 53 0 52 0;
#X connect 55 0 53 0;
