#N canvas 0 0 925 1132 10;
#X obj 4 4 pdlua;
#N canvas 0 0 925 1132 hradio 0;
#X obj 30 89 l.hradio;
#X obj 30 112 print lua;
#X obj 96 156 print hradio;
#X obj 96 132 hradio 18 1 0 8 empty empty empty 0 -9 0 10 #fcfcfc #000000 #000000 0;
#X msg 30 60 bang \, float 1 \, symbol opla \, list 1 2 3 \, novalid;
#X connect 0 0 1 0;
#X connect 3 0 2 0;
#X connect 4 0 0 0;
#X connect 4 0 3 0;
#X restore 74 188 pd hradio;
#N canvas 0 0 925 1132 tgl 0;
#X obj 30 149 print lua;
#X obj 55 86 tgl 18 0 empty empty empty 0 -9 0 10 #fcfcfc #000000 #000000 0 1;
#X obj 30 85 l.tgl 18 0 empty empty empty 0 -9 0 10 #fcfcfc #000000 #000000 0 1;
#X obj 55 112 print tgl;
#X msg 22 27 bang \, float 123 \, symbol 2389 \, list 2839 \, notvalid;
#X connect 1 0 3 0;
#X connect 2 0 0 0;
#X connect 4 0 2 0;
#X connect 4 0 1 0;
#X restore 54 93 pd tgl;
#N canvas 0 0 925 1132 bng 0;
#X obj 30 89 l.bng 18 250 50 0 empty empty empty 0 -9 0 10 #fcfcfc #000000 #000000;
#X obj 55 89 bng 18 250 50 0 empty empty empty 0 -9 0 10 #fcfcfc #000000 #000000;
#X obj 55 112 print bng;
#X obj 30 149 print lua;
#X msg 22 27 bang \, float 123 \, symbol 2389 \, list 2839 \, notvalid;
#X connect 0 0 3 0;
#X connect 1 0 2 0;
#X connect 4 0 0 0;
#X connect 4 0 1 0;
#X restore 11 93 pd bng;
#N canvas 0 0 925 1132 nbx 0;
#X obj 30 138 nbx 5 16 -1e+37 1e+37 0 0 empty empty empty 0 -9 0 10 #fcfcfc #000000 #000000 0 256;
#X obj 93 139 l.nbx;
#X msg 128 98 reload;
#X obj 30 159 print nbx;
#X obj 93 158 print l.nbx;
#X msg 93 61 bang \, float 2 \, symbol asj4 \, list 1 2 4 \, novalid;
#X msg 30 60 symbol 32;
#X connect 0 0 3 0;
#X connect 1 0 4 0;
#X connect 2 0 1 0;
#X connect 5 0 1 0;
#X connect 5 0 0 0;
#X connect 6 0 0 0;
#X connect 6 0 1 0;
#X restore 102 93 pd nbx;
#N canvas 0 0 925 1132 vradio 0;
#X obj 31 86 l.vradio;
#X obj 30 263 print lua;
#X obj 31 61 r vradio;
#X obj 57 86 vradio 18 1 0 8 empty empty empty 0 -9 0 10 #fcfcfc #000000 #000000 0;
#X obj 57 235 print vradio;
#X msg 86 60 bang \, float 1 \, symbol opla \, list 1 2 3 \, novalid;
#X connect 0 0 1 0;
#X connect 2 0 0 0;
#X connect 2 0 3 0;
#X connect 3 0 4 0;
#X connect 5 0 0 0;
#X connect 5 0 3 0;
#X restore 9 188 pd vradio;
#X obj -8 407 l.keyboard;
#N canvas 0 0 925 1132 hsl 0;
#X obj 127 273 print bng;
#X obj 43 273 print lua;
#X obj 127 95 vsl 18 153 0 127 0 0 empty empty empty 0 -9 0 10 #fcfcfc #000000 #000000 0 1;
#X obj 55 93 l.vsl 18 153 0 127 0 0 empty empty empty -2 -9 0 10 #fcfcfc #000000 #000000 0 1;
#X obj 158 53 nbx 5 16 1 127 0 0 empty empty empty 0 -9 0 10 #fcfcfc #000000 #000000 0 256;
#X msg 22 27 bang \, float 123 \, symbol 2389 \, list 50 \, notvalid;
#X msg 88 49 reload;
#X connect 2 0 0 0;
#X connect 3 0 1 0;
#X connect 4 0 3 0;
#X connect 4 0 2 0;
#X connect 5 0 2 0;
#X connect 5 0 3 0;
#X connect 6 0 3 0;
#X restore 13 133 pd hsl;
#N canvas 0 0 925 1132 vsl 0;
#X obj 127 273 print bng;
#X obj 43 273 print lua;
#X obj 158 53 nbx 5 16 1 127 0 0 empty empty empty 0 -9 0 10 #fcfcfc #000000 #000000 0 256;
#X msg 22 27 bang \, float 123 \, symbol 2389 \, list 50 \, notvalid;
#X msg 88 49 reload;
#X obj 130 119 hsl 153 18 0 127 0 0 empty empty empty -2 -9 0 10 #fcfcfc #000000 #000000 0 1;
#X obj 22 146 l.hsl 153 18 0 127 0 0 empty empty empty -2 -9 0 10 #fcfcfc #000000 #000000 0 1;
#X msg 188 73 list 48 38;
#X obj 284 63 bng 18 250 50 0 empty empty empty 0 -9 0 10 #fcfcfc #000000 #000000;
#X connect 2 0 5 0;
#X connect 2 0 6 0;
#X connect 3 0 5 0;
#X connect 3 0 6 0;
#X connect 4 0 6 0;
#X connect 5 0 0 0;
#X connect 6 0 1 0;
#X connect 7 0 5 0;
#X connect 7 0 6 0;
#X connect 8 0 5 0;
#X connect 8 0 6 0;
#X restore 56 133 pd vsl;
#N canvas 0 0 925 1132 vu 0;
#X obj 54 160 vu 18 160 empty empty -1 -9 0 10 #404040 #000000 1 0;
#X obj 30 158 l.vu 18 160 empty empty -1 -9 0 10 #404040 #000000 1 0;
#X msg 58 60 0;
#X msg 22 27 bang \, float 0 \, symbol -30 \, list 40 \, notvalid;
#X obj 53 327 print vu;
#X obj 30 362 print l.vu;
#X msg 97 84 reload;
#X connect 0 0 4 0;
#X connect 1 0 5 0;
#X connect 2 0 0 0;
#X connect 2 0 1 0;
#X connect 3 0 1 0;
#X connect 3 0 0 0;
#X connect 6 0 1 0;
#X restore 12 162 pd vu;
#N canvas 0 0 925 1132 floatatom 0;
#X floatatom 15 184 5 0 0 0 - - - 0;
#X obj 52 184 floatatom;
#X msg 169 56 reload;
#X msg 22 27 bang \, float 123 \, symbol 2389 \, list 284439 \, notvalid;
#X msg 105 64 284439;
#X msg 205 167 892289;
#X obj 205 189 print;
#X msg 194 124 892289;
#X obj 125 279 nbx 5 16 -1e+37 1e+37 0 0 empty empty empty 0 -9 0 10 #fcfcfc #000000 #000000 0 256;
#X obj 125 257 r _pd4web_show_number_keyboard;
#X connect 2 0 1 0;
#X connect 3 0 0 0;
#X connect 3 0 1 0;
#X connect 4 0 0 0;
#X connect 4 0 1 0;
#X connect 5 0 6 0;
#X connect 7 0 0 0;
#X connect 7 0 1 0;
#X connect 9 0 8 0;
#X restore 9 249 pd floatatom;
#N canvas 0 0 925 1132 symbolatom 0;
#X symbolatom 26 228 10 0 0 0 - - - 0;
#X msg 26 29 bang \, float 0 \, symbol -30 \, list 40 \, notvalid;
#X obj 96 227 symbolatom;
#X msg 82 52 bang;
#X obj 26 249 print s;
#X obj 96 248 print lua;
#X msg 122 79 float 490;
#X msg 216 102 reload;
#X msg 137 139 symbol -40;
#X msg 178 180 list sd89 123jkasd;
#X msg 285 126 notvalid;
#X connect 0 0 4 0;
#X connect 1 0 0 0;
#X connect 1 0 2 0;
#X connect 2 0 5 0;
#X connect 3 0 0 0;
#X connect 3 0 2 0;
#X connect 6 0 2 0;
#X connect 6 0 0 0;
#X connect 7 0 2 0;
#X connect 8 0 2 0;
#X connect 8 0 0 0;
#X connect 9 0 2 0;
#X connect 9 0 0 0;
#X connect 10 0 2 0;
#X connect 10 0 0 0;
#X restore 89 249 pd symbolatom;
#N canvas 0 0 925 1132 lisatom 0;
#X msg 93 61 bang \, float 2 \, symbol asj4 \, list 1 2 4 \, novalid;
#X msg 30 60 symbol 32;
#X listbox 37 186 20 0 0 0 - - - 0;
#X obj 37 207 print list;
#X obj 169 186 listatom;
#X obj 169 207 print lua;
#X msg 197 101 reload;
#X msg 257 122 list 1 2 3;
#X connect 0 0 2 0;
#X connect 0 0 4 0;
#X connect 2 0 3 0;
#X connect 4 0 5 0;
#X connect 6 0 4 0;
#X connect 7 0 4 0;
#X restore 174 249 pd lisatom;
