#N canvas 964 23 473 1016 10;
#N canvas 1443 23 471 1016 (subpatch) 1;
#X msg 31 177 0;
#X obj 77 15 cnv 18 10 10 empty empty BWV-1013 20 12 0 18 #ffffff #000000 0;
#X msg 126 201 \; pd dsp \$1;
#X obj 126 178 tgl 18 0 empty empty empty 0 -9 0 10 #fcfcfc #000000 #000000 0 1;
#X obj 33 261 dac~;
#X obj 21 17 loadbang;
#X obj 17 371 nbx 3 24 -1e+37 1e+37 0 0 empty empty empty 0 -9 0 20 #fcfcfc #ff0400 #ff0400 0 256;
#X obj 200 373 nbx 5 16 -1e+37 1e+37 0 0 empty empty empty 0 -9 0 10 #fcfcfc #000000 #000000 0 256;
#X obj 17 400 list, f 29;
#X obj 17 422 print;
#X msg 47 318 score Audios/score.txt \, start;
#X obj 105 430 outlet;
#X obj 16 345 o.scofo~;
#X msg 40 92 read -resize Audios/audio.wav sound;
#X obj 21 39 t b b b;
#X obj 120 126 array define sound;
#X obj 16 209 tabplay~ sound;
#X msg 13 137 1;
#X obj 40 114 soundfiler;
#X connect 0 0 16 0;
#X connect 3 0 2 0;
#X connect 5 0 14 0;
#X connect 6 0 8 0;
#X connect 6 0 11 0;
#X connect 7 0 8 1;
#X connect 8 0 9 0;
#X connect 10 0 12 0;
#X connect 12 0 6 0;
#X connect 12 1 7 0;
#X connect 13 0 18 0;
#X connect 14 0 17 0;
#X connect 14 1 13 0;
#X connect 14 2 10 0;
#X connect 16 0 4 0;
#X connect 16 0 4 1;
#X connect 16 0 12 0;
#X connect 17 0 16 0;
#X restore 5 5 pd;
#X obj 5 56 nbx 4 30 -1e+37 1e+37 0 0 s-event r-event empty 0 -9 0 25 #fcfcfc #000000 #000000 0 256;
#X obj 5 27 s r-event;
#X obj 153 32 else/vu~;
#X connect 0 0 2 0;
