#N canvas 849 423 222 186 10;
#N canvas 1282 23 632 1016 (subpatch) 0;
#X msg 31 177 0;
#X obj 77 15 cnv 18 10 10 empty empty BWV-1013 20 12 0 18 #ffffff #000000 0;
#X msg 231 305 \; pd dsp \$1;
#X obj 231 282 tgl 18 0 empty empty empty 0 -9 0 10 #fcfcfc #000000 #000000 0 1;
#X obj 33 261 dac~;
#X obj 21 17 loadbang;
#X obj 16 371 nbx 3 24 -1e+37 1e+37 0 0 empty empty empty 0 -9 0 20 #fcfcfc #ff0400 #ff0400 0 256;
#X obj 187 380 nbx 5 16 -1e+37 1e+37 0 0 empty empty empty 0 -9 0 10 #fcfcfc #000000 #000000 0 256;
#X obj 16 452 list, f 29;
#X obj 29 418 outlet;
#X obj 15 345 o.scofo~;
#X msg 46 318 score Extras/score.txt \, start;
#X obj 64 260 else/vu~;
#X obj 73 287 s r-vu1;
#X obj 113 92 soundfiler;
#X msg 113 69 read -resize Audios/audio.wav sound;
#X obj 182 135 array define sound;
#X obj 21 67 t b b b;
#X obj 16 209 tabplay~ sound;
#X obj 120 287 s r-vu2;
#X obj 54 42 r s-bng1;
#X connect 0 0 18 0;
#X connect 3 0 2 0;
#X connect 5 0 17 0;
#X connect 6 0 8 0;
#X connect 6 0 9 0;
#X connect 7 0 8 1;
#X connect 10 0 6 0;
#X connect 10 1 7 0;
#X connect 11 0 10 0;
#X connect 12 0 13 0;
#X connect 12 0 19 0;
#X connect 15 0 14 0;
#X connect 17 0 18 0;
#X connect 17 1 11 0;
#X connect 17 2 15 0;
#X connect 18 0 4 0;
#X connect 18 0 4 1;
#X connect 18 0 10 0;
#X connect 18 0 12 0;
#X connect 20 0 17 0;
#X restore 4 43 pd;
#X obj 4 5 nbx 4 30 -1e+37 1e+37 0 0 s-event r-event empty 0 -9 0 25 #fcfcfc #000000 #000000 0 256;
#X obj 4 65 s r-event;
#X obj 119 7 vu 18 160 r-vu1 empty -1 -9 0 10 #404040 #000000 0 0;
#X obj 144 5 bng 35 250 50 0 s-bng1 r-bng1 empty 0 -9 0 10 #fcfcfc #000000 #000000;
#X connect 0 0 2 0;
