#N canvas 1282 23 632 1016 12;
#N canvas 197 86 1273 842 fmOsc1 0;
#X obj 227 113 nbx 5 14 -1e+37 1e+37 0 0 empty empty empty 0 -8 0 10 #dcdcdc #000000 #000000 0 256;
#X obj 291 125 nbx 5 14 -1e+37 1e+37 0 0 empty empty empty 0 -8 0 10 #dcdcdc #000000 #000000 0 256;
#X obj 295 72 hsl 128 15 0 10 0 0 empty empty empty -2 -8 0 10 #dcdcdc #000000 #000000 0 1;
#X text 348 125 index;
#X text 248 85 ratio;
#X msg 292 50 3.7;
#X obj 178 144 else/fm~;
#X obj 185 222 outlet~;
#X obj 134 19 inlet~;
#X obj 236 18 loadbang;
#X obj 332 21 r rpm;
#X msg 221 88 0.501;
#X obj 345 201 sig~;
#X obj 289 144 else/float2sig~;
#X obj 329 49 else/rescale -in 0 9000 2 10;
#X connect 0 0 6 1;
#X connect 1 0 13 0;
#X connect 2 0 1 0;
#X connect 5 0 2 0;
#X connect 6 0 7 0;
#X connect 8 0 6 0;
#X connect 9 0 11 0;
#X connect 9 0 5 0;
#X connect 10 0 14 0;
#X connect 11 0 0 0;
#X connect 13 0 6 2;
#X connect 14 0 2 0;
#X restore 102 186 pd fmOsc1;
#X obj 64 60 Libs/myabs;
