#N canvas 0 0 925 1129 10;
#X floatatom 2 50 5 0 0 0 - - - 0;
#X listbox 104 97 15 0 0 0 - - - 0;
#X obj 147 249 metro 600;
#X obj 147 271 int;
#X obj 147 292 + 1;
#X obj 147 364 sel 0 1 2 3;
#X obj 147 314 % 4;
#X obj 145 208 loadbang;
#X obj 2 7 r f;
#X obj 232 211 bng 18 250 50 0 empty empty empty 0 -9 0 10 #fcfcfc #000000 #000000;
#X obj 165 337 nbx 5 16 -1e+37 1e+37 0 0 empty empty empty 0 -9 0 10 #fcfcfc #000000 #000000 0 256;
#X obj 147 520 s f;
#X obj 304 446 pack f f f;
#X obj 304 468 s l;
#X obj 26 8 r l;
#X obj 147 498 expr random(30 \, 10000);
#X obj 162 465 expr random(30 \, 10000);
#X obj 194 384 s b;
#X obj 66 9 r b;
#X obj 2 170 print float;
#X obj 115 171 print list;
#X obj 104 15 r s;
#X obj 178 441 s s;
#X symbolatom 39 70 10 0 0 0 - - - 0;
#X msg 178 413 list oi hello;
#X obj 39 98 print s;
#X connect 0 0 19 0;
#X connect 1 0 20 0;
#X connect 2 0 3 0;
#X connect 3 0 4 0;
#X connect 4 0 6 0;
#X connect 5 0 15 0;
#X connect 5 1 16 0;
#X connect 5 2 24 0;
#X connect 5 3 17 0;
#X connect 6 0 3 1;
#X connect 6 0 5 0;
#X connect 6 0 10 0;
#X connect 7 0 2 0;
#X connect 8 0 0 0;
#X connect 8 0 23 0;
#X connect 9 0 2 0;
#X connect 10 0 12 1;
#X connect 12 0 13 0;
#X connect 14 0 0 0;
#X connect 14 0 1 0;
#X connect 14 0 23 0;
#X connect 15 0 11 0;
#X connect 15 0 12 2;
#X connect 16 0 12 0;
#X connect 18 0 0 0;
#X connect 18 0 1 0;
#X connect 18 0 23 0;
#X connect 21 0 23 0;
#X connect 21 0 1 0;
#X connect 23 0 25 0;
#X connect 24 0 22 0;
#X coords 0 -1 1 1 200 200 1 1 1;
