#N canvas 51 126 983 702 12;
#X obj 522 395 notein, f 32;
#X obj 522 443 pack f f, f 16;
#X msg 787 405 65;
#X obj 680 476 pack f f, f 17;
#X obj 785 514 loadbang;
#X obj 522 607 else/plaits~ -midi -model 11;
#X obj 6 10 vsl 19 162 0 1 0 0 s-h r-h empty 0 -9 0 12 #fcfcfc #000000 #000000 0 1;
#X obj 28 10 vsl 19 162 0 1 0 0 s-t r-t empty 0 -9 0 12 #fcfcfc #000000 #000000 0 1;
#X obj 522 648 dac~ 1;
#X msg 321 454 harmonics \$1;
#X msg 245 454 timbre \$1;
#X msg 417 454 morph \$1;
#X obj 321 410 r s-h;
#X obj 245 410 r s-t;
#X obj 417 410 r s-m;
#X obj 50 10 vsl 19 162 0 1 0 0 s-m r-m empty 0 -9 0 12 #fcfcfc #000000 #000000 0 1;
#X msg 785 538 1;
#X msg 785 573 tr_active \$1;
#X obj 478 155 r t_ac;
#X obj 81 8 tgl 50 0 s-t_ac r-t_ac empty 0 -10 0 12 #fcfcfc #000000 #000000 0 1;
#X obj 865 538 tgl 19 0 empty empty empty 0 -10 0 12 #fcfcfc #000000 #000000 0 1;
#X obj 865 514 r s-t_ac;
#X obj 680 452 makenote 127 200;
#X obj 551 32 else/plaits.m~;
#A saved 0 0.5 0.5 0.5 17 0.833334 0.5 0 0 0 0 0 4 0 0;
#X connect 0 0 1 0;
#X connect 0 1 1 1;
#X connect 1 0 5 0;
#X connect 2 0 22 0;
#X connect 3 0 5 0;
#X connect 4 0 16 0;
#X connect 5 0 8 0;
#X connect 9 0 5 0;
#X connect 10 0 5 0;
#X connect 11 0 5 0;
#X connect 12 0 9 0;
#X connect 13 0 10 0;
#X connect 14 0 11 0;
#X connect 16 0 17 0;
#X connect 17 0 5 0;
#X connect 21 0 17 0;
#X connect 21 0 20 0;
#X connect 22 0 3 0;
#X connect 22 1 3 1;
