#N canvas 160 -1109 899 487 12;
#N canvas 460 171 450 385 subpatch 0;
#X obj 111 56 inlet~;
#X obj 126 251 outlet~;
#X obj 120 111 else/comb.rev~ 50 0.3 0.3 0.3;
#X floatatom 234 204 7 0 0 0 - - - 0;
#X obj 121 166 else/compress~;
#X connect 0 0 2 0;
#X connect 2 0 4 0;
#X connect 4 0 1 0;
#X connect 4 1 3 0;
#X restore 298 128 pd subpatch;
#X obj 300 235 dac~;
#X obj 313 54 osc~ 440;
#X obj 329 98 *~;
#X obj 297 195 *~ 0.15;
#X obj 369 67 else/pulse~ 1 0.25;
#X connect 0 0 4 0;
#X connect 2 0 3 0;
#X connect 3 0 0 0;
#X connect 4 0 1 0;
#X connect 4 0 1 1;
#X connect 5 0 3 1;
