#N canvas 0 0 925 1129 10; 
#X declare -lib else; 
#X declare -path Libs; 
#X declare -lib pdlua; 
#X obj 483 393 declare -lib else; 
#X obj 45 117 bhack.define; 
#X obj 23 364 bhack.voice; 
#N canvas 0 0 925 1129 score 0; 
#X obj 44 29 inlet; 
#X obj 44 133 plaits~ -tr_active -model 11 -midi; 
#X obj 44 155 outlet~; 
#X obj 44 51 unpack f; 
#X obj 44 95 pack f f, f 16; 
#X obj 44 73 makenote 100 40; 
#X connect 0 0 3 0; 
#X connect 1 0 2 0; 
#X connect 3 0 5 0; 
#X connect 4 0 1 0; 
#X connect 5 0 4 0; 
#X connect 5 1 4 1; 
#X restore 23 476 pd score; 
#X obj 175 128 bhack.iterate; 
#X obj 175 107 bhack.arithmser 1 50 1; 
#X obj 250 204 bhack.mton 96edo; 
#X obj 250 226 bhack.list 1; 
#X obj 250 182 expr random(6000 \, 8400) * 0.01; 
#X msg 22 45 list ((4 4) ((1 (1 1 1)) (1 (1 1 1 1)) (1 (1 1 1 1 1)) (1 (1 1 1 1 1 1)))), f 76; 
#X obj 482 415 declare -path Libs; 
#X obj 482 372 declare -lib pdlua; 
#X obj 175 253 bhack.collect; 
#X obj 44 6 loadbang; 
#X obj 23 533 dac~; 
#X obj 22 66 t a b, f 26; 
#X obj 45 148 t b a, f 15; 
#X msg 45 170 play; 
#X text 45 302 Play some random; 
#X obj 250 155 b; 
#X obj 24 303 l.bng 18 250 50 0 empty empty empty 0 -9 0 10 #fcfcfc #000000 #000000; 
#X connect 1 0 16 0; 
#X connect 2 0 3 0; 
#X connect 3 0 14 0; 
#X connect 3 0 14 1; 
#X connect 4 0 12 0; 
#X connect 4 1 19 0; 
#X connect 5 0 4 0; 
#X connect 6 0 7 0; 
#X connect 7 0 12 1; 
#X connect 8 0 6 0; 
#X connect 9 0 15 0; 
#X connect 12 0 2 1; 
#X connect 15 0 1 0; 
#X connect 15 1 5 0; 
#X connect 16 0 17 0; 
#X connect 16 1 2 0; 
#X connect 17 0 2 0; 
#X connect 19 0 8 0; 
#X connect 20 0 9 0; 
#X coords 0 -1 1 1 450 150 1 20 300; 
