#N canvas 591 186 333 233 8;
#X obj 65 138 tgl 35 0 main_toggle-send main_toggle-receive empty 0 -8 0 8 #fcfcfc #000000 #000000 0 1;
#X obj 2 140 osc~ 330;
#X obj 2 163 *~ 0.3;
#X obj 2 185 *~;
#X obj 2 206 dac~;
#X obj 50 5 vsl 15 128 0 1 0 0 main-gain-send main-gain-receive empty 0 -9 0 8 #fcfcfc #000000 #000000 0 1;
#X text 27 201 On/off;
#X text 74 4 GAIN FOR SIN asdi hasdja, f 13;
#X obj 2 3 nbx 5 14 -1e+37 1e+37 0 0 main-freq-send main-freq-receive empty 0 -8 0 8 #fcfcfc #000000 #000000 0 256;
#X connect 0 0 3 1;
#X connect 1 0 2 0;
#X connect 2 0 3 0;
#X connect 3 0 4 0;
#X connect 3 0 4 1;
#X connect 5 0 2 1;
#X connect 8 0 1 0;
