#N canvas 0 0 943 1005 10;
#X declare -lib pdlua;
#X declare -path ./../../Sources/Pd4Web/Gui;
#X obj 6 5 declare -lib pdlua;
#X obj 6 28 declare -path ./../../Sources/Pd4Web/Gui;
#X obj 26 124 vsl 18 153 0 127 0 0 r-vsl s-vsl empty 0 -9 0 10 #ff0400 #000000 #000000 0 1;
#X obj 139 126 l.vsl 18 153 0 127 0 0 empty empty empty -2 -9 0 10 #ff0400 #000000 #000000 0 1;
#X obj 139 284 nbx 5 16 -1e+37 1e+37 0 0 empty empty empty 0 -9 0 10 #fcfcfc #000000 #000000 0 256;
#X obj 26 285 nbx 5 16 -1e+37 1e+37 0 0 empty empty empty 0 -9 0 10 #fcfcfc #000000 #000000 0 256;
#X msg 200 91 reload;
#X msg 77 65 239;
#X connect 2 0 5 0;
#X connect 3 0 4 0;
#X connect 6 0 3 0;
#X connect 7 0 3 0;
#X connect 7 0 2 0;
