#N canvas 0 0 943 1005 10;
#X declare -lib pdlua;
#X declare -path ./../../Sources/Pd4Web/Gui;
#X obj 6 5 declare -lib pdlua;
#X obj 6 28 declare -path ./../../Sources/Pd4Web/Gui;
#X obj 49 213 l.vu 18 160 r-vu empty -1 -9 0 10 #404040 #000000 1 0;
#X obj 120 105 *~, f 16;
#X obj 207 71 osc~ 440;
#X obj 120 166 env~;
#X obj 317 206 vu 18 160 r-vu empty -1 -9 0 10 #404040 #000000 1 0;
#X obj 120 188 - 100;
#X obj 120 82 osc~ 0.4;
#X obj 120 212 s r-vu;
#X obj 120 127 *~ 4;
#X obj 316 373 nbx 5 16 -1e+37 1e+37 0 0 empty empty empty 0 -9 0 10 #fcfcfc #000000 #000000 0 256;
#X obj 49 378 nbx 5 16 -1e+37 1e+37 0 0 empty empty empty 0 -9 0 10 #fcfcfc #000000 #000000 0 256;
#X connect 2 0 12 0;
#X connect 3 0 10 0;
#X connect 4 0 3 1;
#X connect 5 0 7 0;
#X connect 6 0 11 0;
#X connect 7 0 9 0;
#X connect 8 0 3 0;
#X connect 10 0 5 0;
