#N canvas 6 31 951 1011 10;
#X obj 63 54 osc~ 440;
#X obj 63 76 *~ 0.2;
#X obj 63 119 dac~;
#X obj 188 93 bang~;
#X obj 188 115 print;
#X connect 0 0 1 0;
#X connect 1 0 2 0;
#X connect 1 0 2 1;
#X connect 3 0 4 0;
