#N canvas 324 361 899 487 12;
#N canvas 520 509 838 404 plateVerb 0;
#X obj 71 15 inlet~;
#X obj 111 194 outlet~;
#X obj 152 11 inlet;
#X obj 125 112 else/plate.rev~;
#X obj 200 195 outlet~;
#X obj 203 13 loadbang;
#X msg 230 46 damp 0.25;
#X msg 128 51 wet \$1;
#X msg 250 72 size 0.01;
#X connect 0 0 3 0;
#X connect 2 0 7 0;
#X connect 3 0 1 0;
#X connect 3 1 4 0;
#X connect 5 0 6 0;
#X connect 6 0 3 0;
#X connect 7 0 3 0;
#X connect 8 0 3 0;
#X restore 306 21 pd plateVerb;