#N canvas 0 0 925 1132 12;
#X obj 10 112 nbx 5 14 8 2048 0 1 r-memory s-memory empty 0 -10 0 8 #ffffff #000000 #000000 256 256;
#X obj 52 227 bng 25 250 50 0 s-compile r-compile empty -15 -10 0 12 #ffc7c6 #ff0400 #000000;
#X obj 149 64 bng 25 250 50 0 s-pd4web-patch r-pd4web-patch empty 0 -10 0 12 #c6ffc7 #0f4710 #000000;
#X obj 6 7 cnv 15 312 35 empty empty Pd4Web\ Compiler\ -\ Patches\ on\ Websites 20 12 0 12 #dfdfdf #000000 0;
#X obj 7 52 cnv 5 310 10 empty empty 1)\ Choose\ Patch 2 5 0 8 #c6ffc7 #000000 0;
#X obj 7 215 cnv 5 150 10 empty empty 3)\ Compile\ Patch 2 5 0 8 #ffc7c6 #000000 0;
#X obj 7 94 cnv 5 310 10 empty empty 2)\ Configurations 2 5 0 8 #ffe3c6 #000000 0;
#X obj 59 115 cnv 5 240 10 empty empty Memory\ (Mb)\ -\ Big\ patches\ require\ more\ memory. 2 5 0 8 #feffc6 #000000 0;
#N canvas 675 224 474 486 (subpatch) 0;
#X coords 0 1 100 -1 297 21 1;
#X restore 8 109 graph;
#X obj 166 215 cnv 5 150 10 empty empty 4)\ Run\ the\ Browser\ Server 2 5 0 8 #c6feff #000000 0;
#X obj 228 227 tgl 25 0 s-browser r-browser empty 0 -10 0 12 #c6feff #000000 #000000 0 1;
#X obj 10 138 nbx 5 14 0.1 10 0 1 r-zoom s-zoom empty 0 -10 0 8 #ffffff #000000 #000000 1 256;
#X obj 59 141 cnv 5 240 10 empty empty Zoom\ -\ The\ size\ that\ the\ patch\ will\ be\ render. 2 5 0 8 #feffc6 #000000 0;
#N canvas 963 554 474 486 (subpatch) 0;
#X coords 0 1 100 -1 297 21 1;
#X restore 8 135 graph;
#X obj 142 186 nbx 2 17 0 2 0 0 s-template1 r-template1 Template\ Number -24 -12 0 12 #fcfcfc #000000 #000000 0 256;
#N canvas 0 0 925 1132 pd4web-core 0;
#X obj 5 6 r r-memory;
#X obj 5 31 nbx 5 18 -1e+37 1e+37 0 0 empty empty empty 0 -10 0 12 #fcfcfc #000000 #000000 0 256;
#X obj 311 7 r s-pd4web-patch;
#N canvas 1443 554 471 486 path 0;
#X obj 103 233 symbol;
#X symbolatom 148 165 10 0 0 0 - - - 0;
#X obj 260 292 print PATH;
#X obj 103 291 outlet;
#X obj 56 115 openpanel;
#X obj 139 115 openpanel 1;
#X msg 139 141 symbol \$1/;
#X obj 56 58 route file directory dir random;
#X obj 237 259 t s s b;
#X obj 360 292 print -n;
#X msg 360 266 -------------------;
#X obj 56 25 inlet;
#N canvas 667 322 513 304 random 0;
#X obj 71 39 inlet;
#X obj 71 225 outlet;
#X obj 71 77 t b;
#X obj 71 161 random;
#X obj 71 129 t b f;
#X obj 143 149 text define -k \$0-base+ext-strings;
#A set ///foo/bar/pizza \; dir/subdir/ \; soundfile.wav \; /path/to/pd.exe \; ../file.txt;
#X obj 71 102 text size \$0-base+ext-strings;
#X obj 71 188 text get \$0-base+ext-strings;
#X connect 0 0 2 0;
#X connect 2 0 6 0;
#X connect 3 0 7 0;
#X connect 4 0 3 0;
#X connect 4 1 3 1;
#X connect 6 0 4 0;
#X connect 7 0 1 0;
#X restore 254 155 pd random;
#X obj 237 323 s \$0-base+ext;
#X obj 237 234 r \$0-base+ext-in;
#X obj 56 87 b;
#X obj 139 88 b;
#X obj 270 178 b;
#X connect 0 0 3 0;
#X connect 1 0 0 0;
#X connect 4 0 0 0;
#X connect 5 0 6 0;
#X connect 6 0 0 0;
#X connect 7 0 15 0;
#X connect 7 1 16 0;
#X connect 7 2 16 0;
#X connect 7 3 12 0;
#X connect 7 4 17 0;
#X connect 8 0 13 0;
#X connect 8 1 2 0;
#X connect 8 2 10 0;
#X connect 10 0 9 0;
#X connect 11 0 7 0;
#X connect 12 0 0 0;
#X connect 14 0 8 0;
#X connect 15 0 4 0;
#X connect 16 0 5 0;
#X connect 17 0 0 0;
#X restore 311 55 pd path;
#X msg 311 31 file;
#X obj 333 194 r s-compile;
#X obj 5 80 expr if($f1 > 2048 \, 2048 \, $f1);
#X obj 5 102 nbx 5 18 -1e+37 1e+37 0 0 empty empty empty 0 -10 0 12 #fcfcfc #000000 #000000 0 256;
#X obj 226 7 r s-gui;
#X obj 226 32 tgl 20 0 empty empty empty 0 -10 0 12 #fcfcfc #000000 #000000 0 1;
#N canvas 0 0 925 1132 (subpatch) 0;
#X obj 8 5 inlet;
#X obj 8 30 t f f;
#X obj 8 121 spigot;
#X obj 8 193 s s-memory;
#X obj 47 78 expr if($f1 > 2048 \, 1 \, 0);
#X msg 8 146 2048;
#X connect 0 0 1 0;
#X connect 1 0 2 0;
#X connect 1 1 4 0;
#X connect 2 0 5 0;
#X connect 4 0 2 1;
#X connect 5 0 3 0;
#X restore 13 56 pd;
#X obj 433 7 r s-browser;
#X obj 4 220 nbx 5 18 -1e+37 1e+37 0 0 empty empty empty 0 -10 0 12 #fcfcfc #000000 #000000 0 256;
#X obj 4 195 r r-zoom;
#X obj 513 218 tgl 19 0 empty empty empty 0 -10 0 12 #fcfcfc #000000 #000000 0 1;
#X obj 600 195 r s-template1;
#X obj 600 219 nbx 5 17 -1e+37 1e+37 0 0 empty empty empty 0 -10 0 12 #fcfcfc #000000 #000000 0 256;
#X obj 211 194 r s-remove-build;
#X obj 587 337 r s-extra;
#X obj 587 397 tgl 19 0 empty empty empty 0 -10 0 12 #fcfcfc #000000 #000000 0 1;
#X msg 587 421 vis \$1;
#X obj 691 376 loadbang;
#X msg 691 400 0;
#X obj 587 450 s pd4web-extra;
#X obj 691 450 s pd4web-core;
#X msg 691 424 vis \$1;
#X msg 587 361 1;
#X obj 586 531 pdcontrol;
#X obj 586 480 r s-docs;
#X msg 586 504 browse https://charlesneimog.github.io/pd4web;
#X obj 513 194 r s-debug;
#X msg 5 124 memory \$1;
#X msg 311 78 patch \$1;
#X msg 513 242 debug \$1;
#X msg 600 243 template \$1;
#X msg 211 218 clean \$1;
#X msg 433 31 server \$1;
#X msg 4 243 patchzoom \$1;
#X obj 8 514 pd4web/pd4web.compiler;
#X obj 110 195 r s-es6;
#X msg 110 220 es6module \$1;
#X msg 226 57 gui \$1;
#X obj 110 245 s compiler;
#X obj 5 151 s compiler;
#X obj 226 82 s compiler;
#X obj 311 103 s compiler;
#X obj 433 56 s compiler;
#N canvas 0 0 925 1102 DEFAULT-VALUES 0;
#X obj 30 60 loadbang;
#X obj 30 108 s s-memory;
#X obj 145 61 loadbang;
#X obj 145 109 s s-zoom;
#X obj 214 109 s r-template1;
#X obj 214 61 loadbang;
#X msg 214 85 0;
#X msg 30 84 256;
#X msg 145 85 1;
#X connect 0 0 7 0;
#X connect 2 0 8 0;
#X connect 5 0 6 0;
#X connect 6 0 4 0;
#X connect 7 0 1 0;
#X connect 8 0 3 0;
#X restore 555 8 pd DEFAULT-VALUES;
#X obj 4 268 s compiler;
#X obj 211 243 s compiler;
#X obj 333 219 s compiler;
#X obj 425 194 r s-verbose;
#X msg 425 219 verbose \$1;
#X obj 425 244 s compiler;
#X obj 513 267 s compiler;
#X obj 600 268 s compiler;
#X obj 8 489 r compiler;
#X obj 3 323 r s-evnk;
#X obj 3 348 list prepend evnk;
#X obj 3 373 list trim;
#X obj 3 398 s compiler;
#X obj 135 372 list trim;
#X obj 135 397 s compiler;
#X obj 135 347 list prepend evtk;
#X obj 135 322 r s-evtk;
#X connect 0 0 1 0;
#X connect 1 0 6 0;
#X connect 1 0 10 0;
#X connect 2 0 4 0;
#X connect 3 0 32 0;
#X connect 4 0 3 0;
#X connect 5 0 50 0;
#X connect 6 0 7 0;
#X connect 7 0 31 0;
#X connect 8 0 9 0;
#X connect 9 0 41 0;
#X connect 11 0 36 0;
#X connect 12 0 37 0;
#X connect 13 0 12 0;
#X connect 14 0 33 0;
#X connect 15 0 16 0;
#X connect 16 0 34 0;
#X connect 17 0 35 0;
#X connect 18 0 26 0;
#X connect 19 0 20 0;
#X connect 20 0 23 0;
#X connect 21 0 22 0;
#X connect 22 0 19 0;
#X connect 22 0 25 0;
#X connect 25 0 24 0;
#X connect 26 0 19 0;
#X connect 28 0 29 0;
#X connect 29 0 27 0;
#X connect 30 0 14 0;
#X connect 31 0 43 0;
#X connect 32 0 45 0;
#X connect 33 0 54 0;
#X connect 34 0 55 0;
#X connect 35 0 49 0;
#X connect 36 0 46 0;
#X connect 37 0 48 0;
#X connect 39 0 40 0;
#X connect 40 0 42 0;
#X connect 41 0 44 0;
#X connect 51 0 52 0;
#X connect 52 0 53 0;
#X connect 56 0 38 0;
#X connect 57 0 58 0;
#X connect 58 0 59 0;
#X connect 59 0 60 0;
#X connect 61 0 62 0;
#X connect 63 0 61 0;
#X connect 64 0 63 0;
#X restore 323 5 pd pd4web-core;
#X obj 35 32 cnv 5 5 5 empty empty Charles\ K.\ Neimog\ |\ charlesneimog.github.io/pd4web 0 0 0 8 #dfdfdf #000000 0;
#N canvas 0 0 1112 1132 extra 0;
#X obj 33 398 cnv 5 240 10 empty empty Disable\ GUI\ rendering 2 5 0 8 #ffffff #000000 0;
#X obj 31 253 cnv 5 30 10 empty empty Clear\ before\ compile\ (will\ delete\ folders\ build\ and\ Pd4Web\ before\ new\ build). 2 5 0 8 #ffffff #000000 0;
#X obj 4 244 tgl 25 0 s-remove-build r-remove-build empty 0 -10 0 12 #faff00 #000000 #000000 0 1;
#X obj 135 4 namecanvas pd4web-extra;
#X obj 60 26 cnv 15 300 35 empty empty Pd4Web\ Compiler\ -\ Patches\ on\ Websites 20 12 0 12 #dfdfdf #000000 0;
#X obj 89 51 cnv 5 5 5 empty empty Charles\ K.\ Neimog\ |\ charlesneimog.github.io/pd4web 0 0 0 8 #dfdfdf #000000 0;
#X obj 4 271 tgl 25 0 s-debug1 r-debug1 empty 0 -10 0 12 #ffe3c6 #000000 #000000 0 1;
#X obj 31 279 cnv 5 30 10 empty empty Debug\ compilation 2 5 0 8 #ffffff #000000 0;
#X obj 3 230 cnv 5 310 10 empty empty Debug\ Options 2 5 0 12 #dfdfdf #000000 0;
#X obj 2 317 cnv 5 310 10 empty empty Developer\ Options 2 5 0 12 #dfdfdf #000000 0;
#X obj 4 335 tgl 25 0 s-es6 r-es6 empty 0 -10 0 12 #c6ffc7 #000000 #000000 0 1;
#X obj 31 341 cnv 5 30 10 empty empty Enable\ es6\ module\ export\ (better\ for\ typescript) 2 5 0 8 #ffffff #000000 0;
#X obj 4 363 tgl 25 0 s-es6 r-es6 empty 0 -10 0 12 #c6feff #000000 #000000 0 1;
#X obj 32 371 cnv 5 30 10 empty empty Enable\ debug\ mode 2 5 0 8 #ffffff #000000 0;
#X obj 4 391 tgl 25 0 s-gui r-gui empty 0 -10 0 12 #e3c6ff #000000 #000000 0 1;
#X listbox 6 116 22 0 0 0 - r-evnk s-evnk 8;
#X obj 5 94 cnv 5 310 10 empty empty Extra\ Options 2 5 0 12 #dfdfdf #000000 0;
#X obj 119 119 cnv 5 30 10 empty empty Name\ of\ pdlua\ object\ that\ will\ open\ virtual\ number\ keyboard\ on\ smartphones 2 5 0 8 #ffffff #000000 0;
#X listbox 6 137 22 0 0 0 - r-evtk s-evtk 8;
#X obj 119 139 cnv 5 30 10 empty empty Name\ of\ pdlua\ object\ that\ will\ open\ virtual\ text\ keyboard\ on\ smartphones 2 5 0 8 #ffffff #000000 0;
#X restore 322 28 pd extra;
#X obj 32 301 bng 25 250 50 0 s-docs r-docs Docs\ WebSite -25 -12 0 10 #00ff04 #000000 #000000;
#X obj 266 301 bng 25 250 50 0 s-extra r-extra Extra\ Options -25 -12 0 10 #faff00 #ff0400 #000000;
#X coords 0 -1 1 1 315 330 1 5 5;
