#N canvas 0 0 925 1132 12;
#X declare -path pd4web;
#X obj 1 100 cnv 19 500 30 empty empty empty 20 12 0 12 #ffc7c6 #404040 0;
#X obj 2 206 cnv 19 500 65 empty empty empty 20 12 0 12 #feffc6 #404040 0;
#N canvas 0 0 925 1132 links 0;
#X obj 106 421 pdcontrol;
#X obj 133 192 r linux;
#X obj 108 125 r nutelaOS;
#X obj 157 271 r howinstallpython;
#X obj 68 25 inlet;
#X obj 68 55 symbol;
#X msg 68 89 browse https://\$1;
#X obj 106 511 s pd;
#X msg 108 160 browse https://charlesneimog.github.io/pd4web/patch/install/;
#X msg 133 224 browse https://charlesneimog.github.io/pd4web/patch/install/;
#X msg 157 303 browse https://charlesneimog.github.io/pd4web/patch/install/;
#X msg 163 388 dir;
#X obj 163 362 r s-compile;
#X msg 106 485 open pd4web.pd \$1;
#X connect 0 0 13 0;
#X connect 1 0 9 0;
#X connect 2 0 8 0;
#X connect 3 0 10 0;
#X connect 4 0 5 0;
#X connect 5 0 6 0;
#X connect 6 0 0 0;
#X connect 8 0 0 0;
#X connect 9 0 0 0;
#X connect 10 0 0 0;
#X connect 11 0 0 0;
#X connect 12 0 11 0;
#X connect 13 0 7 0;
#X restore 6 243 pd links;
#X text 220 211 <= Help and complete docs!;
#X msg 6 212 charlesneimog.github.io/pd4web;
#X text -1 142 If you see the message 'pd4web version <VERSION>' \, congratulations! Your configuration is set up correctly., f 71;
#X obj 1 2 cnv 15 500 40 empty empty Pd4Web\ Compiler\ -\ Patches\ on\ Websites 50 12 0 18 #dfdfdf #000000 0;
#X obj 69 32 cnv 5 5 5 empty empty Charles\ K.\ Neimog\ |\ charlesneimog.github.io/pd4web 0 0 0 12 #dfdfdf #000000 0;
#X obj 3 289 cnv 19 500 65 empty empty empty 20 12 0 12 #c6ffc7 #404040 0;
#X obj 225 305 bng 23 250 50 0 s-compile r-compile empty 0 -10 0 12 #c6ffc7 #000000 #000000;
#X text 167 331 Open Pd4Web Compiler!;
#X text 181 249 READ THE DOCS!;
#X obj 4 105 pd4web.compiler;
#X text 115 105 <= This MUST work \, if not \, report on gihtub!, f 63;
#X obj 2 47 declare -path pd4web;
#X connect 4 0 2 0;
