#N canvas 141 55 1259 850 10;
#X obj 8 17 r hands;
#X obj 8 38 sel 0;
#X obj 93 17 r R-1;
#X obj 101 36 r R-2;
#X obj 108 56 r R-3;
#X obj 123 76 r R-4;
#X obj 131 95 r R-5;
#X obj 138 115 r R-6;
#X obj 154 133 r R-7;
#X obj 162 152 r R-8;
#X obj 169 172 r R-9;
#X obj 185 192 r R-10;
#X obj 328 13 r R-11;
#X obj 336 32 r R-12;
#X obj 343 52 r R-13;
#X obj 358 72 r R-14;
#X obj 366 91 r R-15;
#X obj 373 111 r R-16;
#X obj 389 129 r R-17;
#X obj 397 148 r R-18;
#X obj 404 168 r R-19;
#X obj 420 188 r R-20;
#X obj 45 62 r R-0;
#X obj 131 286 change;
#X obj 131 307 sel 1 0, f 23;
#N canvas 63 100 756 534 notes 1;
#X obj 7 14 r notes;
#X obj 7 93 clone 20 Libs/plaits;
#X obj 7 114 dac~ 1;
#X connect 0 0 1 0;
#X connect 1 0 2 0;
#X restore 516 312 pd notes;
#X obj 131 393 s notes;
#X obj 67 225 print;
#X obj 131 243 unpack f f, f 37;
#X obj 131 265 expr if($f1 > 0.6 && $f2 > 0.5 \, 1 \, 0);
#X msg 131 328 8 80 80;
#X msg 212 328 8 80 0;
#X connect 0 0 1 0;
#X connect 9 0 27 0;
#X connect 9 0 28 0;
#X connect 23 0 24 0;
#X connect 24 0 30 0;
#X connect 24 1 31 0;
#X connect 28 0 29 0;
#X connect 28 1 29 1;
#X connect 29 0 23 0;
#X connect 30 0 26 0;
#X connect 31 0 26 0;
