#N canvas 1282 23 632 1016 10;
#X obj 7 8 inlet;
#X obj 7 303 else/plaits~ -model 11 -midi 60;
#X obj 7 177 f;
#X obj 117 8 loadbang;
#X obj 7 33 t b b, f 14;
#X obj 88 175 f;
#X msg 88 197 \$1 0;
#X obj 7 325 outlet~;
#X obj 198 178 loadbang;
#X msg 198 200 tr_active 1;
#X msg 7 199 \$1 127;
#X obj 7 116 del 5 1 msec;
#X obj 174 8 r pd-random;
#X obj 117 144 * 0.01;
#X obj 174 30 list trim;
#X obj 117 97 random, f 22;
#X obj 247 54 loadbang;
#X obj 117 122 + 4800;
#X msg 247 76 4800;
#X connect 0 0 4 0;
#X connect 1 0 7 0;
#X connect 2 0 10 0;
#X connect 3 0 15 0;
#X connect 4 0 11 0;
#X connect 4 1 5 0;
#X connect 5 0 6 0;
#X connect 6 0 1 0;
#X connect 8 0 9 0;
#X connect 9 0 1 0;
#X connect 10 0 1 0;
#X connect 11 0 2 0;
#X connect 12 0 14 0;
#X connect 13 0 5 1;
#X connect 13 0 2 1;
#X connect 14 0 15 0;
#X connect 15 0 17 0;
#X connect 16 0 18 0;
#X connect 17 0 13 0;
#X connect 18 0 15 1;
