#N canvas 173 129 481 495 12;
#X declare -path Libs;
#X obj 7 2 inlet;
#X obj 144 52 unpack f f;
#X obj 212 177 switch~;
#X obj 7 25 t a a a, f 20;
#X msg 144 78 \$1 0;
#X text 223 49 Avoid process if there is no note;
#X obj 7 406 *~, f 4;
#X msg 44 368 1;
#X msg 75 368 0;
#X obj 121 227 bng 15 250 50 0 empty empty empty 17 7 0 10 #fcfcfc #000000 #000000;
#X obj 7 146 mtof;
#X obj 7 227 expr 1000 / $f1;
#X obj 13 287 del;
#X obj 7 367 lop~;
#X obj 98 320 mtof;
#X obj 154 409 lop~;
#X obj 154 436 outlet~;
#X obj 7 435 delwrite~ \$1-na 1000;
#X obj 173 320 vd~ \$1-na 100;
#X obj 155 359 *~ 0.99;
#X obj 121 200 spigot;
#X obj 160 172 != 0;
#X obj 7 341 pink;
#X obj 155 25 declare -path Libs;
#X obj 7 107 unpack f f;
#X obj 121 144 t f f;
#X obj 319 219 loadbang;
#X msg 319 243 0.95;
#X connect 0 0 3 0;
#X connect 1 0 4 0;
#X connect 1 1 2 0;
#X connect 3 0 24 0;
#X connect 3 2 1 0;
#X connect 6 0 17 0;
#X connect 7 0 6 1;
#X connect 8 0 6 1;
#X connect 9 0 7 0;
#X connect 9 0 12 0;
#X connect 10 0 11 0;
#X connect 11 0 12 1;
#X connect 11 0 18 0;
#X connect 12 0 8 0;
#X connect 13 0 6 0;
#X connect 14 0 13 1;
#X connect 14 0 15 1;
#X connect 15 0 16 0;
#X connect 15 0 17 0;
#X connect 18 0 19 0;
#X connect 19 0 15 0;
#X connect 20 0 9 0;
#X connect 21 0 20 1;
#X connect 22 0 13 0;
#X connect 24 0 10 0;
#X connect 24 1 25 0;
#X connect 25 0 20 0;
#X connect 25 1 21 0;
#X connect 26 0 27 0;
#X connect 27 0 14 0;
