#N canvas 642 -23 1217 974 8;
#X declare -path Abstractions -path Audios;
#X declare -path data;
#X declare -lib else;
#X obj 6 4 adc~ 1;
#N canvas 485 -19 1206 890 pitch 0;
#X obj 4 132 float;
#X obj 4 105 expr if($f1 > ($f2 + 0.5) || $f1 < ($f2 - 0.5) \, $f1 \, $f2);
#X obj 4 175 nbx 5 14 -1e+37 1e+37 0 0 empty empty empty 0 -8 0 8 #fcfcfc #000000 #000000 0 256;
#X obj 4 194 change;
#X obj 23 374 float;
#X obj 45 260 t f b b, f 32;
#X msg 202 277 stop;
#X obj 4 260 t b;
#X msg 4 281 stop;
#X obj 23 414 outlet;
#X obj 126 174 inlet;
#X obj 4 215 + 0, f 25;
#X obj 23 395 change;
#X obj 4 46 t f f, f 7;
#X obj 4 85 spigot, f 7;
#X obj 36 67 expr if($f1 < 58 || $f1 > 80 \, 0 \, 1);
#X obj 4 5 inlet~;
#X obj 123 324 delay 200 1 msec;
#X obj 4 154 cyclone/round 1 @nearest 1;
#X obj 4 233 else/spread 60 84;
#X obj 446 45 s PEAKS;
#X obj 4 25 sigmund~ -npts 1024 -hop 512 -npeak 9 -minpower 60 -quality 0.6 pitch peaks, f 89;
#X connect 0 0 1 1;
#X connect 0 0 18 0;
#X connect 1 0 0 0;
#X connect 2 0 3 0;
#X connect 3 0 11 0;
#X connect 4 0 12 0;
#X connect 5 0 4 1;
#X connect 5 1 17 0;
#X connect 5 2 6 0;
#X connect 6 0 17 0;
#X connect 7 0 8 0;
#X connect 8 0 17 0;
#X connect 10 0 11 1;
#X connect 11 0 19 0;
#X connect 12 0 9 0;
#X connect 13 0 14 0;
#X connect 13 1 15 0;
#X connect 14 0 1 0;
#X connect 15 0 14 1;
#X connect 16 0 21 0;
#X connect 17 0 4 0;
#X connect 18 0 2 0;
#X connect 19 0 7 0;
#X connect 19 1 5 0;
#X connect 19 2 7 0;
#X connect 21 0 13 0;
#X connect 21 1 20 0;
#X restore 6 77 pd pitch;
#X obj 92 24 text define -k note2wait;
#A set 69 2000 \; 68 3000 \; 72 4000 \;;
#X obj 6 104 t f f b, f 49;
#N canvas 671 426 938 401 HTMLGUI 0;
#X obj 14 3 inlet;
#X obj 60 3 inlet;
#X obj 14 40 f;
#X obj 107 53 b;
#X msg 107 98 0;
#X obj 14 153 s ui_notedetected;
#X obj 107 74 delay 2000 1 msec;
#X text 199 72 Visível por 2 segundos;
#X connect 0 0 2 0;
#X connect 0 0 3 0;
#X connect 1 0 2 1;
#X connect 2 0 5 0;
#X connect 3 0 6 0;
#X connect 4 0 5 0;
#X connect 6 0 4 0;
#X restore 6 235 pd HTMLGUI;
#X obj 92 3 declare -path Abstractions -path Audios;
#N canvas 171 33 1692 795 newnote 0;
#X obj 11 12 inlet;
#X obj 211 283 s ui_gestoNumber;
#X obj 338 264 s ui_DelayToScore;
#X text 302 213 Delay to actually change;
#X text 337 284 GUI interaction!;
#X obj 131 173 s NEXT_NOTE;
#X obj 131 13 loadbang;
#X obj 131 87 text get MOMENTS;
#X msg 131 58 0;
#X obj 211 214 delay 1 1 msec;
#X obj 211 173 t b f f, f 26;
#X obj 211 235 f, f 18;
#X msg 234 13 NOTE DELAY_TO_CHANGE GESTURE_NUMBER SOUNDCONFIG;
#X obj 372 172 s soundConfig;
#X obj 11 56 cyclone/counter 0 1 50;
#X obj 11 137 s EVENTS;
#X obj 182 13 r RESTART;
#X msg 70 15 0;
#X obj 159 58 r EVENTS;
#X obj 453 212 s recording;
#X obj 131 107 else/group 2;
#X obj 131 128 route list;
#X obj 453 173 sel 1;
#X obj 532 197 sel 1;
#X obj 532 236 s play;
#X obj 613 243 outlet;
#X obj 131 148 route nextnote delay gesto soundcfg recording play EVENTO playdelay, f 113;
#X obj 623 194 s playdelay;
#X connect 0 0 14 0;
#X connect 6 0 8 0;
#X connect 7 0 20 0;
#X connect 8 0 7 0;
#X connect 9 0 11 0;
#X connect 10 0 9 0;
#X connect 10 1 9 1;
#X connect 10 2 2 0;
#X connect 11 0 1 0;
#X connect 14 0 15 0;
#X connect 16 0 8 0;
#X connect 16 0 14 2;
#X connect 18 0 7 0;
#X connect 20 0 21 0;
#X connect 21 0 26 0;
#X connect 22 0 19 0;
#X connect 23 0 24 0;
#X connect 26 0 5 0;
#X connect 26 1 10 0;
#X connect 26 2 11 1;
#X connect 26 3 13 0;
#X connect 26 4 22 0;
#X connect 26 5 23 0;
#X connect 26 6 25 0;
#X connect 26 7 27 0;
#X restore 153 220 pd newnote;
#N canvas 114 110 1267 822 respostaEspectral 0;
#X msg 4 48 all sigmund \$1 \$2 \$3 \$4 \$5;
#X msg 23 120 next go bang;
#X obj 143 88 loadbang;
#X obj 4 211 clone Libs/resposta 2, f 70;
#X msg 143 109 all switch 1;
#X obj 304 20 inlet;
#X obj 304 41 switch~;
#X obj 4 235 else/giga.rev~;
#X obj 178 235 else/giga.rev~;
#X obj 351 233 else/giga.rev~;
#X obj 23 73 r EVENTS;
#X obj 4 23 r PEAKS;
#X text 394 332 - summing signal bus and;
#X obj 4 328 throw~ dac1;
#X obj 169 334 throw~ dac2;
#X obj 23 94 sel 2 3 5;
#X connect 0 0 3 0;
#X connect 1 0 3 0;
#X connect 2 0 4 0;
#X connect 3 0 7 0;
#X connect 3 1 8 0;
#X connect 3 2 9 0;
#X connect 4 0 3 0;
#X connect 5 0 6 0;
#X connect 7 0 13 0;
#X connect 7 1 14 0;
#X connect 8 0 13 0;
#X connect 9 1 14 0;
#X connect 10 0 15 0;
#X connect 11 0 0 0;
#X connect 15 0 1 0;
#X connect 15 1 1 0;
#X connect 15 2 1 0;
#X restore 7 362 pd respostaEspectral;
#X obj 314 3 text define -k configsubpatches;
#A set 1 0 0 0 \; 1 1 0 0 \;;
#X obj 7 303 text get configsubpatches;
#X obj 7 258 loadbang;
#X msg 7 279 0;
#X obj 7 345 tgl 15 0 empty empty empty 0 -8 0 8 #fcfcfc #000000 #000000 0 1;
#X obj 33 132 r NEXT_NOTE;
#X obj 6 166 sel, f 6;
#X obj 33 279 r soundConfig;
#X obj 7 324 unpack f f f f f, f 115;
#X obj 544 124 s RESTART;
#X obj 544 95 bng 25 250 50 0 empty empty empty 0 -8 0 8 #fcfcfc #000000 #000000;
#X obj 6 197 t b b, f 30;
#X obj 44 167 nbx 5 14 -1e+37 1e+37 0 0 empty empty empty 0 -8 0 8 #fcfcfc #000000 #000000 0 256;
#N canvas 476 32 1162 565 plaits 0;
#X obj 13 27 r EVENTS;
#X obj 13 169 Libs/plaits-gesto1;
#X obj 287 168 Libs/plaits-gesto1;
#X obj 531 168 s EVENTS;
#X obj 531 143 nbx 5 14 -1e+37 1e+37 0 0 empty empty empty 0 -8 0 8 #fcfcfc #000000 #000000 0 256;
#X text 177 17 DUR REPETICAO NOTA VOLUME CENTS LUGAR;
#X msg 411 93 250 2 78 0.1 -0.2 130;
#X msg 287 93 500 1.8 75 0.15 0.1 280;
#X msg 13 93 200 1.8 75 0.1 0.13 240;
#X msg 22 115 250 2 78 0.1 -0.2 50;
#X msg 137 112 400 2 78 0.1 -0.5 90;
#X obj 13 252 throw~ dac1;
#X obj 100 254 throw~ dac2;
#X obj 287 72 sel 3, f 50;
#X obj 13 72 sel 1 2 3, f 50;
#X connect 0 0 13 0;
#X connect 0 0 14 0;
#X connect 1 0 11 0;
#X connect 1 1 12 0;
#X connect 2 0 11 0;
#X connect 2 1 12 0;
#X connect 4 0 3 0;
#X connect 6 0 2 0;
#X connect 7 0 2 0;
#X connect 8 0 1 0;
#X connect 9 0 1 0;
#X connect 10 0 1 0;
#X connect 13 0 7 0;
#X connect 14 0 8 0;
#X connect 14 1 9 0;
#X connect 14 2 10 0;
#X restore 7 419 pd plaits;
#X f 20;
#X obj 314 24 text define -k MOMENTS;
#A set EVENTO 0 nextnote 75 delay 0 gesto 1 soundcfg 1 recording 0 play 0 \; EVENTO 1 nextnote 78 delay 0 gesto 1 soundcfg 1 recording 0 play 0 \; EVENTO 2 nextnote 75 delay 0 gesto 1 soundcfg 1 recording 0 play 0 \; EVENTO 3 nextnote 69 delay 0 gesto 1 soundcfg 0 recording 0 play 0 \; EVENTO 4 nextnote 67 delay 2000 gesto 2 soundcfg 0 recording 1 play 0 \; EVENTO 5 nextnote 66 delay 0 gesto 2 soundcfg 0 recording 0 playdelay 1000 play 1 \; EVENTO 6 nextnote 61 delay 0 gesto 2 soundcfg 0 recording 0 playdelay 1000 play 1 \; EVENTO 7 nextnote 74 delay 2000 gesto 3 soundcfg 0 recording 0 playdelay 1000 play 1 \; EVENTO 8 nextnote 78 delay 0 gesto 3 soundcfg 0 recording 0 play 0 \;;
#X msg 544 32 \; pd dsp \$1;
#X obj 544 3 tgl 25 0 empty empty empty 0 -8 0 8 #fcfcfc #000000 #000000 0 1;
#X text 113 360 TEXTURAS;
#X obj 43 56 nbx 5 14 -1e+37 1e+37 0 0 empty empty empty 0 -8 0 8 #fcfcfc #000000 #000000 0 256;
#X text 89 54 Transposition;
#X obj 145 160 bng 25 250 50 0 empty empty empty 0 -8 0 8 #fcfcfc #000000 #000000;
#N canvas 0 32 1013 644 pmpd 0;
#N canvas 1017 365 841 535 init 0;
#X msg 89 187 Xmax 127 \, Xmin 0;
#X obj 89 215 t a;
#X obj 89 33 loadbang;
#X obj 89 241 s \$0-in;
#X obj 89 59 t b b b b b;
#X msg 161 80 reset;
#X obj 44 13 inlet;
#X obj 176 30 bng 15 250 50 0 empty empty empty 0 -8 0 8 #fcfcfc #000000 #000000;
#X msg 107 143 link souple 1 0 1 0.8 \, link souple 1 2 1 0.8 \, link souple 3 2 1 0.8;
#X msg 143 100 mass fix 1 9 1;
#X msg 125 120 mass mob 1 90 0 \, mass mob 1 600 0 \, mass mob 1 50 0;
#X connect 0 0 1 0;
#X connect 1 0 3 0;
#X connect 2 0 4 0;
#X connect 4 0 0 0;
#X connect 4 1 8 0;
#X connect 4 2 10 0;
#X connect 4 3 9 0;
#X connect 4 4 5 0;
#X connect 5 0 1 0;
#X connect 6 0 4 0;
#X connect 7 0 4 0;
#X connect 8 0 1 0;
#X connect 9 0 1 0;
#X connect 10 0 1 0;
#X restore 23 94 pd init;
#X obj 23 262 s \$0-out;
#X obj 23 213 r \$0-in;
#X obj 267 112 vsl 15 127 0 127 0 0 empty empty Drag-----> -70 60 1 10 #fcfcfc #000000 #000000 0 1;
#X obj 298 112 vsl 15 127 0 127 0 0 empty empty empty 0 -8 0 8 #fcfcfc #000000 #000000 0 1;
#X obj 267 273 s \$0-in;
#X msg 267 250 posX fix \$1;
#N canvas 561 581 665 373 compute 0;
#X obj 159 37 inlet;
#X obj 159 135 s \$0-in;
#X msg 159 104 bang \, massesPosL;
#X obj 159 74 metro 10;
#X obj 196 40 bng 15 250 50 0 empty empty empty 0 -8 0 8 #fcfcfc #000000 #000000;
#X connect 0 0 3 0;
#X connect 2 0 1 0;
#X connect 3 0 2 0;
#X connect 4 0 3 0;
#X restore 23 162 pd compute;
#X obj 23 145 tgl 15 0 empty empty ON/OFF 25 10 1 10 #fcfcfc #000000 #000000 0 1;
#X obj 267 35 r \$0-out;
#X obj 23 77 bng 15 250 50 0 empty empty reset 25 10 1 10 #fcfcfc #000000 #000000;
#X obj 267 59 route massesPosL;
#X obj 317 112 vsl 15 127 0 127 0 0 empty empty empty 0 -8 0 8 #fcfcfc #000000 #000000 0 1;
#X obj 336 112 vsl 15 127 0 127 0 0 empty empty empty 0 -8 0 8 #fcfcfc #000000 #000000 0 1;
#X obj 267 80 unpack f f f f;
#X obj 23 125 loadbang;
#X obj 23 237 pmpd/pmpd;
#X connect 2 0 16 0;
#X connect 3 0 6 0;
#X connect 6 0 5 0;
#X connect 8 0 7 0;
#X connect 9 0 11 0;
#X connect 10 0 0 0;
#X connect 11 0 14 0;
#X connect 14 0 3 0;
#X connect 14 1 4 0;
#X connect 14 2 12 0;
#X connect 14 3 13 0;
#X connect 15 0 8 0;
#X connect 16 0 1 0;
#X restore 7 440 pd pmpd;
#X f 20;
#N canvas 204 344 496 477 SAMPLES 0;
#X obj 4 9 r EVENTS;
#N canvas 426 120 1111 714 event1 0;
#X obj 5 6 inlet;
#X obj 170 17 loadbang;
#X obj 243 93 soundfiler;
#X obj 361 27 array define event1-s1;
#X obj 127 33 bng 15 250 50 0 empty empty empty 0 -8 0 8 #fcfcfc #000000 #000000;
#X obj 5 307 outlet~;
#X obj 136 288 else/vu~ 1024 128;
#X obj 136 309 expr if($f1 < -988 \, 0 \, 1);
#X obj 136 330 switch~;
#X msg 61 107 1;
#X obj 5 259 else/giga.rev~;
#X obj 72 308 outlet~;
#X obj 5 184 Libs/clone-tabplay;
#X msg 5 107 bang;
#X msg 290 115 set event1-s1;
#X msg 243 75 read -resize TpC+SW-flatt_open-D#5-mf-N-N.wav event1-s1;
#X obj 5 225 *~, f 29;
#X obj 147 189 line~;
#X obj 5 63 t b b b b, f 19;
#X obj 150 85 del 800 1 msec;
#X msg 150 107 0 1400;
#X msg 90 107 0 \, 4 800;
#X obj 5 27 sel 1;
#X obj 52 28 bng 15 250 50 0 empty empty empty 0 -8 0 8 #fcfcfc #000000 #000000;
#X obj 218 17 declare -path data;
#X connect 0 0 22 0;
#X connect 1 0 15 0;
#X connect 2 1 14 0;
#X connect 4 0 15 0;
#X connect 6 0 7 0;
#X connect 7 0 8 0;
#X connect 9 0 8 0;
#X connect 10 0 5 0;
#X connect 10 0 6 0;
#X connect 10 1 11 0;
#X connect 12 0 16 0;
#X connect 13 0 12 0;
#X connect 14 0 12 0;
#X connect 15 0 2 0;
#X connect 16 0 10 0;
#X connect 17 0 16 1;
#X connect 18 0 13 0;
#X connect 18 1 9 0;
#X connect 18 2 21 0;
#X connect 18 3 19 0;
#X connect 19 0 20 0;
#X connect 20 0 17 0;
#X connect 21 0 17 0;
#X connect 22 0 18 0;
#X connect 23 0 18 0;
#X restore 4 65 pd event1;
#N canvas 426 120 1111 714 event2 0;
#X obj 5 6 inlet;
#X obj 170 17 loadbang;
#X obj 243 93 soundfiler;
#X obj 127 33 bng 15 250 50 0 empty empty empty 0 -8 0 8 #fcfcfc #000000 #000000;
#X obj 5 307 outlet~;
#X obj 136 288 else/vu~ 1024 128;
#X obj 136 309 expr if($f1 < -988 \, 0 \, 1);
#X obj 136 330 switch~;
#X msg 61 107 1;
#X obj 5 259 else/giga.rev~;
#X obj 72 308 outlet~;
#X obj 5 184 Libs/clone-tabplay;
#X msg 5 107 bang;
#X obj 5 225 *~, f 29;
#X obj 147 189 line~;
#X obj 5 61 t b b b b, f 19;
#X obj 150 85 del 800 1 msec;
#X msg 150 107 0 1400;
#X obj 361 27 array define event2-s1;
#X msg 290 115 set event2-s1;
#X msg 243 75 read -resize TpC+SW-flatt_open-A4-mf-N-N.wav event2-s1;
#X msg 90 107 0 \, 2 800;
#X obj 58 8 bng 15 250 50 0 empty empty empty 0 -8 0 8 #fcfcfc #000000 #000000;
#X obj 5 27 sel 2;
#X connect 0 0 23 0;
#X connect 1 0 20 0;
#X connect 2 1 19 0;
#X connect 3 0 20 0;
#X connect 5 0 6 0;
#X connect 6 0 7 0;
#X connect 8 0 7 0;
#X connect 9 0 4 0;
#X connect 9 0 5 0;
#X connect 9 1 10 0;
#X connect 11 0 13 0;
#X connect 12 0 11 0;
#X connect 13 0 9 0;
#X connect 14 0 13 1;
#X connect 15 0 12 0;
#X connect 15 1 8 0;
#X connect 15 2 21 0;
#X connect 15 3 16 0;
#X connect 16 0 17 0;
#X connect 17 0 14 0;
#X connect 19 0 11 0;
#X connect 20 0 2 0;
#X connect 21 0 14 0;
#X connect 22 0 15 0;
#X connect 23 0 15 0;
#X restore 56 65 pd event2;
#X obj 162 56 s EVENTS;
#X obj 162 27 nbx 5 14 -1e+37 1e+37 0 0 empty empty empty 0 -8 0 8 #fcfcfc #000000 #000000 0 256;
#X obj 4 167 throw~ dac1;
#X obj 46 198 throw~ dac2;
#X obj 56 97 throw~ dac1;
#X obj 98 124 throw~ dac2;
#X connect 0 0 1 0;
#X connect 0 0 2 0;
#X connect 1 0 5 0;
#X connect 1 1 6 0;
#X connect 2 0 7 0;
#X connect 2 1 8 0;
#X connect 4 0 3 0;
#X restore 7 381 pd SAMPLES;
#X f 20;
#X text 113 380 TEXTURAS;
#X text 113 419 GESTOS;
#N canvas 1180 32 651 952 RECORDING 0;
#X obj 5 4 adc~ 1;
#X obj 43 4 r recording;
#X obj 5 240 tabwrite~ recording;
#X obj 6 348 tabplay~ recording;
#X msg 65 210 stop;
#X obj 6 284 r play;
#X obj 6 369 *~ 0.3;
#X obj 6 451 throw~ dac1;
#X obj 73 451 throw~ dac2;
#X obj 5 188 *~, f 8;
#X obj 43 57 t b b b b, f 14;
#X obj 175 143 line~;
#X msg 175 79 0 \, 1 500;
#X obj 4 262 array define recording 96000;
#X msg 77 103 1 \, 0 900;
#X obj 65 189 delay 96000 1 samp;
#X obj 77 79 del 1000 1 msec;
#X obj 6 424 earplug~, f 14;
#X obj 109 345 loadbang;
#X msg 109 366 250;
#X obj 171 299 bng 15 250 50 0 empty empty empty 0 -8 0 8 #fcfcfc #000000 #000000;
#X obj 78 288 r playdelay;
#X obj 6 311 del 1000 1 msec;
#X obj 120 14 bng 15 250 50 0 empty empty empty 0 -8 0 8 #fcfcfc #000000 #000000;
#X obj 6 389 else/giga.rev~ -size 100 -damp 1 -bw 0.7 -dry 1 -early 0.18 -late 1 -spread 1;
#X connect 0 0 9 0;
#X connect 1 0 10 0;
#X connect 3 0 6 0;
#X connect 4 0 2 0;
#X connect 5 0 22 0;
#X connect 6 0 24 0;
#X connect 9 0 2 0;
#X connect 10 0 2 0;
#X connect 10 1 15 0;
#X connect 10 2 16 0;
#X connect 10 3 12 0;
#X connect 11 0 9 1;
#X connect 12 0 11 0;
#X connect 14 0 11 0;
#X connect 15 0 4 0;
#X connect 16 0 14 0;
#X connect 17 0 7 0;
#X connect 17 1 8 0;
#X connect 18 0 19 0;
#X connect 19 0 17 1;
#X connect 20 0 3 0;
#X connect 21 0 22 1;
#X connect 22 0 3 0;
#X connect 23 0 10 0;
#X connect 24 0 17 0;
#X restore 7 400 pd RECORDING;
#X f 20;
#X text 114 399 TEXTURAS;
#X obj 312 124 catch~ dac1;
#X obj 374 124 catch~ dac2;
#X obj 312 185 dac~, f 13;
#X obj 435 181 else/vu~;
#X obj 387 181 else/vu~;
#X obj 388 209 vu 15 80 empty empty -1 -8 0 8 #404040 #000000 0 0;
#X obj 436 209 vu 15 80 empty empty -1 -8 0 8 #404040 #000000 0 0;
#X obj 153 241 nbx 3 20 -1e+37 1e+37 0 0 empty empty empty 0 -8 0 8 #dfdfdf #ff0400 #ff0400 0 256;
#X obj 544 68 r htmlagain;
#X obj 470 122 print rece;
#X obj 274 75 declare -lib else;
#X obj 230 179 bang~;
#X obj 230 228 cputime;
#X obj 230 200 t b b;
#X obj 230 284 f;
#X obj 307 247 metro 200;
#X obj 307 225 tgl 15 0 empty empty empty 0 -8 0 8 #fcfcfc #000000 #000000 0 1;
#X obj 230 305 print;
#X connect 0 0 1 0;
#X connect 1 0 3 0;
#X connect 3 0 14 0;
#X connect 3 1 4 1;
#X connect 6 0 42 0;
#X connect 9 0 16 0;
#X connect 10 0 11 0;
#X connect 11 0 9 0;
#X connect 12 0 7 0;
#X connect 13 0 20 0;
#X connect 13 0 14 1;
#X connect 14 0 19 0;
#X connect 15 0 9 0;
#X connect 16 0 12 0;
#X connect 18 0 17 0;
#X connect 19 0 4 0;
#X connect 19 1 6 0;
#X connect 24 0 23 0;
#X connect 26 0 1 1;
#X connect 28 0 19 0;
#X connect 35 0 37 0;
#X connect 35 0 39 0;
#X connect 36 0 37 1;
#X connect 36 0 38 0;
#X connect 38 0 41 0;
#X connect 38 1 41 1;
#X connect 39 0 40 0;
#X connect 39 1 40 1;
#X connect 43 0 18 0;
#X connect 43 0 44 0;
#X connect 46 0 48 0;
#X connect 47 0 49 1;
#X connect 48 0 47 0;
#X connect 48 1 47 1;
#X connect 49 0 52 0;
#X connect 50 0 49 0;
#X connect 51 0 50 0;
