#N canvas 965 30 938 1001 8;
#X obj 10 5 vu 15 160 r-test1 empty -1 -8 0 8 #404040 #000000 0 0;
#X obj 29 5 vu 15 160 r-test2 empty -1 -8 0 8 #404040 #000000 0 0;
#X obj 49 5 vu 15 160 r-test3 empty -1 -8 0 8 #404040 #000000 0 0;
#X obj 68 5 vu 15 160 r-test4 empty -1 -8 0 8 #404040 #000000 0 0;
#X obj 88 5 vu 15 160 r-test1 empty -1 -8 0 8 #404040 #000000 0 0;
#X obj 107 5 vu 15 160 r-test2 empty -1 -8 0 8 #404040 #000000 0 0;
#X obj 127 5 vu 15 160 r-test3 empty -1 -8 0 8 #404040 #000000 0 0;
#X obj 146 5 vu 15 160 r-test4 empty -1 -8 0 8 #404040 #000000 0 0;
#X obj 166 5 vu 15 160 r-test1 empty -1 -8 0 8 #404040 #000000 0 0;
#X obj 185 5 vu 15 160 r-test2 empty -1 -8 0 8 #404040 #000000 0 0;
#X obj 205 5 vu 15 160 r-test3 empty -1 -8 0 8 #404040 #000000 0 0;
#X obj 224 5 vu 15 160 r-test4 empty -1 -8 0 8 #404040 #000000 0 0;
#X obj 244 5 vu 15 160 r-test1 empty -1 -8 0 8 #404040 #000000 0 0;
#X obj 263 5 vu 15 160 r-test2 empty -1 -8 0 8 #404040 #000000 0 0;
#X obj 283 5 vu 15 160 r-test3 empty -1 -8 0 8 #404040 #000000 0 0;
#X obj 302 5 vu 15 160 r-test4 empty -1 -8 0 8 #404040 #000000 0 0;
#X obj 322 5 vu 15 160 r-test1 empty -1 -8 0 8 #404040 #000000 0 0;
#X obj 341 5 vu 15 160 r-test2 empty -1 -8 0 8 #404040 #000000 0 0;
#X obj 361 5 vu 15 160 r-test3 empty -1 -8 0 8 #404040 #000000 0 0;
#X obj 380 5 vu 15 160 r-test4 empty -1 -8 0 8 #404040 #000000 0 0;
#X obj 400 5 vu 15 160 r-test1 empty -1 -8 0 8 #404040 #000000 0 0;
#X obj 419 5 vu 15 160 r-test2 empty -1 -8 0 8 #404040 #000000 0 0;
#X obj 439 5 vu 15 160 r-test3 empty -1 -8 0 8 #404040 #000000 0 0;
#X obj 458 5 vu 15 160 r-test4 empty -1 -8 0 8 #404040 #000000 0 0;
#X obj 478 5 vu 15 160 r-test1 empty -1 -8 0 8 #404040 #000000 0 0;
#X obj 143 632 osc~ 0.1;
#X obj 143 654 env~;
#X obj 143 721 s r-test1;
#X obj 196 654 env~;
#X obj 196 721 s r-test2;
#X msg 312 597 \; pd dsp 1;
#X obj 143 675 - 100;
#X obj 196 675 - 100;
#X obj 196 632 osc~ 0.14;
#X obj 253 655 env~;
#X obj 306 655 env~;
#X obj 253 676 - 100;
#X obj 306 676 - 100;
#X obj 253 633 osc~ 0.3;
#X obj 306 633 osc~ 0.02;
#X obj 306 722 s r-test4;
#X obj 253 722 s r-test3;
#X connect 25 0 26 0;
#X connect 26 0 31 0;
#X connect 28 0 32 0;
#X connect 31 0 27 0;
#X connect 32 0 29 0;
#X connect 33 0 28 0;
#X connect 34 0 36 0;
#X connect 35 0 37 0;
#X connect 36 0 41 0;
#X connect 37 0 40 0;
#X connect 38 0 34 0;
#X connect 39 0 35 0;
#X coords 0 -1 1 1 500 350 1 1 1;
