#N canvas 644 37 632 891 8;
#X obj 2 8 tgl 35 0 s-tgl1 r-tgl1 empty 0 -8 0 8 #fcfcfc #000000 #000000 0 1;
#N canvas 494 37 931 891 gui 0;
#X obj 1 10 loadbang;
#X obj 9 52 metro 1000;
#X obj 9 74 s r-tgl1;
#X obj 87 7 loadbang;
#X obj 137 7 bng 15 250 50 0 empty empty empty 0 -8 0 8 #fcfcfc #000000 #000000;
#X obj 87 52 metro 1500;
#X obj 87 74 s r-bng1;
#X obj 174 7 loadbang;
#X obj 224 7 bng 15 250 50 0 empty empty empty 0 -8 0 8 #fcfcfc #000000 #000000;
#X obj 174 72 int;
#X obj 174 92 + 1;
#X obj 174 112 nbx 5 14 -1e+37 1e+37 0 0 empty empty empty 0 -8 0 8 #fcfcfc #000000 #000000 0 256;
#X obj 174 131 % 127;
#X obj 174 151 nbx 5 14 -1e+37 1e+37 0 0 empty empty empty 0 -8 0 8 #fcfcfc #000000 #000000 0 256;
#X obj 174 202 s r-vsl1;
#X obj 174 33 metro 50;
#X obj 226 202 s r-hsl1;
#X obj 226 178 expr 127 - $f1;
#X obj 9 114 metro 1000;
#X obj 9 135 int;
#X obj 9 156 + 1;
#X obj 9 204 s r-nbx1;
#X obj 31 185 nbx 5 14 -1e+37 1e+37 0 0 empty empty empty 0 -8 0 8 #fcfcfc #000000 #000000 0 256;
#X obj 47 93 bng 15 250 50 0 empty empty empty 0 -8 0 8 #fcfcfc #000000 #000000;
#X connect 0 0 1 0;
#X connect 0 0 18 0;
#X connect 1 0 2 0;
#X connect 3 0 5 0;
#X connect 4 0 5 0;
#X connect 5 0 6 0;
#X connect 7 0 15 0;
#X connect 8 0 15 0;
#X connect 9 0 10 0;
#X connect 10 0 9 1;
#X connect 10 0 11 0;
#X connect 11 0 12 0;
#X connect 12 0 13 0;
#X connect 13 0 14 0;
#X connect 13 0 17 0;
#X connect 15 0 9 0;
#X connect 17 0 16 0;
#X connect 18 0 19 0;
#X connect 19 0 20 0;
#X connect 20 0 19 1;
#X connect 20 0 21 0;
#X connect 20 0 22 0;
#X connect 23 0 18 0;
#X restore 423 1 pd gui;
#X obj 49 8 bng 35 250 50 0 s-bng1 r-bng1 empty 0 -8 0 8 #fcfcfc #000000 #000000;
#X obj 89 10 vsl 15 110 0 127 0 0 s-vsl1 r-vsl1 empty 0 -9 0 8 #fcfcfc #000000 #000000 0 1;
#X obj 111 8 hsl 128 15 0 127 0 0 s-hsl1 r-hsl1 empty -2 -8 0 8 #fcfcfc #000000 #000000 0 1;
#X obj 108 27 nbx 5 14 -1e+37 1e+37 0 0 s-nbx1 r-nbx1 empty 0 -8 0 8 #fcfcfc #000000 #000000 0 256;
#X obj 3 49 vradio 15 1 0 4 s-r1 r-r1 empty 0 -8 0 8 #fcfcfc #000000 #000000 0;
#X text 138 73 All things you can render!;
#X obj 457 137 dac~ 1;
#X obj 457 58 r s-key1;
#X obj 457 117 else/plaits~ -model 11 -midi;
#X msg 513 76 tr_active 1;
#X obj 513 57 loadbang;
#X obj 3 165 cnv 19 126 80 s-cnv1 r-cnv1 empty 20 12 0 12 #7e2c32 #404040 0;
#X obj 170 329 loadbang;
#X obj 170 360 metro 1000;
#X obj 408 714 s r-cnv1;
#N canvas 968 124 390 482 label 0;
#X obj 102 80 vsl 15 128 0 255 0 0 empty empty empty 0 -9 0 10 #0800fc #fcfcfc #000000 0 1;
#X obj 109 225 t b f;
#X obj 81 80 vsl 15 128 0 255 0 0 empty empty empty 0 -9 0 10 #00fc00 #000000 #000000 0 1;
#X obj 61 80 vsl 15 128 0 255 0 0 empty empty empty 0 -9 0 10 #fc0000 #000000 #000000 0 1;
#X obj 81 250 t b f;
#X obj 221 257 makefilename %02x;
#X obj 141 284 makefilename %02x;
#X obj 61 321 makefilename %02x;
#X obj 61 416 outlet;
#X text 52 56 background;
#X msg 61 380 symbol #\$1\$2\$3;
#X obj 176 59 loadbang;
#X obj 176 176 route set;
#X obj 61 351 pack symbol symbol symbol;
#X obj 277 71 cnv 15 100 60 empty empty empty 20 12 0 14 #e0e0e0 #404040 0;
#X msg 176 91 set 225;
#X obj 47 12 inlet;
#X obj 90 12 inlet;
#X obj 133 12 inlet;
#X connect 0 0 1 0;
#X connect 1 0 2 0;
#X connect 1 1 5 0;
#X connect 2 0 4 0;
#X connect 3 0 7 0;
#X connect 4 0 3 0;
#X connect 4 1 6 0;
#X connect 5 0 13 2;
#X connect 6 0 13 1;
#X connect 7 0 13 0;
#X connect 10 0 8 0;
#X connect 11 0 15 0;
#X connect 12 0 5 0;
#X connect 12 0 6 0;
#X connect 13 0 10 0;
#X connect 15 0 3 0;
#X connect 15 0 2 0;
#X connect 15 0 0 0;
#X connect 15 0 12 0;
#X connect 16 0 3 0;
#X connect 17 0 2 0;
#X connect 18 0 0 0;
#X coords 0 -1 1 1 80 170 2 50 50;
#X restore 402 473 pd label;
#X obj 405 359 expr random(1 \, 127);
#X obj 436 388 expr random(1 \, 127);
#X obj 458 413 expr random(1 \, 127);
#X msg 408 683 color \$1;
#X obj 3 131 hradio 15 1 0 8 s-hr1 r-hr1 empty 0 -8 0 8 #fcfcfc #000000 #000000 0;
#X obj 134 165 else/keyboard 17 80 2 2 0 0 s-key1 r-key1;
#X obj 131 99 else/knob 45 3 124 0 3 s-knob1 r-knob1 #dfdfdf #7c7c7c black 0 0 0 0 1 320 0 0 3;
#X obj 473 225 else/vu~;
#X obj 473 269 s r-vu1;
#X obj 473 245 nbx 5 14 -1e+37 1e+37 0 0 empty empty empty 0 -8 0 8 #fcfcfc #000000 #000000 0 256;
#X obj 360 77 vu 10 80 r-vu1 empty -1 -8 0 8 #404040 #000000 0 0;
#X obj 346 77 vu 10 80 r-vu1 empty -1 -8 0 8 #404040 #000000 0 0;
#X connect 9 0 10 0;
#X connect 10 0 8 0;
#X connect 10 0 25 0;
#X connect 11 0 10 0;
#X connect 12 0 11 0;
#X connect 14 0 15 0;
#X connect 15 0 18 0;
#X connect 15 0 19 0;
#X connect 15 0 20 0;
#X connect 17 0 21 0;
#X connect 18 0 17 0;
#X connect 19 0 17 1;
#X connect 20 0 17 2;
#X connect 21 0 16 0;
#X connect 25 0 27 0;
#X connect 27 0 26 0;
#X coords 0 -1 1 1 380 250 1 0 0;
