#N canvas 699 400 521 272 8;
#X obj 4 3 tgl 35 0 s-tgl1 r-tgl1 empty 0 -8 0 8 #fcfcfc #000000 #000000 0 1;
#N canvas 983 23 931 1016 gui 1;
#X obj 9 7 loadbang;
#X obj 59 7 bng 15 250 50 0 empty empty empty 0 -8 0 8 #fcfcfc #000000 #000000;
#X obj 9 52 metro 1000;
#X obj 9 74 s r-tgl1;
#X obj 87 7 loadbang;
#X obj 137 7 bng 15 250 50 0 empty empty empty 0 -8 0 8 #fcfcfc #000000 #000000;
#X obj 87 52 metro 1500;
#X obj 87 74 s r-bng1;
#X obj 174 7 loadbang;
#X obj 224 7 bng 15 250 50 0 empty empty empty 0 -8 0 8 #fcfcfc #000000 #000000;
#X obj 174 72 int;
#X obj 174 92 + 1;
#X obj 174 112 nbx 5 14 -1e+37 1e+37 0 0 empty empty empty 0 -8 0 8 #fcfcfc #000000 #000000 0 256;
#X obj 174 131 % 127;
#X obj 174 151 nbx 5 14 -1e+37 1e+37 0 0 empty empty empty 0 -8 0 8 #fcfcfc #000000 #000000 0 256;
#X obj 174 202 s r-vsl1;
#X obj 174 33 metro 50;
#X obj 226 202 s r-hsl1;
#X obj 226 178 expr 127 - $f1;
#X obj 307 198 s r-vu1;
#X obj 307 86 int;
#X obj 307 106 + 1;
#X obj 307 174 nbx 5 14 -1e+37 1e+37 0 0 empty empty empty 0 -8 0 8 #fcfcfc #000000 #000000 0 256;
#X obj 307 126 % 127;
#X obj 307 146 - 127;
#X connect 0 0 2 0;
#X connect 1 0 2 0;
#X connect 2 0 3 0;
#X connect 4 0 6 0;
#X connect 5 0 6 0;
#X connect 6 0 7 0;
#X connect 8 0 16 0;
#X connect 9 0 16 0;
#X connect 10 0 11 0;
#X connect 11 0 10 1;
#X connect 11 0 12 0;
#X connect 12 0 13 0;
#X connect 13 0 14 0;
#X connect 14 0 15 0;
#X connect 14 0 18 0;
#X connect 16 0 10 0;
#X connect 16 0 20 0;
#X connect 18 0 17 0;
#X connect 20 0 21 0;
#X connect 21 0 20 1;
#X connect 21 0 23 0;
#X connect 22 0 19 0;
#X connect 23 0 24 0;
#X connect 24 0 22 0;
#X restore 5 113 pd gui;
#X obj 51 3 bng 35 250 50 0 s-bng1 r-bng1 empty 0 -8 0 8 #fcfcfc #000000 #000000;
#X obj 91 5 vsl 15 110 0 127 0 0 s-vsl1 r-vsl1 empty 0 -9 0 8 #fcfcfc #000000 #000000 0 1;
#X obj 113 3 hsl 128 15 0 127 0 0 s-hsl1 r-hsl1 empty -2 -8 0 8 #fcfcfc #000000 #000000 0 1;
#X obj 113 38 vu 15 80 r-vu1 empty -1 -8 0 8 #404040 #000000 0 0;
