#N canvas 634 398 652 266 8;
#X obj 2 8 tgl 35 0 s-tgl1 r-tgl1 empty 0 -8 0 8 #fcfcfc #000000 #000000 0 1;
#N canvas 494 23 931 1016 gui 0;
#X obj 1 10 loadbang;
#X obj 9 52 metro 1000;
#X obj 9 74 s r-tgl1;
#X obj 87 7 loadbang;
#X obj 137 7 bng 15 250 50 0 empty empty empty 0 -8 0 8 #fcfcfc #000000 #000000;
#X obj 87 52 metro 1500;
#X obj 87 74 s r-bng1;
#X obj 174 7 loadbang;
#X obj 224 7 bng 15 250 50 0 empty empty empty 0 -8 0 8 #fcfcfc #000000 #000000;
#X obj 174 72 int;
#X obj 174 92 + 1;
#X obj 174 112 nbx 5 14 -1e+37 1e+37 0 0 empty empty empty 0 -8 0 8 #fcfcfc #000000 #000000 0 256;
#X obj 174 131 % 127;
#X obj 174 151 nbx 5 14 -1e+37 1e+37 0 0 empty empty empty 0 -8 0 8 #fcfcfc #000000 #000000 0 256;
#X obj 174 202 s r-vsl1;
#X obj 174 33 metro 50;
#X obj 226 202 s r-hsl1;
#X obj 226 178 expr 127 - $f1;
#X obj 307 198 s r-vu1;
#X obj 307 86 int;
#X obj 307 106 + 1;
#X obj 307 174 nbx 5 14 -1e+37 1e+37 0 0 empty empty empty 0 -8 0 8 #fcfcfc #000000 #000000 0 256;
#X obj 307 126 % 127;
#X obj 307 146 - 127;
#X obj 9 114 metro 1000;
#X obj 9 135 int;
#X obj 9 156 + 1;
#X obj 9 204 s r-nbx1;
#X obj 31 185 nbx 5 14 -1e+37 1e+37 0 0 empty empty empty 0 -8 0 8 #fcfcfc #000000 #000000 0 256;
#X obj 47 93 bng 15 250 50 0 empty empty empty 0 -8 0 8 #fcfcfc #000000 #000000;
#X connect 0 0 1 0;
#X connect 0 0 24 0;
#X connect 1 0 2 0;
#X connect 3 0 5 0;
#X connect 4 0 5 0;
#X connect 5 0 6 0;
#X connect 7 0 15 0;
#X connect 8 0 15 0;
#X connect 9 0 10 0;
#X connect 10 0 9 1;
#X connect 10 0 11 0;
#X connect 11 0 12 0;
#X connect 12 0 13 0;
#X connect 13 0 14 0;
#X connect 13 0 17 0;
#X connect 15 0 9 0;
#X connect 15 0 19 0;
#X connect 17 0 16 0;
#X connect 19 0 20 0;
#X connect 20 0 19 1;
#X connect 20 0 22 0;
#X connect 21 0 18 0;
#X connect 22 0 23 0;
#X connect 23 0 21 0;
#X connect 24 0 25 0;
#X connect 25 0 26 0;
#X connect 26 0 25 1;
#X connect 26 0 27 0;
#X connect 26 0 28 0;
#X connect 29 0 24 0;
#X restore 416 6 pd gui;
#X obj 49 8 bng 35 250 50 0 s-bng1 r-bng1 empty 0 -8 0 8 #fcfcfc #000000 #000000;
#X obj 89 10 vsl 15 110 0 127 0 0 s-vsl1 r-vsl1 empty 0 -9 0 8 #fcfcfc #000000 #000000 0 1;
#X obj 111 8 hsl 128 15 0 127 0 0 s-hsl1 r-hsl1 empty -2 -8 0 8 #fcfcfc #000000 #000000 0 1;
#X obj 108 41 vu 15 80 r-vu1 empty -1 -8 0 8 #404040 #000000 0 0;
#X obj 131 41 nbx 5 14 -1e+37 1e+37 0 0 s-nbx1 r-nbx1 empty 0 -8 0 8 #fcfcfc #000000 #000000 0 256;
#X obj 3 49 vradio 15 1 0 4 s-r1 r-r1 empty 0 -8 0 8 #fcfcfc #000000 #000000 0;
#X text 138 73 All things you can render!;
#X obj 129 92 else/keyboard 17 80 2 2 0 0 s-key1 r-key1;
#X obj 457 137 dac~ 1;
#X obj 457 58 r s-key1;
#X obj 457 117 else/plaits~ -model 11 -midi;
#X msg 513 76 tr_active 1;
#X obj 513 57 loadbang;
#X obj 5 128 cnv 15 100 60 empty empty empty 20 12 0 8 #e0e0e0 #404040 0;
#X connect 11 0 12 0;
#X connect 12 0 10 0;
#X connect 13 0 12 0;
#X connect 14 0 13 0;
#X coords 0 -1 1 1 380 250 1 0 0;
