#N canvas 0 0 925 1129 10;
#X declare -stdpath ./;
#X obj 176 210 bob~, f 24;
#N canvas 635 124 513 424 test 0;
#X obj 313 137 min~;
#X obj 367 123 -~ 1;
#X obj 367 148 *~ -50;
#X floatatom 105 105 5 0 128 0 - - - 0;
#X obj 233 52 mtof;
#X text 301 49 test signal;
#X obj 313 90 phasor~ 220;
#X obj 233 107 osc~ 220;
#X obj 65 34 loadbang;
#X msg 105 70 57;
#X msg 65 102 1;
#X obj 362 244 noise~;
#X obj 233 277 *~ 0;
#X obj 313 244 *~ 0;
#X obj 362 287 *~ 0;
#X obj 295 338 +~;
#X obj 295 373 outlet~;
#X obj 59 316 declare -stdpath ./;
#X obj 105 127 vradio 19 1 0 3 empty empty empty 0 -8 0 10 #dfdfdf #000000 #000000 0;
#X obj 258 225 == 0;
#X obj 105 207 == 2;
#X obj 338 221 == 1;
#X obj 313 162 -~ 0.5;
#X text 127 126 Sine, f 8;
#X text 127 146 Sawtooth;
#X text 127 165 Noise, f 8;
#X text 144 104 Pitch;
#X obj 313 190 *~ 2;
#X connect 0 0 22 0;
#X connect 1 0 2 0;
#X connect 2 0 0 1;
#X connect 3 0 4 0;
#X connect 4 0 6 0;
#X connect 4 0 7 0;
#X connect 6 0 0 0;
#X connect 6 0 1 0;
#X connect 7 0 12 0;
#X connect 8 0 9 0;
#X connect 8 0 10 0;
#X connect 9 0 3 0;
#X connect 10 0 18 0;
#X connect 11 0 14 0;
#X connect 12 0 15 0;
#X connect 13 0 15 1;
#X connect 14 0 15 1;
#X connect 15 0 16 0;
#X connect 18 0 21 0;
#X connect 18 0 20 0;
#X connect 18 0 19 0;
#X connect 19 0 12 1;
#X connect 20 0 14 1;
#X connect 21 0 13 1;
#X connect 22 0 27 0;
#X connect 27 0 13 0;
#X coords 0 -1 1 1 93 90 2 100 100;
#X restore 35 54 pd test;
#X obj 258 138 line~;
#X text 234 80 Hz;
#X obj 258 107 pack f 50;
#X floatatom 258 80 8 0 0 0 - - - 0;
#X obj 261 52 hsl 162 19 60 5000 0 1 empty empty empty -2 -8 0 10 #dfdfdf #000000 #000000 6422 1;
#X obj 176 150 r \$0-set;
#X obj 344 103 hsl 162 19 0.1 100 1 1 empty empty empty -2 -8 0 10 #dfdfdf #000000 #000000 7200 1;
#X floatatom 341 130 5 0 8 0 - - - 0;
#X obj 341 159 sig~;
#X text 383 130 (> 4 to oscillate);
#X text 247 28 resonant/cutoff frequency;
#N canvas 642 49 638 537 details 0;
#X text 86 211 (sections 1 and 2 are a reasonably good introduction but the model they use is highly idealized.), f 69;
#X text 79 256 Timothy E. Stinchcombe \; Analysis of the Moog Transistor Ladder and Derivative Filters (long \, but a very thorough description of how the filter works including its nonlinearities), f 70;
#X text 81 133 Useful references:, f 63;
#X text 79 163 Tim Stilson \; Analyzing the Moog VCF with Considerations for Digital Implementation https://ccrma.stanford.edu/~stilti/papers/moogvcf.ps.gz, f 70;
#X text 79 72 The [bob~] object Imitates a Moog resonant filter by Runge-Kutte numerical integration of a differential equation approximately describing the dynamics of the circuit., f 70;
#X text 79 323 Antti Huovilainen \; Non-linear digital implementation of the moog ladder filter (comes close to giving a differential equation for a reasonably realistic model of the filter)., f 70;
#X text 79 395 The differential equations are \; y1' = k * (S(x - r * y4) - S(y1)) \; y2' = k * (S(y1) - S(y2)) \; y3' = k * (S(y2) - S(y3)) \; y4' = k * (S(y3) - S(y4)) \; where k controls the cutoff frequency \, r is feedback (<= 4 for stability) \, and S(x) is a saturation function., f 70;
#X text 64 26 Copied from README.txt;
#X restore 424 201 pd details;
#X text 386 81 resonance;
#X obj 176 271 dac~;
#X connect 0 0 15 0;
#X connect 0 0 15 1;
#X connect 1 0 0 0;
#X connect 2 0 0 1;
#X connect 4 0 2 0;
#X connect 5 0 4 0;
#X connect 6 0 5 0;
#X connect 7 0 0 0;
#X connect 8 0 9 0;
#X connect 9 0 10 0;
#X connect 10 0 0 2;
