#N canvas 591 186 961 567 8;
#X obj 85 34 adc~ 1;
#X obj 85 213 dac~, f 8;
#X obj 85 134 *~;
#X obj 171 23 vsl 15 128 0 1 0 0 gain-sender gain-receiver empty 0 -9 0 8 #fcfcfc #000000 #000000 0 1;
#X obj 85 183 earplug~;
#X msg 309 67 alt 1;
#X obj 309 40 loadbang;
#X obj 223 36 bng 15 250 50 0 empty empty empty 0 -8 0 8 #fcfcfc #000000 #000000;
#X obj 269 133 else/count 90 270;
#X obj 220 75 metro 20;
#X connect 0 0 2 0;
#X connect 2 0 4 0;
#X connect 3 0 2 1;
#X connect 4 0 1 0;
#X connect 4 1 1 1;
#X connect 5 0 8 0;
#X connect 6 0 5 0;
#X connect 6 0 9 0;
#X connect 7 0 9 0;
#X connect 8 0 4 1;
#X connect 9 0 8 0;
