#N canvas 6 31 200 200 8;
#X obj 5 6 adc~ 1;
#X obj 5 151 dac~, f 8;
#X obj 96 6 vsl 15 128 0 1 0 0 gain-sender gain-receiver empty 0 -9 0 8 #fcfcfc #000000 #000000 0 1;
#X obj 5 114 *~ 0.1;
#X obj 96 142 * 3;
#X obj 96 163 nbx 5 14 -1e+37 1e+37 0 0 empty empty empty 0 -8 0 8 #fcfcfc #000000 #000000 0 256;
#X connect 0 0 3 0;
#X connect 2 0 4 0;
#X connect 3 0 1 0;
#X connect 3 0 1 1;
#X connect 4 0 3 1;
#X connect 4 0 5 0;
