#N canvas 1140 123 612 442 10;
#X obj 42 195 outlet;
#X obj 134 194 outlet;
#X obj 191 197 outlet;
#X obj 297 233 outlet;
#X obj 389 232 outlet;
#X obj 434 231 outlet;
#X obj 540 73 outlet;
#X obj 89 194 outlet;
#X obj 278 4 ctlin;
#X obj 343 232 outlet;
#X obj 75 61 == 1;
#X obj 49 110 spigot;
#X floatatom 47 152 5 0 0 0 - - -, f 5;
#X obj 112 106 spigot;
#X floatatom 101 152 5 0 0 0 - - -, f 5;
#X obj 129 58 == 2;
#X obj 329 91 == 5;
#X obj 331 134 spigot;
#X floatatom 301 182 5 0 0 0 - - -, f 5;
#X obj 350 147 spigot;
#X floatatom 344 182 5 0 0 0 - - -, f 5;
#X obj 373 91 == 6;
#X obj 419 133 spigot;
#X floatatom 386 182 5 0 0 0 - - -, f 5;
#X obj 417 90 == 7;
#X obj 467 133 spigot;
#X floatatom 434 182 5 0 0 0 - - -, f 5;
#X obj 465 90 == 8;
#X obj 226 103 spigot;
#X floatatom 193 152 5 0 0 0 - - -, f 5;
#X obj 224 60 == 4;
#X obj 176 102 spigot;
#X floatatom 143 151 5 0 0 0 - - -, f 5;
#X obj 174 59 == 3;
#X text 532 44 channel;
#X text 52 225 1;
#X text 101 224 2;
#X text 145 224 3;
#X text 196 223 4;
#X text 295 256 5;
#X text 340 257 6;
#X text 390 254 7;
#X text 453 252 8;
#X connect 8 0 11 0;
#X connect 8 0 13 0;
#X connect 8 0 17 0;
#X connect 8 0 19 0;
#X connect 8 0 22 0;
#X connect 8 0 25 0;
#X connect 8 0 28 0;
#X connect 8 0 31 0;
#X connect 8 1 10 0;
#X connect 8 1 15 0;
#X connect 8 1 16 0;
#X connect 8 1 21 0;
#X connect 8 1 24 0;
#X connect 8 1 27 0;
#X connect 8 1 30 0;
#X connect 8 1 33 0;
#X connect 8 2 6 0;
#X connect 10 0 11 1;
#X connect 11 0 12 0;
#X connect 12 0 0 0;
#X connect 13 0 14 0;
#X connect 14 0 7 0;
#X connect 15 0 13 1;
#X connect 16 0 17 1;
#X connect 17 0 18 0;
#X connect 18 0 3 0;
#X connect 19 0 20 0;
#X connect 20 0 9 0;
#X connect 21 0 19 1;
#X connect 22 0 23 0;
#X connect 23 0 4 0;
#X connect 24 0 22 1;
#X connect 25 0 26 0;
#X connect 26 0 5 0;
#X connect 27 0 25 1;
#X connect 28 0 29 0;
#X connect 29 0 2 0;
#X connect 30 0 28 1;
#X connect 31 0 32 0;
#X connect 32 0 1 0;
#X connect 33 0 31 1;
