#N canvas 117 105 1483 894 16;
#X obj 103 765 dac~;
#X obj 45 16 notein;
#X obj 43 97 pack 0 0 0;
#X obj 37 204 unpack 0 0, f 6;
#X obj 409 355 vsl 25 50 0.9 0.999 0 0 empty empty Mod 0 -9 0 10 -4034
-1 -1 3193 1;
#X text 1312 264 Setup;
#X obj 1257 188 loadbang;
#X obj 1312 290 delay 500;
#X msg 1324 356 \; pd dsp 1;
#X obj 1236 235 bng 15 250 50 0 empty empty empty 17 7 0 10 -262144
-1 -1;
#X text 725 29 ctl;
#X obj 440 355 vsl 25 50 20 127 0 0 empty empty PreF 0 -9 0 10 -191407
-262144 -1 1923 1;
#X obj 725 52 apkknobs;
#X obj 107 202 unpack 0 0, f 6;
#X obj 182 204 unpack 0 0, f 7;
#X obj 264 205 unpack 0 0, f 6;
#X obj 17 135 route 1;
#N canvas 0 50 450 250 (subpatch) 0;
#X array array1 100 float 3;
#A 0 0 0 0 0 0 0 0 0 0 0 0 0 0 0 0 0 0 0 0 0 0 0 0 0 0 0 0 0 0 0 0
0 0 0 0 0 0 0 0 0 0 0 0 0 0 0 0 0 0 0 0 0 0 0 0 0 0 0 0 0 0 0 0 0 0
0 0 0 0 0 0 0 0 0 0 0 0 0 0 0 0 0 0 0 0 0 0 0 0 0 0 0 0 0 0 0 0 0 0
0;
#X coords 0 1 100 -1 200 140 1;
#X restore 1214 576 graph;
#X obj 268 756 tabwrite~ array1;
#X obj 265 680 metro 10;
#X msg 1143 305 0.95;
#X msg 1091 231 0.5;
#X msg 1284 475 100;
#X obj 102 520 ks A;
#X obj 460 162 expr (($f1 / 1270)) * 0.999 + 0.9;
#X obj 46 61 poly 4 1;
#X obj 103 135 route 1 2 3 4;
#X obj 473 352 vsl 25 50 0 127 0 0 empty empty Trk 0 -9 0 10 -4032
-1 -1 2122 1;
#X obj 125 687 *~ 1;
#X obj 218 521 ks C;
#X obj 162 523 ks B;
#X obj 267 521 ks D;
#X connect 1 0 25 0;
#X connect 1 1 25 1;
#X connect 2 0 26 0;
#X connect 3 0 23 0;
#X connect 3 1 23 1;
#X connect 4 0 23 2;
#X connect 4 0 29 2;
#X connect 4 0 30 2;
#X connect 4 0 31 2;
#X connect 6 0 7 0;
#X connect 7 0 8 0;
#X connect 7 0 22 0;
#X connect 7 0 19 0;
#X connect 7 0 20 0;
#X connect 7 0 21 0;
#X connect 9 0 7 0;
#X connect 11 0 23 3;
#X connect 11 0 29 3;
#X connect 11 0 30 3;
#X connect 11 0 31 3;
#X connect 12 0 24 0;
#X connect 12 1 11 0;
#X connect 12 2 27 0;
#X connect 13 0 30 0;
#X connect 13 1 30 1;
#X connect 14 0 29 0;
#X connect 14 1 29 1;
#X connect 15 0 31 0;
#X connect 15 1 31 1;
#X connect 16 0 3 0;
#X connect 19 0 18 0;
#X connect 20 0 4 0;
#X connect 22 0 11 0;
#X connect 23 0 28 0;
#X connect 24 0 4 0;
#X connect 25 0 2 0;
#X connect 25 1 2 1;
#X connect 25 2 2 2;
#X connect 26 0 3 0;
#X connect 26 1 13 0;
#X connect 26 2 14 0;
#X connect 26 3 15 0;
#X connect 27 0 31 4;
#X connect 27 0 29 4;
#X connect 27 0 30 4;
#X connect 27 0 23 4;
#X connect 28 0 0 0;
#X connect 28 0 0 1;
#X connect 28 0 18 0;
#X connect 29 0 28 0;
#X connect 30 0 28 0;
#X connect 31 0 28 0;
