#N canvas 480 50 1196 900 16;
#X obj 397 247 pink;
#X obj 372 440 *~, f 4;
#X msg 411 400 1;
#X msg 452 405 0;
#X obj 441 350 bng 15 250 50 0 empty empty empty 17 7 0 10 -262144
-1 -1;
#X obj 548 326 mtof;
#X obj 545 359 expr 1000 / $f1;
#X obj 474 379 del;
#X floatatom 533 392 5 0 0 0 - - -, f 5;
#X obj 405 283 lop~;
#X obj 528 281 mtof;
#X obj 498 521 lop~;
#X obj 511 198 inlet;
#X text 505 160 Note;
#X text 762 163 flt;
#X obj 680 195 inlet;
#X text 679 162 decay;
#X obj 492 656 outlet~;
#X obj 756 197 inlet;
#X obj 265 647 delwrite~ \$1-na 1000;
#X obj 542 430 vd~ \$1-na 100;
#X obj 524 469 *~ 0.99;
#X obj 593 196 inlet;
#X text 589 161 vel;
#X obj 625 293 spigot;
#X obj 710 260 != 0;
#X floatatom 598 237 5 0 0 0 - - -, f 5;
#X floatatom 478 237 5 0 0 0 - - -, f 5;
#X obj 827 195 inlet;
#X text 832 164 trk;
#X connect 0 0 9 0;
#X connect 1 0 19 0;
#X connect 2 0 1 1;
#X connect 3 0 1 1;
#X connect 4 0 2 0;
#X connect 4 0 7 0;
#X connect 5 0 6 0;
#X connect 6 0 7 1;
#X connect 6 0 8 0;
#X connect 6 0 20 0;
#X connect 7 0 3 0;
#X connect 9 0 1 0;
#X connect 10 0 9 1;
#X connect 10 0 11 1;
#X connect 11 0 17 0;
#X connect 11 0 19 0;
#X connect 12 0 5 0;
#X connect 12 0 27 0;
#X connect 15 0 21 1;
#X connect 18 0 10 0;
#X connect 20 0 21 0;
#X connect 21 0 11 0;
#X connect 22 0 26 0;
#X connect 24 0 4 0;
#X connect 25 0 24 1;
#X connect 26 0 25 0;
#X connect 26 0 24 0;
