#N canvas 0 50 753 644 10;
#X obj 94 198 rpole~ 0.995728;
#X obj 96 252 rpole~ 0.947906;
#X obj 94 305 rpole~ 0.535675;
#X obj 111 169 rzero~ 0.984436;
#X obj 111 227 rzero~ 0.833923;
#X obj 110 277 rzero~ 0.0756836;
#X obj 93 363 outlet~;
#X obj 111 142 noise~;
#X obj 214 305 * 0.01;
#X obj 234 277 * 0.01;
#X obj 213 253 * 0.01;
#X obj 226 228 * 0.01;
#X obj 210 199 * 0.01;
#X obj 227 168 * 0.01;
#X obj 401 129 unpack 0 0 0;
#X obj 305 130 unpack 0 0 0;
#X msg 305 73 99.5728 94.7906 53.5675;
#X msg 401 96 98.4436 83.3923 7.56836;
#X obj 401 30 loadbang;
#X text 161 336 normalization factor was found empirically;
#X text 245 69 Poles:;
#X text 335 98 Zeroes:;
#X floatatom 167 373 5 0 0 0 - - -, f 5;
#X obj 93 337 *~ 0.17;
#X connect 0 0 4 0;
#X connect 1 0 5 0;
#X connect 2 0 23 0;
#X connect 3 0 0 0;
#X connect 4 0 1 0;
#X connect 5 0 2 0;
#X connect 7 0 3 0;
#X connect 8 0 2 1;
#X connect 9 0 5 1;
#X connect 10 0 1 1;
#X connect 11 0 4 1;
#X connect 12 0 0 1;
#X connect 13 0 3 1;
#X connect 14 0 13 1;
#X connect 14 1 11 1;
#X connect 14 2 9 1;
#X connect 15 0 12 1;
#X connect 15 1 10 1;
#X connect 15 2 8 1;
#X connect 16 0 15 0;
#X connect 17 0 14 0;
#X connect 18 0 16 0;
#X connect 18 0 17 0;
#X connect 22 0 23 1;
#X connect 23 0 6 0;
