#N canvas 963 28 200 200 8;
#X obj 156 248 loadbang;
#X obj 156 271 metro 500;
#X obj 88 7 tgl 45 0 r-t1 s-t1 empty 0 -8 0 8 #fcfcfc #000000 #000000 0 1;
#X obj 35 248 osc~ 440;
#X obj 35 269 *~ 0.2;
#X obj 40 7 bng 45 250 50 0 s-s r-s empty 0 -8 0 8 #fcfcfc #000000 #000000;
#X obj 118 248 r r-t1;
#X obj 156 290 s r-s;
#X obj 81 248 osc~ 1;
#X obj 81 269 *~;
#X obj 35 292 *~;
#X obj 41 59 vu 15 80 r-vu empty -1 -8 0 8 #404040 #000000 0 0;
#X obj 35 389 dac~;
#N canvas 329 161 625 417 vu 0;
#X obj 59 129 env~ 1024;
#X obj 161 111 abs~;
#X obj 161 213 snapshot~;
#X obj 161 256 rmstodb;
#X obj 161 21 inlet~;
#X obj 161 288 - 100;
#X obj 59 287 - 100;
#X obj 59 361 outlet;
#X obj 161 361 outlet;
#X text 344 307 Check the help file of env~ and slop~ for more details., f 31;
#X obj 239 89 expr 1000 / $f1;
#X floatatom 239 117 5 0 0 0 - - - 0;
#X obj 161 146 slop~ 0 0 0 0 1e+09;
#X obj 239 18 inlet;
#X floatatom 239 57 5 0 0 0 - - - 0;
#X text 359 89 convert to hz;
#X text 282 118 hz;
#X text 284 57 peak decay time in ms;
#X obj 59 171 t f b;
#X text 345 132 The env~ object is dedicated to RMS analysis. Its output is in dB (0-100 range \, pd style) but needs to be converted to dBFS (and we do that by simply subtracting 100)., f 31;
#X text 345 225 The slop~ object is used here for peak detection. We need to convert the output to dB with rmstodb and also subtract by 100 to convert it to dBFS., f 31;
#X connect 0 0 18 0;
#X connect 1 0 12 0;
#X connect 2 0 3 0;
#X connect 3 0 5 0;
#X connect 4 0 0 0;
#X connect 4 0 1 0;
#X connect 5 0 8 0;
#X connect 6 0 7 0;
#X connect 10 0 11 0;
#X connect 11 0 12 3;
#X connect 12 0 2 0;
#X connect 13 0 14 0;
#X connect 14 0 10 0;
#X connect 18 0 6 0;
#X connect 18 1 2 0;
#X restore 64 367 pd vu;
#X obj 64 388 s r-vu;
#X obj 61 59 vsl 15 80 0 8 0 0 s-vsl r-vsl empty 0 -9 0 8 #fcfcfc #000000 #000000 0 1;
#X obj 61 292 r s-vsl;
#X obj 35 334 *~;
#N canvas 0 50 450 250 (subpatch) 0;
#X coords 0 1 100 -1 189 139 1;
#X restore 37 5 graph;
#X obj 104 389 nbx 5 14 -1e+37 1e+37 0 0 empty empty empty 0 -8 0 8 #fcfcfc #000000 #000000 0 256;
#X connect 0 0 1 0;
#X connect 1 0 7 0;
#X connect 3 0 4 0;
#X connect 4 0 10 0;
#X connect 6 0 9 1;
#X connect 8 0 9 0;
#X connect 9 0 10 1;
#X connect 10 0 17 0;
#X connect 13 0 14 0;
#X connect 13 0 19 0;
#X connect 16 0 17 1;
#X connect 17 0 12 0;
#X connect 17 0 12 1;
#X connect 17 0 13 0;
