#N canvas 963 28 951 1012 8;
#X obj 58 22 loadbang;
#X obj 58 79 metro 500;
#X obj 122 27 bng 15 250 50 0 empty empty empty 0 -8 0 8 #fcfcfc #000000 #000000;
#X obj 58 109 bng 25 250 50 0 s-s r-s empty 0 -8 0 8 #fcfcfc #000000 #000000;
#X obj 154 123 osc~ 200;
#X obj 154 184 dac~;
#X obj 154 144 *~ 0.05;
#X obj 148 21 bng 35 250 50 0 b1-r b1-s empty 0 -8 0 8 #fcfcfc #000000 #000000;
#X obj 187 21 bng 35 250 50 0 b2-r b2-s empty 0 -8 0 8 #fcfcfc #000000 #000000;
#X obj 148 59 tgl 35 0 t1-r t1-s empty 0 -8 0 8 #fcfcfc #000000 #000000 0 1;
#X obj 187 59 tgl 35 0 t2-r t2-s empty 0 -8 0 8 #fcfcfc #000000 #000000 0 1;
#X connect 0 0 1 0;
#X connect 1 0 3 0;
#X connect 2 0 1 0;
#X connect 4 0 6 0;
#X connect 6 0 5 0;
#X connect 6 0 5 1;
