#N canvas 963 28 951 1012 8;
#X obj 5 5 loadbang;
#X obj 5 28 metro 500;
#X obj 5 86 s r-s;
#X obj 105 5 tgl 45 0 r-t1 s-t1 empty 0 -8 0 8 #fcfcfc #000000 #000000 0 1;
#X obj 58 5 osc~ 440;
#X obj 58 93 dac~;
#X obj 58 26 *~ 0.2;
#X obj 58 69 *~ 1;
#X obj 153 5 bng 45 250 50 0 s-s r-s empty 0 -8 0 8 #fcfcfc #000000 #000000;
#X obj 144 144 r r-t1;
#X obj 144 165 nbx 5 14 -1e+37 1e+37 0 0 empty empty empty 0 -8 0 8 #fcfcfc #000000 #000000 0 256;
#X connect 0 0 1 0;
#X connect 1 0 2 0;
#X connect 3 0 7 1;
#X connect 4 0 6 0;
#X connect 6 0 7 0;
#X connect 7 0 5 0;
#X connect 7 0 5 1;
#X connect 9 0 10 0;
