#N canvas 570 -23 1086 974 8;
#X obj 11 275 osc~;
#X obj 11 295 *~;
#X obj 281 203 else/envgen~;
#X obj 11 4 inlet;
#X obj 11 378 outlet~;
#X obj 356 125 cyclone/gate 5 1, f 32;
#X obj 356 103 r attacks;
#N canvas 0 0 543 413 piano 0;
#X obj 6 15 inlet;
#X msg 6 98 0 100 \$1 100 \$2 350 \$2 250 0;
#X obj 6 36 t f f;
#X obj 6 78 list;
#X obj 28 56 * 0.6;
#X obj 6 119 outlet;
#X connect 0 0 2 0;
#X connect 1 0 5 0;
#X connect 2 0 3 0;
#X connect 2 1 4 0;
#X connect 3 0 1 0;
#X connect 4 0 3 1;
#X restore 356 157 pd piano;
#X obj 281 68 t b f, f 47;
#N canvas 75 116 543 527 staccato 0;
#X obj 6 15 inlet;
#X obj 6 36 t f f;
#X obj 6 101 pack f f f f;
#X obj 28 60 * 0.5;
#X msg 6 161 0 171 \$1 204 \$2 230 \$2 300 0 924 0;
#X obj 6 182 outlet;
#X connect 0 0 1 0;
#X connect 1 0 2 0;
#X connect 1 1 3 0;
#X connect 2 0 4 0;
#X connect 3 0 2 1;
#X connect 4 0 5 0;
#X restore 395 180 pd staccato;
#X obj 11 169 sig~;
#X obj 68 171 noise~;
#X obj 11 254 *~, f 12;
#X obj 68 228 expr~ ($v1 + 0) * 0.0999 + 0.9999;
#X obj 11 127 else/spread 60 84;
#X obj 11 79 ftom;
#X obj 11 100 nbx 5 14 -1e+37 1e+37 0 0 empty empty empty 0 -8 0 8 #fcfcfc #000000 #000000 0 256;
#X obj 11 149 mtof;
#X obj 284 247 symbol;
#X obj 177 163 int;
#X obj 177 184 list;
#X msg 284 226 \$1-13;
#X obj 284 7 text define -k trumpet-notes-\$0;
#A set 60-13 TpC+SW-flatt_open-C4-mf-N-N.wav \; 61-13 TpC+SW-flatt_open-C#4-mf-N-N.wav \; 62-13 TpC+SW-flatt_open-D4-mf-N-N.wav \; 63-13 TpC+SW-flatt_open-D#4-mf-N-N.wav \; 64-13 TpC+SW-flatt_open-E4-mf-N-N.wav \; 65-13 TpC+SW-flatt_open-F4-mf-N-N.wav \; 66-13 TpC+SW-flatt_open-F#4-mf-N-N.wav \; 67-13 TpC+SW-flatt_open-G4-mf-N-N.wav \; 68-13 TpC+SW-flatt_open-G#4-mf-N-N.wav \; 69-13 TpC+SW-flatt_open-A4-mf-N-N.wav \; 70-13 TpC+SW-flatt_open-A#4-mf-N-N.wav \; 71-13 TpC+SW-flatt_open-B4-mf-N-N.wav \; 72-13 TpC+SW-flatt_open-C5-mf-N-N.wav \; 73-13 TpC+SW-flatt_open-C#5-mf-N-N.wav \; 74-13 TpC+SW-flatt_open-D5-mf-N-N.wav \; 75-13 TpC+SW-flatt_open-D#5-mf-N-N.wav \; 76-13 TpC+SW-flatt_open-E5-mf-N-N.wav \; 77-13 TpC+SW-flatt_open-F5-mf-N-N.wav \; 78-13 TpC+SW-flatt_open-F#5-mf-N-N.wav \; 79-13 TpC+SW-flatt_open-G5-mf-N-N.wav \; 80-13 TpC+SW-flatt_open-G#5-mf-N-N.wav \; 81-13 TpC+SW-flatt_open-A5-mf-N-N.wav \; 82-13 TpC+SW-flatt_open-A#5-mf-N-N.wav \; 83-13 TpC+SW-flatt_open-B5-mf-N-N.wav \;;
#X obj 284 270 text search trumpet-notes-\$0;
#X obj 284 289 text get trumpet-notes-\$0;
#X obj 177 206 t b a;
#X obj 284 408 earplug~, f 9;
#X obj 284 450 outlet~;
#X obj 326 450 outlet~;
#X obj 176 319 line, f 12;
#X msg 176 296 0 \, 180 10000;
#X obj 176 340 nbx 5 14 -1e+37 1e+37 0 0 empty empty empty 0 -8 0 8 #fcfcfc #000000 #000000 0 256;
#N canvas 329 161 1081 642 vu 0;
#X obj 59 129 env~ 1024;
#X obj 161 111 abs~;
#X obj 161 213 snapshot~;
#X obj 161 256 rmstodb;
#X obj 161 21 inlet~;
#X obj 161 288 - 100;
#X obj 59 287 - 100;
#X obj 59 361 outlet;
#X obj 161 361 outlet;
#X text 344 307 Check the help file of env~ and slop~ for more details., f 31;
#X obj 228 82 expr 1000 / $f1;
#X floatatom 239 117 5 0 0 0 - - - 0;
#X obj 161 146 slop~ 0 0 0 0 1e+09;
#X text 359 89 convert to hz;
#X text 282 118 hz;
#X text 284 57 peak decay time in ms;
#X obj 59 171 t f b;
#X text 345 132 The env~ object is dedicated to RMS analysis. Its output is in dB (0-100 range \, pd style) but needs to be converted to dBFS (and we do that by simply subtracting 100)., f 31;
#X text 345 225 The slop~ object is used here for peak detection. We need to convert the output to dB with rmstodb and also subtract by 100 to convert it to dBFS., f 31;
#X obj 245 19 loadbang;
#X msg 245 40 500;
#X connect 0 0 16 0;
#X connect 1 0 12 0;
#X connect 2 0 3 0;
#X connect 3 0 5 0;
#X connect 4 0 0 0;
#X connect 4 0 1 0;
#X connect 5 0 8 0;
#X connect 6 0 7 0;
#X connect 10 0 11 0;
#X connect 11 0 12 3;
#X connect 12 0 2 0;
#X connect 16 0 6 0;
#X connect 16 1 2 0;
#X connect 19 0 20 0;
#X connect 20 0 10 0;
#X restore 52 378 pd vu;
#X obj 208 182 switch~;
#X obj 187 109 tgl 15 0 empty empty empty 0 -8 0 8 #fcfcfc #000000 #000000 0 1;
#X msg 70 5 440;
#X obj 52 442 spigot, f 26;
#X obj 179 421 r turnoff-0$;
#X obj 148 68 t b b b, f 16;
#X msg 187 91 1;
#X msg 225 101 0;
#X obj 111 134 s turnoff-0$;
#X obj 102 86 del 300 1 msec;
#X msg 107 107 1;
#X obj 229 128 s turnoff-0$;
#X obj 213 152 r switch-0$;
#X obj 52 464 s switch-0$;
#X obj 11 35 unpack f f f, f 28;
#X msg 52 419 0;
#X obj 52 398 else/spread -99;
#X obj 284 348 soundfiler;
#X obj 284 310 list append myarray-\$0;
#X obj 372 450 array define myarray-\$0;
#X msg 284 331 read -resize \$2 \$3;
#X obj 284 380 tabplay~ myarray-\$0;
#X connect 0 0 1 0;
#X connect 1 0 4 0;
#X connect 1 0 32 0;
#X connect 2 0 1 1;
#X connect 3 0 47 0;
#X connect 5 0 7 0;
#X connect 5 1 9 0;
#X connect 6 0 5 0;
#X connect 7 0 2 1;
#X connect 8 0 2 0;
#X connect 8 1 5 1;
#X connect 9 0 2 1;
#X connect 10 0 12 0;
#X connect 11 0 13 0;
#X connect 12 0 0 0;
#X connect 13 0 12 1;
#X connect 14 0 17 0;
#X connect 14 1 19 0;
#X connect 14 2 17 0;
#X connect 15 0 16 0;
#X connect 16 0 14 0;
#X connect 17 0 10 0;
#X connect 18 0 23 0;
#X connect 19 0 20 0;
#X connect 20 0 25 0;
#X connect 21 0 18 0;
#X connect 23 0 24 0;
#X connect 24 0 51 0;
#X connect 25 0 30 0;
#X connect 25 1 21 0;
#X connect 26 0 27 0;
#X connect 26 1 28 0;
#X connect 29 0 31 0;
#X connect 30 0 29 0;
#X connect 31 0 26 1;
#X connect 32 0 49 0;
#X connect 34 0 33 0;
#X connect 35 0 47 0;
#X connect 36 0 46 0;
#X connect 37 0 36 1;
#X connect 38 0 42 0;
#X connect 38 1 39 0;
#X connect 38 2 40 0;
#X connect 39 0 34 0;
#X connect 40 0 44 0;
#X connect 42 0 43 0;
#X connect 43 0 41 0;
#X connect 45 0 33 0;
#X connect 47 0 15 0;
#X connect 47 1 8 0;
#X connect 47 2 38 0;
#X connect 48 0 36 0;
#X connect 49 0 48 0;
#X connect 50 1 54 0;
#X connect 51 0 53 0;
#X connect 53 0 50 0;
#X connect 54 0 26 0;
#X connect 54 0 32 0;
