#N canvas 479 32 1188 894 8;
#X obj 14 7 inlet;
#X obj 14 116 list;
#X obj 14 77 bng 15 250 50 0 empty empty empty 0 -8 0 8 #fcfcfc #000000 #000000;
#X obj 74 116 list;
#X obj 121 116 list;
#X obj 168 116 list;
#X obj 215 115 list;
#X obj 14 419 outlet~;
#X obj 262 115 list;
#X obj 14 155 partial;
#X obj 74 155 partial;
#X obj 121 155 partial;
#X obj 168 155 partial;
#X obj 215 155 partial;
#X obj 262 154 partial;
#X obj 130 378 outlet~;
#X obj 14 36 route go sigmund switch, f 113;
#X obj 388 154 switch~;
#X obj 44 77 route 0 1 2 3 4 5, f 57;
#X obj 256 393 outlet~;
#X connect 0 0 16 0;
#X connect 1 0 9 0;
#X connect 2 0 1 0;
#X connect 2 0 3 0;
#X connect 2 0 4 0;
#X connect 2 0 5 0;
#X connect 2 0 6 0;
#X connect 2 0 8 0;
#X connect 3 0 10 0;
#X connect 4 0 11 0;
#X connect 5 0 12 0;
#X connect 6 0 13 0;
#X connect 8 0 14 0;
#X connect 9 0 7 0;
#X connect 9 1 15 0;
#X connect 9 2 19 0;
#X connect 10 0 7 0;
#X connect 10 1 15 0;
#X connect 10 2 19 0;
#X connect 11 0 7 0;
#X connect 11 1 15 0;
#X connect 11 2 19 0;
#X connect 12 0 7 0;
#X connect 12 1 15 0;
#X connect 12 2 19 0;
#X connect 13 0 7 0;
#X connect 13 1 15 0;
#X connect 13 2 19 0;
#X connect 14 0 7 0;
#X connect 14 1 15 0;
#X connect 14 2 19 0;
#X connect 16 0 2 0;
#X connect 16 1 18 0;
#X connect 16 2 17 0;
#X connect 18 0 1 1;
#X connect 18 1 3 1;
#X connect 18 2 4 1;
#X connect 18 3 5 1;
#X connect 18 4 6 1;
#X connect 18 5 8 1;
