#N canvas 1282 23 632 1016 8;
#X obj 274 89 unpack f f;
#X obj 337 13 loadbang;
#X msg 337 33 8;
#X obj 337 53 s r-index1;
#X obj 274 67 r R-8;
#X obj 321 152 s r-vsl1;
#X obj 274 176 s r-hsl1;
#X obj 321 125 expr 1 - $f1;
#X obj 12 12 tgl 45 0 s-tg1 r-tg1 empty 0 -8 0 8 #fcfcfc #000000 #000000 0 1;
#X obj 172 124 vu 15 80 r-vu1 empty -1 -8 0 8 #404040 #000000 0 0;
#X obj 191 124 vu 15 80 r-vu1 empty -1 -8 0 8 #404040 #000000 0 0;
#X obj 191 34 vsl 15 80 0 127 0 0 s-vsl1 r-vsl1 empty 0 -9 0 8 #fcfcfc #000000 #000000 0 1;
#X text 157 68 Gain!;
#X obj 59 12 tgl 45 0 s-tg1 r-tg1 empty 0 -8 0 8 #fcfcfc #000000 #000000 0 1;
#X obj 107 12 tgl 45 0 s-tg1 r-tg1 empty 0 -8 0 8 #fcfcfc #000000 #000000 0 1;
#X obj 14 73 nbx 3 20 -1e+37 1e+37 0 0 s-nbx1 r-nbx1 empty 0 -8 0 11 #fcfcfc #000000 #000000 0 256;
#X obj 14 114 bng 45 250 50 0 s-n1 r-n1 empty 0 -8 0 8 #fcfcfc #000000 #000000;
#X obj 286 266 r s-n1;
#X obj 286 286 int;
#X obj 286 306 + 1;
#X obj 286 359 s r-nbx1;
#X obj 14 161 bng 45 250 50 0 s-p1 r-p1 empty 0 -8 0 8 #fcfcfc #000000 #000000;
#X obj 327 285 int;
#X obj 327 305 - 1;
#X obj 326 267 r s-p1;
#X obj 57 73 cnv 15 50 20 empty empty Section 10 10 0 8 #ffc7c6 #404040 0;
#X obj 61 122 cnv 15 80 20 empty empty Next\ Section 10 10 0 8 #c6ffc7 #404040 0;
#X obj 61 173 cnv 15 80 20 empty empty Prev\ Section 10 10 0 8 #c6ffc7 #404040 0;
#X obj 348 391 s pd4web-score;
#X msg 348 359 symbol score\$1.png;
#X connect 0 0 6 0;
#X connect 0 1 7 0;
#X connect 1 0 2 0;
#X connect 2 0 3 0;
#X connect 4 0 0 0;
#X connect 7 0 5 0;
#X connect 17 0 18 0;
#X connect 18 0 19 0;
#X connect 19 0 18 1;
#X connect 19 0 20 0;
#X connect 19 0 22 1;
#X connect 19 0 29 0;
#X connect 22 0 23 0;
#X connect 23 0 22 1;
#X connect 23 0 18 1;
#X connect 23 0 20 0;
#X connect 23 0 29 0;
#X connect 24 0 22 0;
#X connect 29 0 28 0;
#X coords 0 -1 1 1 200 200 1 10 10;
