#N canvas 0 0 925 1132 10;
#X obj 218 287 osc~ 400;
#X obj 218 344 *~;
#X obj 218 383 *~ 0.3;
#X obj 218 428 dac~;
#X obj 278 287 r toggle;
#X obj 218 244 r freq;
#X obj 3 6 tgl 48 0 empty empty empty 0 -9 0 10 #fcfcfc #000000 #000000 0 1;
#X obj 60 7 nbx 5 16 -1e+37 1e+37 0 0 empty empty empty 0 -9 0 10 #fcfcfc #000000 #000000 0 256;
#X connect 0 0 1 0;
#X connect 1 0 2 0;
#X connect 2 0 3 0;
#X connect 2 0 3 1;
#X connect 4 0 1 1;
#X connect 5 0 0 0;
#X connect 6 0 1 1;
#X connect 7 0 0 0;
#X coords 0 -1 1 1 200 200 1 1 1;
