#N canvas 864 448 192 136 12;
#X obj 5 6 vsl 20 110 0 127 0 0 s-vsl1 r-vsl1 empty 0 -9 0 12 #fcfcfc #000000 #000000 0 1;
#N canvas 1153 23 761 1016 main 1;
#X obj 48 111 osc~;
#X obj 181 113 r s-vsl1;
#X obj 181 178 / 127;
#X obj 245 178 s r-vsl1;
#X obj 245 113 loadbang;
#X msg 245 138 80;
#X obj 48 282 *~;
#X msg 181 203 \$1 60;
#X obj 181 228 line~;
#X obj 48 22 r s-nbx1;
#X obj 110 22 loadbang;
#X msg 110 47 440;
#X obj 110 72 s r-nbx1;
#X obj 107 330 else/vu~;
#X obj 107 355 s r-vu;
#X obj 48 380 dac~;
#X connect 0 0 6 0;
#X connect 1 0 2 0;
#X connect 2 0 7 0;
#X connect 4 0 5 0;
#X connect 5 0 3 0;
#X connect 5 0 2 0;
#X connect 6 0 13 0;
#X connect 6 0 15 0;
#X connect 6 0 15 1;
#X connect 7 0 8 0;
#X connect 8 0 6 1;
#X connect 9 0 0 0;
#X connect 10 0 11 0;
#X connect 11 0 0 0;
#X connect 11 0 12 0;
#X connect 13 0 14 0;
#X restore 2 216 pd main;
#X obj 41 6 nbx 5 25 -1e+37 1e+37 0 0 s-nbx1 r-nbx1 empty 0 -10 0 24 #fcfcfc #000000 #000000 0 256;
#X obj 42 37 vu 20 80 r-vu empty -1 -10 0 12 #404040 #000000 0 0;
#X obj 69 36 tgl 40 0 s-tgl1 r-tgl1 empty 0 -10 0 12 #fcfcfc #000000 #000000 0 1;
#X obj 69 79 tgl 40 0 s-tgl2 r-tgl2 empty 0 -10 0 12 #fcfcfc #000000 #000000 0 1;
#X obj 114 36 bng 40 250 50 0 s-bng1 r-bng1 empty 0 -10 0 12 #fcfcfc #000000 #000000;
#X obj 114 79 bng 40 250 50 0 s-bng2 r-bng2 empty 0 -10 0 12 #fcfcfc #000000 #000000;
