#N canvas 0 0 943 1005 12;
#X obj 5 6 vsl 20 110 0 127 0 0 s-vsl1 r-vsl1 empty 0 -9 0 12 #fcfcfc #000000 #000000 0 1;
#N canvas 0 0 943 1005 main 0;
#X obj 48 111 osc~;
#X obj 181 113 r s-vsl1;
#X obj 181 178 / 127;
#X obj 245 178 s r-vsl1;
#X obj 245 113 loadbang;
#X msg 245 138 80;
#X obj 48 282 *~;
#X msg 181 203 \$1 60;
#X obj 181 228 line~;
#X obj 48 22 r s-nbx1;
#X obj 110 22 loadbang;
#X msg 110 47 440;
#X obj 110 72 s r-nbx1;
#X obj 107 355 s r-vu;
#X obj 48 380 dac~;
#N canvas 329 161 625 417 vu 0;
#X obj 59 129 env~ 1024;
#X obj 161 111 abs~;
#X obj 161 213 snapshot~;
#X obj 161 256 rmstodb;
#X obj 161 21 inlet~;
#X obj 161 288 - 100;
#X obj 59 287 - 100;
#X obj 59 361 outlet;
#X obj 161 361 outlet;
#X text 344 307 Check the help file of env~ and slop~ for more details., f 31;
#X obj 239 89 expr 1000 / $f1;
#X floatatom 239 117 5 0 0 0 - - - 0;
#X obj 161 146 slop~ 0 0 0 0 1e+09;
#X obj 239 18 inlet;
#X floatatom 239 57 5 0 0 0 - - - 0;
#X text 359 89 convert to hz;
#X text 282 118 hz;
#X text 284 57 peak decay time in ms;
#X obj 59 171 t f b;
#X text 345 132 The env~ object is dedicated to RMS analysis. Its output is in dB (0-100 range \, pd style) but needs to be converted to dBFS (and we do that by simply subtracting 100)., f 31;
#X text 345 225 The slop~ object is used here for peak detection. We need to convert the output to dB with rmstodb and also subtract by 100 to convert it to dBFS., f 31;
#X connect 0 0 18 0;
#X connect 1 0 12 0;
#X connect 2 0 3 0;
#X connect 3 0 5 0;
#X connect 4 0 0 0;
#X connect 4 0 1 0;
#X connect 5 0 8 0;
#X connect 6 0 7 0;
#X connect 10 0 11 0;
#X connect 11 0 12 3;
#X connect 12 0 2 0;
#X connect 13 0 14 0;
#X connect 14 0 10 0;
#X connect 18 0 6 0;
#X connect 18 1 2 0;
#X restore 107 327 pd vu;
#X connect 0 0 6 0;
#X connect 1 0 2 0;
#X connect 2 0 7 0;
#X connect 4 0 5 0;
#X connect 5 0 3 0;
#X connect 5 0 2 0;
#X connect 6 0 14 0;
#X connect 6 0 14 1;
#X connect 6 0 15 0;
#X connect 7 0 8 0;
#X connect 8 0 6 1;
#X connect 9 0 0 0;
#X connect 10 0 11 0;
#X connect 11 0 0 0;
#X connect 11 0 12 0;
#X connect 15 0 13 0;
#X restore 2 216 pd main;
#X obj 41 6 nbx 5 25 -1e+37 1e+37 0 0 s-nbx1 r-nbx1 empty 0 -10 0 24 #fcfcfc #000000 #000000 0 256;
#X obj 42 37 vu 20 80 r-vu empty -1 -10 0 12 #404040 #000000 0 0;
#X obj 69 36 tgl 40 0 s-tgl1 r-tgl1 empty 0 -10 0 12 #fcfcfc #000000 #000000 0 1;
#X obj 69 79 tgl 40 0 s-tgl2 r-tgl2 empty 0 -10 0 12 #fcfcfc #000000 #000000 0 1;
#X obj 114 36 bng 40 250 50 0 s-bng1 r-bng1 empty 0 -10 0 12 #fcfcfc #000000 #000000;
#X obj 114 79 bng 40 250 50 0 s-bng2 r-bng2 empty 0 -10 0 12 #fcfcfc #000000 #000000;
#X coords 0 -1 1 1 165 130 1 1 1;
