#N canvas 0 0 943 1005 12;
#X obj 5 6 vsl 20 110 0 127 0 0 empty empty empty 0 -9 0 12 #fcfcfc #000000 #000000 0 1;
#X obj 41 6 nbx 5 25 -1e+37 1e+37 0 0 empty empty empty 0 -10 0 24 #fcfcfc #000000 #000000 0 256;
#X obj 41 52 tgl 40 1 empty empty empty 0 -10 0 12 #fcfcfc #000000 #000000 0 0.4;
#X obj 177 91 osc~;
#X obj 322 194 / 127;
#X obj 322 109 loadbang;
#X msg 322 134 80;
#X obj 177 331 *~;
#X msg 322 263 \$1 60;
#X obj 322 288 line~;
#X obj 239 2 loadbang;
#X msg 239 27 440;
#X obj 177 429 dac~;
#X text 84 65 On/Off;
#X text 39 105 1 - Hello World;
#X obj 177 211 *~ 0.4;
#X obj 244 164 t f f;
#X obj 244 290 print;
#X obj 244 223 pack f f;
#X connect 0 0 16 0;
#X connect 1 0 3 0;
#X connect 2 0 15 1;
#X connect 3 0 15 0;
#X connect 4 0 8 0;
#X connect 4 0 18 1;
#X connect 5 0 6 0;
#X connect 6 0 4 0;
#X connect 7 0 12 0;
#X connect 7 0 12 1;
#X connect 8 0 9 0;
#X connect 9 0 7 1;
#X connect 10 0 11 0;
#X connect 11 0 3 0;
#X connect 15 0 7 0;
#X connect 16 0 18 0;
#X connect 16 1 4 0;
#X coords 0 -1 1 1 165 130 1 1 1;
