#N canvas 131 169 783 537 8;
#X obj 87 19 osc~ 330;
#X obj 87 40 *~ 0.4;
#X obj 87 80 dac~;
#X obj 208 197 print;
#X msg 214 113 print from Puredata;
#X obj 214 44 metro 500;
#X obj 211 15 loadbang;
#X connect 0 0 1 0;
#X connect 1 0 2 0;
#X connect 1 0 2 1;
#X connect 4 0 3 0;
#X connect 5 0 4 0;
#X connect 6 0 5 0;
