#N canvas 640 160 783 537 8;
#X obj 112 119 else/plaits~ -trigger;
#X msg 166 62 model 11;
#X msg 217 62 midi \, 60;
#X obj 181 14 loadbang;
#X obj 72 18 loadbang;
#X obj 104 58 metro 2000;
#X obj 112 151 dac~;
#X obj 134 6 bng 15 250 50 0 empty empty empty 0 -8 0 8 #fcfcfc #000000 #000000;
#X connect 0 0 6 0;
#X connect 0 1 6 1;
#X connect 1 0 0 0;
#X connect 2 0 0 0;
#X connect 3 0 1 0;
#X connect 3 0 2 0;
#X connect 4 0 5 0;
#X connect 5 0 0 0;
#X connect 7 0 5 0;
