#N canvas 12 44 300 80 10;
#X obj 379 60 r receiver;
#X obj 379 148 print;
#X obj 435 111 cyclone/zl len;
#X obj 435 134 nbx 5 16 -1e+37 1e+37 0 0 empty empty empty 0 -9 0 10 #fcfcfc #000000 #000000 0 256;
#X obj 435 155 print received;
#X text 163 2 I am writing things;
#X obj 802 37 r tgl-s;
#X obj 638 25 osc~ 440;
#X obj 638 54 *~ 0.2;
#X obj 638 101 *~;
#X obj 638 166 dac~;
#X text 163 36 I am writing things;
#X obj 281 223 metro 2000;
#X obj 281 267 s bng-r;
#X obj 281 179 loadbang;
#X obj 6 3 tgl 54 0 asd4 asd3 empty 17 7 0 10 #e4e4e4 #000000 #373737 0 1;
#X obj 72 3 tgl 54 0 asd2 asd1 empty 17 7 0 10 #e4e4e4 #000000 #373737 0 1;
#X connect 0 0 1 0;
#X connect 0 0 2 0;
#X connect 2 0 3 0;
#X connect 3 0 4 0;
#X connect 6 0 9 1;
#X connect 7 0 8 0;
#X connect 8 0 9 0;
#X connect 9 0 10 0;
#X connect 9 0 10 1;
#X connect 12 0 13 0;
#X connect 14 0 12 0;
