#N canvas 963 28 200 200 8;
#X obj 46 7 vsl 25 160 0 8 0 0 s-vsl2 r-vsl2 empty 0 -9 0 8 #fcfcfc #000000 #000000 0 1;
#X obj 76 7 hsl 128 15 0 127 0 0 hsl3-s hsl3-r empty -2 -8 0 8 #fcfcfc #000000 #000000 0 1;
#X obj 74 26 tgl 50 0 st-1 rt-1 empty 0 -8 0 8 #fcfcfc #000000 #000000 0 1;
#X obj 127 26 bng 50 250 50 0 s-b1 r-b1 empty 0 -8 0 8 #fcfcfc #000000 #000000;
#X obj 76 95 vradio 15 1 0 5 vrs-1 vrr-1 empty 0 -8 0 8 #fcfcfc #000000 #000000 0;
#X obj 76 78 hradio 15 1 0 5 hrs-1 hrr-1 empty 0 -8 0 8 #fcfcfc #000000 #000000 0;
#X obj 28 8 vu 15 160 r-vu1 empty -1 -8 0 8 #404040 #000000 0 0;
#X text 95 94 Value 1;
#X text 95 110 Value 2;
#X text 95 125 Value 3;
#X text 95 140 Value 4;
#X text 95 155 Value 5;
#X obj 215 7 notein;
#X obj 215 86 else/plaits~ -model 11 -midi 60, f 35;
#X obj 215 33 pack f f;
#X obj 215 115 dac~;
#X obj 319 20 loadbang;
#X msg 319 41 trigger 1;
#X obj 254 115 else/vu~;
#X obj 254 136 s r-vu1;
#X connect 12 0 14 0;
#X connect 12 1 14 1;
#X connect 13 0 15 0;
#X connect 13 0 18 0;
#X connect 13 1 15 1;
#X connect 14 0 13 0;
#X connect 16 0 17 0;
#X connect 17 0 13 0;
#X connect 18 0 19 0;
