#N canvas 864 448 192 136 10;
#N canvas 1282 23 632 1016 (subpatch) 0;
#X msg 231 305 \; pd dsp \$1;
#X obj 231 282 tgl 18 0 empty empty empty 0 -9 0 10 #fcfcfc #000000 #000000 0 1;
#X obj 16 371 nbx 3 24 -1e+37 1e+37 0 0 empty empty empty 0 -9 0 20 #fcfcfc #ff0400 #ff0400 0 256;
#X obj 187 380 nbx 5 16 -1e+37 1e+37 0 0 empty empty empty 0 -9 0 10 #fcfcfc #000000 #000000 0 256;
#X obj 16 452 list, f 29;
#X obj 29 418 outlet;
#X obj 15 345 o.scofo~;
#X msg 46 318 score Extras/score.txt \, start;
#X obj 64 260 else/vu~;
#X obj 73 287 s r-vu1;
#X obj 120 287 s r-vu2;
#X obj 15 28 inlet~;
#X obj 22 218 r s-start;
#X obj 154 222 loadbang;
#X msg 22 240 start;
#X obj 15 123 *~;
#X obj 30 53 r s-vsl1;
#X obj 30 75 / 127;
#X obj 30 97 * 8;
#X connect 1 0 0 0;
#X connect 2 0 4 0;
#X connect 2 0 5 0;
#X connect 3 0 4 1;
#X connect 6 0 2 0;
#X connect 6 1 3 0;
#X connect 7 0 6 0;
#X connect 8 0 9 0;
#X connect 8 0 10 0;
#X connect 11 0 15 0;
#X connect 12 0 14 0;
#X connect 13 0 7 0;
#X connect 14 0 6 0;
#X connect 15 0 8 0;
#X connect 15 0 6 0;
#X connect 16 0 17 0;
#X connect 17 0 18 0;
#X connect 18 0 15 1;
#X restore 4 72 pd;
#X obj 4 5 nbx 4 30 -1e+37 1e+37 0 0 s-event r-event empty 0 -9 0 25 #fcfcfc #000000 #000000 0 256;
#X obj 4 166 s r-event;
#X obj 119 7 vu 18 120 r-vu1 empty -1 -9 0 10 #404040 #000000 0 0;
#X obj 22 110 s score-render;
#X obj 4 41 adc~ 1;
#X obj 47 41 bng 35 250 50 0 s-start r-start empty 0 -9 0 10 #fcfcfc #000000 #000000;
#X obj 142 7 vsl 18 120 0 127 0 0 s-vsl1 r-vsl1 empty 0 -9 0 10 #fcfcfc #000000 #000000 0 1;
#X connect 0 0 2 0;
#X connect 0 0 4 0;
#X connect 5 0 0 0;
