#N canvas 963 28 951 1012 8;
#X obj 12 184 dac~ 1 2 3 4, f 23;
#X obj 12 33 osc~ 110;
#X obj 49 68 osc~ 220;
#X obj 86 98 osc~ 330;
#X obj 124 129 osc~ 440;
#X connect 1 0 0 0;
#X connect 2 0 0 1;
#X connect 3 0 0 2;
#X connect 4 0 0 3;
