#N canvas 268 428 736 482 12;
#X floatatom 207 83 3 8 100 0 - - - 0;
#X obj 207 130 s r-bng1;
#X obj 207 1 loadbang;
#X obj 207 32 metro 1000;
#X obj 207 56 expr random(40 \, 80);
#X msg 207 105 size \$1;
#X obj 3 119 cnv 19 126 76 s-cnv1 r-cnv1 empty 20 12 0 12 #1d641c #404040 0;
#X obj 445 386 s r-cnv1;
#N canvas 968 124 390 482 label 0;
#X obj 102 80 vsl 15 128 0 255 0 0 empty empty empty 0 -9 0 10 #0800fc #fcfcfc #000000 0 1;
#X obj 109 225 t b f;
#X obj 81 80 vsl 15 128 0 255 0 0 empty empty empty 0 -9 0 10 #00fc00 #000000 #000000 0 1;
#X obj 61 80 vsl 15 128 0 255 0 0 empty empty empty 0 -9 0 10 #fc0000 #000000 #000000 0 1;
#X obj 81 250 t b f;
#X obj 221 257 makefilename %02x;
#X obj 141 284 makefilename %02x;
#X obj 61 321 makefilename %02x;
#X obj 61 416 outlet;
#X text 52 56 background;
#X msg 61 380 symbol #\$1\$2\$3;
#X obj 176 59 loadbang;
#X obj 176 176 route set;
#X obj 61 351 pack symbol symbol symbol;
#X obj 277 71 cnv 15 100 60 empty empty empty 20 12 0 14 #e0e0e0 #404040 0;
#X msg 176 91 set 225;
#X obj 47 12 inlet;
#X obj 90 12 inlet;
#X obj 133 12 inlet;
#X connect 0 0 1 0;
#X connect 1 0 2 0;
#X connect 1 1 5 0;
#X connect 2 0 4 0;
#X connect 3 0 7 0;
#X connect 4 0 3 0;
#X connect 4 1 6 0;
#X connect 5 0 13 2;
#X connect 6 0 13 1;
#X connect 7 0 13 0;
#X connect 10 0 8 0;
#X connect 11 0 15 0;
#X connect 12 0 5 0;
#X connect 12 0 6 0;
#X connect 13 0 10 0;
#X connect 15 0 3 0;
#X connect 15 0 2 0;
#X connect 15 0 0 0;
#X connect 15 0 12 0;
#X connect 16 0 3 0;
#X connect 17 0 2 0;
#X connect 18 0 0 0;
#X coords 0 -1 1 1 80 170 2 50 50;
#X restore 439 145 pd label;
#X obj 442 31 expr random(1 \, 127);
#X obj 473 60 expr random(1 \, 127);
#X obj 495 85 expr random(1 \, 127);
#X msg 445 355 color \$1;
#X obj 4 5 bng 71 250 50 0 s-bng1 r-bng1 empty 0 -10 0 12 #fcfcfc #000000 #000000;
#X connect 0 0 5 0;
#X connect 2 0 3 0;
#X connect 3 0 4 0;
#X connect 3 0 9 0;
#X connect 3 0 10 0;
#X connect 3 0 11 0;
#X connect 4 0 0 0;
#X connect 5 0 1 0;
#X connect 8 0 12 0;
#X connect 9 0 8 0;
#X connect 10 0 8 1;
#X connect 11 0 8 2;
#X connect 12 0 7 0;
#X coords 0 -1 1 1 200 200 1 0 0;
