#N canvas 591 186 961 567 8;
#X obj 85 34 adc~ 1;
#X obj 85 147 earplug~;
#X obj 85 213 dac~, f 8;
#X obj 154 76 else/count;
#X obj 154 97 % 180;
#X obj 154 118 + 90;
#X msg 146 45 alt 1;
#X obj 158 11 loadbang;
#X obj 220 51 metro 20;
#X obj 85 55 *~ 0.2;
#X connect 0 0 9 0;
#X connect 1 0 2 0;
#X connect 1 1 2 1;
#X connect 3 0 4 0;
#X connect 4 0 5 0;
#X connect 5 0 1 1;
#X connect 6 0 3 0;
#X connect 7 0 6 0;
#X connect 7 0 8 0;
#X connect 8 0 3 0;
#X connect 9 0 1 0;
