#N canvas 200 200 951 1012 8;
#X obj 27 4 vsl 15 128 400 1000 0 0 gain-sender gain-receiver empty 0 -9 0 8 #fcfcfc #000000 #000000 0 1;
#X obj 27 318 dac~;
#X obj 27 183 osc~ 440;
#X obj 137 4 tgl 108 0 t1-s t1-r empty 17 7 0 10 #e4e4e4 #000000 #373737 0 1;
#X obj 256 4 tgl 108 0 t2-s t2-r empty 17 7 0 10 #e4e4e4 #000000 #373737 0 1;
#X obj 137 125 bng 108 250 50 0 b1-s b1-r empty 17 7 0 10 #e4e4e4 #000000 #373737;
#X obj 256 125 bng 108 250 50 0 b2-s b2-r empty 17 7 0 10 #e4e4e4 #000000 #373737;
#X obj 27 204 *~ 0;
#X obj 56 204 *~ 0;
#X connect 0 0 2 0;
#X connect 2 0 7 0;
#X connect 2 0 8 0;
#X connect 3 0 7 1;
#X connect 4 0 8 1;
#X connect 7 0 1 0;
#X connect 8 0 1 1;
