#N canvas 0 0 925 1132 12;
#X obj 207 1 loadbang;
#X obj 3 6 tgl 45 0 empty empty empty 0 -10 0 12 #fcfcfc #000000 #000000 0 1;
#X obj 3 81 bng 20 250 50 0 empty empty empty 0 -10 0 12 #fcfcfc #000000 #000000;
#X obj 3 56 metro 2000;
#X obj 70 22 nbx 5 18 -1e+37 1e+37 0 0 empty empty empty 0 -10 0 12 #fcfcfc #000000 #000000 0 256;
#X obj 54 281 s pd4web-bang;
#X obj 151 281 s pd4web-number;
#X obj 151 231 expr random(0 \, 50);
#X obj 151 256 nbx 5 18 -1e+37 1e+37 0 0 empty empty empty 0 -10 0 12 #fcfcfc #000000 #000000 0 256;
#X obj 285 281 s pd4web-symbol;
#X msg 285 231 symbol oi;
#X obj 397 281 s pd4web-list;
#X msg 397 231 list 1 2 3 4;
#X msg 507 233 msg 1 2 3 4;
#X obj 507 283 s pd4web-msg;
#X connect 1 0 3 0;
#X connect 2 0 5 0;
#X connect 2 0 7 0;
#X connect 2 0 10 0;
#X connect 2 0 12 0;
#X connect 2 0 13 0;
#X connect 3 0 2 0;
#X connect 4 0 3 1;
#X connect 7 0 8 0;
#X connect 8 0 6 0;
#X connect 10 0 9 0;
#X connect 12 0 11 0;
#X connect 13 0 14 0;
#X coords 0 -1 1 1 200 200 1 0 0;
