#N canvas 0 0 925 1132 10;
#X obj 24 23 osc~ 440;
#X obj 24 45 *~ 0.1;
#X obj 24 67 dac~;
#X text 107 227 Esse e um teste renderizando;
#X text 107 250 Esse e um teste renderizando;
#X text 107 270 Esse e um teste renderizando;
#X obj 107 106 tgl 18 0 empty empty empty 0 -9 0 10 #fcfcfc #000000 #000000 0 1;
#X obj 135 106 bng 18 250 50 0 empty empty empty 0 -9 0 10 #fcfcfc #000000 #000000;
#X connect 0 0 1 0;
#X connect 1 0 2 0;
#X coords 0 -1 1 1 200 200 1 100 100;
