#N canvas 0 0 925 1132 8; 
#X obj 3 4 l.tgl 35 0 s-tgl1 r-tgl1 empty 0 -8 0 8 #fcfcfc #000000 #000000 0 1; 
#X obj 40 4 l.bng 35 250 50 0 s-bng1 r-bng1 empty 0 -8 0 8 #fcfcfc #000000 #000000; 
#X obj 91 10 l.vsl 15 110 0 127 0 0 s-vsl1 r-vsl1 empty 0 -9 0 8 #fcfcfc #000000 #000000 0 1; 
#X obj 112 8 l.hsl 128 15 0 127 0 0 s-hsl1 r-hsl1 empty -2 -8 0 8 #fcfcfc #000000 #000000 0 1; 
#X obj 3 42 l.vradio 15 1 0 4 s-r1 r-r1 empty 0 -8 0 8 #fcfcfc #000000 #000000 0; 
#X obj 457 137 dac~ 1; 
#X obj 457 58 r s-key1; 
#X obj 457 117 plaits~ -model 11 -midi; 
#X msg 513 76 tr_active 1; 
#X obj 513 57 loadbang; 
#X obj 408 714 s r-cnv1; 
#X msg 408 683 color \$1; 
#X obj 5 131 l.hradio 15 1 0 8 s-hr1 r-hr1 empty 0 -8 0 8 #fcfcfc #000000 #000000 0; 
#X obj 473 225 vu~; 
#X obj 473 269 s r-vu1; 
#X obj 473 245 l.nbx 5 14 -1e+37 1e+37 0 0 empty empty empty 0 -8 0 8 #fcfcfc #000000 #000000 0 256; 
#X obj 146 64 l.vu 10 80 r-vu1 empty -1 -8 0 8 #404040 #000000 0 0; 
#X obj 132 64 l.vu 10 80 r-vu1 empty -1 -8 0 8 #404040 #000000 0 0; 
#X obj 5 155 l.keyboard 17 80 2 4 0 0 s-key1 r-key1; 
#X text 108 42 All things pd4web can render!; 
#X obj 111 26 floatatom 5 0 0 0 - - - 0; 
#X connect 6 0 7 0; 
#X connect 7 0 5 0; 
#X connect 7 0 13 0; 
#X connect 8 0 7 0; 
#X connect 9 0 8 0; 
#X connect 11 0 10 0; 
#X connect 13 0 15 0; 
#X connect 15 0 14 0; 
#X coords 0 -1 1 1 270 250 1 1 1; 
