#N canvas 0 0 925 1129 10;
#X obj 8 11 tgl 18 0 empty empty empty 0 -9 0 10 #fcfcfc #000000 #000000 0 1;
#X obj 8 34 bng 18 250 50 0 empty empty empty 0 -9 0 10 #fcfcfc #000000 #000000;
#X obj 8 57 nbx 5 16 -1e+37 1e+37 0 0 empty empty empty 0 -9 0 10 #fcfcfc #000000 #000000 0 256;
#X listbox 8 78 20 0 0 0 - - - 0;
#X obj 8 99 nbx 5 16 -1e+37 1e+37 0 0 empty empty empty 0 -9 0 10 #fcfcfc #000000 #000000 0 256;
#X obj 8 120 vsl 18 153 0 127 0 0 empty empty empty 0 -9 0 10 #fcfcfc #000000 #000000 0 1;
#X obj 8 281 hsl 153 18 0 127 0 0 empty empty empty -2 -9 0 10 #fcfcfc #000000 #000000 0 1;
#X obj 5 304 vradio 18 1 0 8 empty empty empty 0 -9 0 10 #fcfcfc #000000 #000000 0;
#X obj 199 97 vu 18 160 empty empty -1 -9 0 10 #404040 #000000 1 0;
#X obj 198 264 cnv 18 120 72 empty empty empty 20 12 0 10 #e0e0e0 #404040 0;
#N canvas 0 50 450 250 (subpatch) 0;
#X array array1 100 float 3;
#A 0 0 0 0 0 0 0 0 0 0 0 0 0 0 0 0 0 0 0 0 0 0 0 0 0 0 0 0 0 0 0 0 0 0 0 0 0 0 0 0 0 0 0 0 0 0 0 0 0 0 0 0 0 0 0 0 0 0 0 0 0 0 0 0 0 0 0 0 0 0 0 0 0 0 0 0 0 0 0 0 0 0 0 0 0 0 0 0 0 0 0 0 0 0 0 0 0 0 0 0 0;
#A color 0;
#A width 2;
#X coords 0 1 100 -1 200 140 1;
#X restore 47 379 graph;
#X connect 0 0 1 0;
#X connect 1 0 2 0;
#X connect 2 0 3 0;
#X connect 3 0 4 0;
#X connect 4 0 5 0;
#X connect 5 0 6 0;
#X connect 6 0 7 0;
