#N canvas 160 394 587 300 12;
#X obj 201 182 \$1 \$2;
#X obj 414 163 print;
#X obj 406 143 pack s f;
#X obj 392 64 r \$2-value;
#X obj 206 65 inlet;
#X obj 133 157 print;
#X obj 125 137 pack s f;
#X msg 106 114 myabs-inlet:;
#X msg 387 120 myabs-receive:;
#X connect 2 0 1 0;
#X connect 3 0 8 0;
#X connect 3 0 2 1;
#X connect 4 0 0 0;
#X connect 4 0 7 0;
#X connect 4 0 6 1;
#X connect 6 0 5 0;
#X connect 7 0 6 0;
#X connect 8 0 2 0;
