#N canvas 509 503 961 300 12;
#X obj 378 164 print;
#X obj 370 144 pack s f;
#X obj 335 46 r \$1-value;
#X floatatom 335 70 5 0 0 0 - - - 0;
#X obj 155 41 inlet;
#X obj 182 164 print;
#X obj 174 144 pack s f;
#X floatatom 155 65 5 0 0 0 - - - 0;
#X msg 155 121 test2-inlet:;
#X msg 351 121 test2-receive:;
#X connect 1 0 0 0;
#X connect 2 0 1 1;
#X connect 2 0 3 0;
#X connect 2 0 9 0;
#X connect 4 0 7 0;
#X connect 6 0 5 0;
#X connect 7 0 8 0;
#X connect 7 0 6 1;
#X connect 8 0 6 0;
#X connect 9 0 1 0;
