#N canvas 0 0 925 1132 10;
#X obj 13 21 r L-8;
#X obj 169 276 osc~ 440;
#X obj 169 298 *~ 0.1;
#X obj 169 320 dac~;
#X obj 167 100 metro 200;
#X obj 166 70 loadbang;
#X obj 78 141 * 500;
#X obj 78 163 + 200;
#X obj 164 157 f;
#X obj 164 179 print;
#X connect 0 0 6 0;
#X connect 0 0 8 1;
#X connect 1 0 2 0;
#X connect 2 0 3 0;
#X connect 2 0 3 1;
#X connect 4 0 8 0;
#X connect 5 0 4 0;
#X connect 6 0 7 0;
#X connect 7 0 1 0;
#X connect 8 0 9 0;
#X coords 0 1132 1 1131 100 100 0;
