#N canvas 644 23 632 1016 10;
#X declare -path Audios;
#X obj 323 272 loadbang;
#X obj 323 338 soundfiler;
#X obj 383 272 array define sound;
#X obj 380 402 tabplay~ sound;
#X obj 380 435 dac~;
#X msg 380 379 bang;
#X msg 323 316 read -resize Audios/audio.wav sound;
#X obj 307 516 file which;
#X obj 307 591 print found;
#X obj 364 557 print not-found;
#X msg 307 483 symbol audio.wav;
#X obj 310 242 declare -path Audios;
#X obj 323 294 delay 10000 1 msec;
#X obj 13 13 bng 55 250 50 0 s-bng1 r-bng1 empty 0 -9 0 10 #fcfcfc #000000 #000000;
#X obj 157 303 r s-bng1;
#X obj 74 15 vu 18 160 r-vu1 empty -1 -9 0 10 #404040 #000000 0 0;
#X obj 168 468 else/vu~;
#X obj 168 491 s r-vu1;
#X obj 13 73 tgl 55 0 s-tgl2 r-tgl2 empty 0 -9 0 10 #fcfcfc #000000 #000000 0 1;
#X obj 143 14 vradio 18 1 0 8 s-r1 r-r1 empty 0 -9 0 10 #fcfcfc #ff0400 #000000 0;
#X text 164 14 Option 1;
#X text 164 33 Option 2;
#X text 164 52 Option 3;
#X text 164 70 Option 4;
#X text 164 87 Option 5;
#X text 164 104 Option 6;
#X text 164 122 Option 7;
#X text 164 140 Option 8;
#X connect 0 0 12 0;
#X connect 1 1 5 0;
#X connect 3 0 4 0;
#X connect 3 0 4 1;
#X connect 3 0 16 0;
#X connect 5 0 3 0;
#X connect 5 0 10 0;
#X connect 6 0 1 0;
#X connect 7 0 8 0;
#X connect 7 1 9 0;
#X connect 10 0 7 0;
#X connect 12 0 6 0;
#X connect 14 0 10 0;
#X connect 16 0 17 0;
#X coords 0 -1 1 1 400 200 1 10 10;
