#N canvas 6 28 951 1014 10;
#X obj 6 36 *~ 0.1;
#X obj 6 81 dac~;
#X obj 6 14 osc~ 500;
#X obj 84 14 vsl 18 153 100 600 0 0 sender receiver empty 0 -9 0 10 #fcfcfc #000000 #000000 0 1;
#X obj 160 76 metro 500;
#X obj 160 32 loadbang;
#X obj 160 114 s bang_test;
#X obj 217 32 bng 18 250 50 0 empty empty empty 0 -9 0 10 #fcfcfc #000000 #000000;
#X obj 242 114 expr random(40 \, 90);
#X obj 242 137 s float_test;
#X obj 178 226 else/plaits~;
#X obj 117 203 4;
#X obj 284 209 else/plaits~;
#X obj 30 256 else/rotate.mc~;
#X obj 287 302 dac~ 1 2 3 4 5;
#X obj 154 181 adc~ 1 2 3 4;
#X obj 362 175 s test1;
#X obj 377 224 s test2, f 13;
#X obj 140 322 s ui_sender;
#X obj 234 382 \$1;
#X connect 0 0 1 0;
#X connect 0 0 1 1;
#X connect 2 0 0 0;
#X connect 3 0 2 0;
#X connect 4 0 6 0;
#X connect 4 0 8 0;
#X connect 5 0 4 0;
#X connect 7 0 4 0;
#X connect 8 0 9 0;
