#N canvas 1282 23 632 1016 10;
#X obj 5 255 dac~;
#X obj 5 8 osc~ 440;
#X obj 5 228 ambi~ 2;
#X obj 5 30 *~ 0.1;
#X obj 85 14 loadbang;
#X obj 146 14 bng 18 250 50 0 empty empty empty 0 -9 0 10 #fcfcfc #000000 #000000;
#X obj 85 85 int;
#X obj 85 107 + 1;
#X obj 85 173 nbx 5 16 -1e+37 1e+37 0 0 empty empty empty 0 -9 0 10 #fcfcfc #000000 #000000 0 256;
#X msg 85 194 azi \$1;
#X obj 85 129 % 360;
#X obj 85 63 metro 20;
#X connect 1 0 3 0;
#X connect 2 0 0 0;
#X connect 2 1 0 1;
#X connect 3 0 2 0;
#X connect 4 0 11 0;
#X connect 5 0 11 0;
#X connect 6 0 7 0;
#X connect 7 0 6 1;
#X connect 7 0 10 0;
#X connect 8 0 9 0;
#X connect 9 0 2 0;
#X connect 10 0 8 0;
#X connect 11 0 6 0;
