#N canvas 350 124 995 620 12;
#X obj 427 84 r note;
#X obj 427 355 s plaits;
#X msg 427 321 model \$1;
#X obj 427 272 r s-m;
#X obj 576 201 s clear;
#X msg 576 160 bang;
#X obj 476 29 declare -path Libs;
#X obj 427 121 clone 20 myclone;
#X obj 696 216 line, f 13;
#X msg 696 159 0.5 \, 1 4000;
#X obj 696 269 sel 1;
#X obj 696 119 loadbang;
#X obj 580 318 expr random(3000 \, 10000);
#X msg 580 342 1 \, 0 \$1;
#X obj 580 430 sel 0;
#X obj 580 366 line, f 15;
#X obj 770 318 expr random(3000 \, 10000);
#X obj 770 366 line, f 15;
#X obj 770 430 sel 1;
#X msg 770 342 0 \, 1 \$1;
#X obj 688 447 s pos;
#X obj 427 194 dac~;
#X obj 14 15 tgl 45 0 s-tgl1 r-tgl1 empty 0 -10 0 12 #fcfcfc #000000 #000000 0 1;
#X connect 0 0 7 0;
#X connect 2 0 1 0;
#X connect 3 0 2 0;
#X connect 5 0 4 0;
#X connect 7 0 21 0;
#X connect 7 1 21 1;
#X connect 8 0 10 0;
#X connect 9 0 8 0;
#X connect 10 0 12 0;
#X connect 11 0 9 0;
#X connect 12 0 13 0;
#X connect 13 0 15 0;
#X connect 14 0 16 0;
#X connect 15 0 14 0;
#X connect 15 0 20 0;
#X connect 16 0 19 0;
#X connect 17 0 18 0;
#X connect 17 0 20 0;
#X connect 18 0 12 0;
#X connect 19 0 17 0;
#X coords 0 -1 1 1 200 200 1 10 10;
