#N canvas 0 0 925 1009 10;
#X obj 21 444 dac~, f 30;
#X obj 21 363 audce_L3_amb_3rd~ 1 1;
#X obj 21 409 audce_L4_amb_3rd~ 1 1;
#X obj 21 159 readsf~, f 15;
#X obj 21 104 r audio2play;
#X obj 108 186 l.bng 18 250 50 0 empty empty empty 0 -9 0 10 #fcfcfc #000000 #000000;
#X obj 108 209 s newaudio;
#X obj 56 272 r x;
#X obj 85 272 r y;
#X obj 113 272 r z;
#X obj 56 294 pack f f f;
#X msg 56 317 pos_rcv \$1 \$2 \$3;
#X obj 56 339 print;
#X msg 161 58 symbol revisao2.wav;
#X msg 21 131 open \$1 \, 1;
#X connect 1 0 2 0;
#X connect 1 1 2 1;
#X connect 1 2 2 2;
#X connect 1 3 2 3;
#X connect 2 0 0 0;
#X connect 2 1 0 1;
#X connect 3 0 1 0;
#X connect 3 1 5 0;
#X connect 4 0 14 0;
#X connect 5 0 6 0;
#X connect 7 0 10 0;
#X connect 8 0 10 1;
#X connect 9 0 10 2;
#X connect 10 0 11 0;
#X connect 11 0 1 0;
#X connect 11 0 12 0;
#X connect 13 0 14 0;
#X connect 14 0 3 0;
