#N canvas 173 129 954 674 12;
#X obj 8 276 plaits~ -model 11 -midi;
#X obj 88 205 loadbang;
#X msg 88 226 tr_active 1;
#X obj 7 2 inlet;
#X obj 8 300 outlet~;
#X obj 144 52 unpack f f;
#X obj 211 79 expr if($f1 == 0 \, 0 \, 1);
#X obj 211 102 switch~;
#X obj 7 25 t a a a, f 20;
#X msg 144 78 \$1 0;
#X obj 62 133 print;
#X connect 0 0 4 0;
#X connect 1 0 2 0;
#X connect 2 0 0 0;
#X connect 3 0 8 0;
#X connect 5 0 9 0;
#X connect 5 1 6 0;
#X connect 6 0 7 0;
#X connect 8 0 0 0;
#X connect 8 0 10 0;
#X connect 8 2 5 0;
#X connect 9 0 0 0;
