#N canvas 346 134 956 638 8;
#X obj 216 151 nbx 5 14 -1e+37 1e+37 0 0 empty empty empty 0 -8 0 8 #fcfcfc #000000 #000000 0 256;
#X obj 89 149 else/pitch2note;
#X obj 10 81 nbx 5 14 -1e+37 1e+37 0 0 empty empty empty 0 -8 0 8 #fcfcfc #000000 #000000 0 256;
#X obj 10 10 bng 15 250 50 0 empty empty empty 0 -8 0 8 #fcfcfc #000000 #000000;
#X msg 23 32 60;
#X obj 10 60 else/count;
#X obj 10 100 t f f b;
#X obj 10 211 else/format list %i-%i %s;
#X msg 45 238 8000;
#X obj 10 268 text set test;
#X obj 175 53 text define test;
#X obj 191 95 py4pd -lib orchidea;
#X obj 89 175 orchidea.trumpet None mf 6;
#X connect 0 0 7 1;
#X connect 0 0 12 2;
#X connect 1 0 12 0;
#X connect 2 0 6 0;
#X connect 3 0 5 0;
#X connect 4 0 5 0;
#X connect 5 0 2 0;
#X connect 6 0 7 0;
#X connect 6 1 1 0;
#X connect 6 2 0 0;
#X connect 7 0 9 0;
#X connect 8 0 9 1;
#X connect 12 0 7 2;
