#N canvas 0 32 1920 977 8;
#X obj 10 16 loadbang;
#X obj 10 68 t b b;
#X obj 37 93 s \$0-link;
#X obj 10 119 s \$0-mass;
#X text 74 56 <- metronome send bangs to masses and links and gives the general computation speed;
#X text 84 129 masses and links has to be computed one after the other.;
#X obj 74 17 bng 15 250 50 0 empty empty empty 0 -8 0 8 #fcfcfc #000000 #000000;
#X obj 10 41 metro 10;
#X obj 462 12 vsl 15 128 0 127 0 0 empty empty empty 0 -9 0 8 #fcfcfc #000000 #000000 0 1;
#X listbox 462 167 40 0 0 0 - - - 0;
#N canvas -24 14 1920 977 strings 0;
#X obj 372 135 vsl 15 128 0 127 0 0 empty empty empty 0 -8 0 8 #fcfcfc #000000 #000000 0 1;
#X obj 390 135 vsl 15 128 0 127 0 0 empty empty empty 0 -8 0 8 #fcfcfc #000000 #000000 0 1;
#X obj 408 135 vsl 15 128 0 127 0 0 empty empty empty 0 -8 0 8 #fcfcfc #000000 #000000 0 1;
#X obj 426 135 vsl 15 128 0 127 0 0 empty empty empty 0 -8 0 8 #fcfcfc #000000 #000000 0 1;
#X obj 444 135 vsl 15 128 0 127 0 0 empty empty empty 0 -8 0 8 #fcfcfc #000000 #000000 0 1;
#X obj 462 135 vsl 15 128 0 127 0 0 empty empty empty 0 -8 0 8 #fcfcfc #000000 #000000 0 1;
#X obj 354 135 vsl 15 128 0 127 0 0 empty empty empty 0 -8 0 8 #fcfcfc #000000 #000000 0 1;
#X text 131 244 move the first slider ->;
#X obj 480 135 vsl 15 128 0 127 0 0 empty empty empty 0 -8 0 8 #fcfcfc #000000 #000000 0 1;
#X obj 498 135 vsl 15 128 0 127 0 0 empty empty empty 0 -8 0 8 #fcfcfc #000000 #000000 0 1;
#X obj 138 78 link \$0-link 0 1 1;
#X obj 277 78 link \$0-link 0 1 1;
#X obj 417 77 link \$0-link 0 1 1;
#X obj 558 76 link \$0-link 0 1 1;
#X obj 696 76 link \$0-link 0 1 1;
#X obj 837 75 link \$0-link 0 1 1;
#X obj 974 76 link \$0-link 0 1 1;
#X obj 139 54 mass \$0-mass 30;
#X obj 974 53 mass \$0-mass 30;
#X obj 7 78 link \$0-link 0 0.4 1;
#X msg 231 123 30;
#X msg 255 144 50;
#X obj 277 53 mass \$0-mass 20;
#X obj 417 54 mass \$0-mass 30;
#X obj 558 54 mass \$0-mass 20;
#X obj 696 53 mass \$0-mass 30;
#X obj 837 53 mass \$0-mass 40;
#X obj 150 132 inlet;
#X obj 358 318 pack f f f f f f f f f;
#X obj 358 339 outlet;
#X obj 272 212 r \$0-link;
#X connect 0 0 28 1;
#X connect 1 0 28 2;
#X connect 2 0 28 3;
#X connect 3 0 28 4;
#X connect 4 0 28 5;
#X connect 5 0 28 6;
#X connect 6 0 19 0;
#X connect 6 0 28 0;
#X connect 8 0 28 7;
#X connect 9 0 16 1;
#X connect 9 0 28 8;
#X connect 10 0 17 0;
#X connect 10 1 22 0;
#X connect 11 0 22 0;
#X connect 11 1 23 0;
#X connect 12 0 23 0;
#X connect 12 1 24 0;
#X connect 13 0 24 0;
#X connect 13 1 25 0;
#X connect 14 0 25 0;
#X connect 14 1 26 0;
#X connect 15 0 26 0;
#X connect 15 1 18 0;
#X connect 16 0 18 0;
#X connect 17 0 0 0;
#X connect 17 0 10 0;
#X connect 17 0 19 1;
#X connect 18 0 8 0;
#X connect 18 0 15 1;
#X connect 18 0 16 0;
#X connect 19 1 17 0;
#X connect 20 0 6 0;
#X connect 21 0 6 0;
#X connect 22 0 1 0;
#X connect 22 0 10 1;
#X connect 22 0 11 0;
#X connect 23 0 2 0;
#X connect 23 0 11 1;
#X connect 23 0 12 0;
#X connect 24 0 3 0;
#X connect 24 0 12 1;
#X connect 24 0 13 0;
#X connect 25 0 4 0;
#X connect 25 0 13 1;
#X connect 25 0 14 0;
#X connect 26 0 5 0;
#X connect 26 0 14 1;
#X connect 26 0 15 0;
#X connect 27 0 6 0;
#X connect 28 0 29 0;
#X connect 30 0 28 0;
#X restore 462 146 pd strings;
#N canvas -24 14 1143 806 som 0;
#X obj 30 308 else/plaits~ -trigger;
#X obj 142 174 f;
#X obj 25 133 t f f b, f 24;
#X obj 25 248 sel 1;
#X obj 25 97 int;
#X msg 78 251 model 11;
#X obj 25 269 bng 15 250 50 0 empty empty empty 0 -8 0 8 #fcfcfc #000000 #000000;
#X obj 25 198 expr if($f1 > $f2 \, 1 \, 0);
#X obj 25 219 change;
#X obj 25 115 change;
#X obj 77 227 loadbang;
#X obj 192 204 nbx 5 14 -1e+37 1e+37 0 0 empty empty empty 0 -8 0 8 #fcfcfc #000000 #000000 0 256;
#X obj 30 329 snake~ in 2;
#X obj 30 350 outlet~;
#X obj 14 48 inlet;
#X obj 14 69 * 100;
#X obj 291 187 random 24;
#X obj 292 116 loadbang;
#X obj 291 208 + 60;
#X msg 289 258 midi \, \$1;
#X connect 0 0 12 0;
#X connect 0 1 12 1;
#X connect 1 0 7 1;
#X connect 1 0 11 0;
#X connect 2 0 7 0;
#X connect 2 1 1 1;
#X connect 2 2 1 0;
#X connect 3 0 6 0;
#X connect 4 0 9 0;
#X connect 5 0 0 0;
#X connect 6 0 0 0;
#X connect 7 0 8 0;
#X connect 8 0 3 0;
#X connect 9 0 2 0;
#X connect 10 0 5 0;
#X connect 12 0 13 0;
#X connect 14 0 15 0;
#X connect 15 0 4 0;
#X connect 16 0 18 0;
#X connect 17 0 16 0;
#X connect 18 0 19 0;
#X connect 19 0 0 0;
#X restore 247 276 pd som;
#X obj 245 413 dac~;
#X obj 247 297 snake~ out 2;
#N canvas -24 14 1143 806 som 0;
#X obj 30 308 else/plaits~ -trigger;
#X obj 142 174 f;
#X obj 25 133 t f f b, f 24;
#X obj 25 248 sel 1;
#X obj 25 97 int;
#X msg 78 251 model 11;
#X obj 25 269 bng 15 250 50 0 empty empty empty 0 -8 0 8 #fcfcfc #000000 #000000;
#X obj 25 198 expr if($f1 > $f2 \, 1 \, 0);
#X obj 25 219 change;
#X obj 25 115 change;
#X msg 131 252 midi \, 67;
#X obj 77 227 loadbang;
#X obj 192 204 nbx 5 14 -1e+37 1e+37 0 0 empty empty empty 0 -8 0 8 #fcfcfc #000000 #000000 0 256;
#X obj 30 329 snake~ in 2;
#X obj 30 350 outlet~;
#X obj 14 48 inlet;
#X obj 14 69 * 100;
#X connect 0 0 13 0;
#X connect 0 1 13 1;
#X connect 1 0 7 1;
#X connect 1 0 12 0;
#X connect 2 0 7 0;
#X connect 2 1 1 1;
#X connect 2 2 1 0;
#X connect 3 0 6 0;
#X connect 4 0 9 0;
#X connect 5 0 0 0;
#X connect 6 0 0 0;
#X connect 7 0 8 0;
#X connect 8 0 3 0;
#X connect 9 0 2 0;
#X connect 10 0 0 0;
#X connect 11 0 5 0;
#X connect 11 0 10 0;
#X connect 13 0 14 0;
#X connect 15 0 16 0;
#X connect 16 0 4 0;
#X restore 330 275 pd som;
#X obj 330 296 snake~ out 2;
#X obj 462 187 unpack f f f f f f f;
#N canvas -24 14 1143 806 som 0;
#X obj 30 308 else/plaits~ -trigger;
#X obj 142 174 f;
#X obj 25 133 t f f b, f 24;
#X obj 25 248 sel 1;
#X obj 25 97 int;
#X msg 78 251 model 11;
#X obj 25 269 bng 15 250 50 0 empty empty empty 0 -8 0 8 #fcfcfc #000000 #000000;
#X obj 25 198 expr if($f1 > $f2 \, 1 \, 0);
#X obj 25 219 change;
#X obj 25 115 change;
#X msg 131 252 midi \, 67;
#X obj 77 227 loadbang;
#X obj 192 204 nbx 5 14 -1e+37 1e+37 0 0 empty empty empty 0 -8 0 8 #fcfcfc #000000 #000000 0 256;
#X obj 30 329 snake~ in 2;
#X obj 30 350 outlet~;
#X obj 14 48 inlet;
#X obj 14 69 * 100;
#X connect 0 0 13 0;
#X connect 0 1 13 1;
#X connect 1 0 7 1;
#X connect 1 0 12 0;
#X connect 2 0 7 0;
#X connect 2 1 1 1;
#X connect 2 2 1 0;
#X connect 3 0 6 0;
#X connect 4 0 9 0;
#X connect 5 0 0 0;
#X connect 6 0 0 0;
#X connect 7 0 8 0;
#X connect 8 0 3 0;
#X connect 9 0 2 0;
#X connect 10 0 0 0;
#X connect 11 0 5 0;
#X connect 11 0 10 0;
#X connect 13 0 14 0;
#X connect 15 0 16 0;
#X connect 16 0 4 0;
#X restore 408 275 pd som;
#X obj 408 296 snake~ out 2;
#N canvas -24 14 1143 806 som 0;
#X obj 30 308 else/plaits~ -trigger;
#X obj 142 174 f;
#X obj 25 133 t f f b, f 24;
#X obj 25 248 sel 1;
#X obj 25 97 int;
#X msg 78 251 model 11;
#X obj 25 269 bng 15 250 50 0 empty empty empty 0 -8 0 8 #fcfcfc #000000 #000000;
#X obj 25 198 expr if($f1 > $f2 \, 1 \, 0);
#X obj 25 219 change;
#X obj 25 115 change;
#X msg 131 252 midi \, 67;
#X obj 77 227 loadbang;
#X obj 192 204 nbx 5 14 -1e+37 1e+37 0 0 empty empty empty 0 -8 0 8 #fcfcfc #000000 #000000 0 256;
#X obj 30 329 snake~ in 2;
#X obj 30 350 outlet~;
#X obj 14 48 inlet;
#X obj 14 69 * 100;
#X connect 0 0 13 0;
#X connect 0 1 13 1;
#X connect 1 0 7 1;
#X connect 1 0 12 0;
#X connect 2 0 7 0;
#X connect 2 1 1 1;
#X connect 2 2 1 0;
#X connect 3 0 6 0;
#X connect 4 0 9 0;
#X connect 5 0 0 0;
#X connect 6 0 0 0;
#X connect 7 0 8 0;
#X connect 8 0 3 0;
#X connect 9 0 2 0;
#X connect 10 0 0 0;
#X connect 11 0 5 0;
#X connect 11 0 10 0;
#X connect 13 0 14 0;
#X connect 15 0 16 0;
#X connect 16 0 4 0;
#X restore 491 274 pd som;
#X obj 491 295 snake~ out 2;
#N canvas -24 14 1143 806 som 0;
#X obj 30 308 else/plaits~ -trigger;
#X obj 142 174 f;
#X obj 25 133 t f f b, f 24;
#X obj 25 248 sel 1;
#X obj 25 97 int;
#X msg 78 251 model 11;
#X obj 25 269 bng 15 250 50 0 empty empty empty 0 -8 0 8 #fcfcfc #000000 #000000;
#X obj 25 198 expr if($f1 > $f2 \, 1 \, 0);
#X obj 25 219 change;
#X obj 25 115 change;
#X msg 131 252 midi \, 67;
#X obj 77 227 loadbang;
#X obj 192 204 nbx 5 14 -1e+37 1e+37 0 0 empty empty empty 0 -8 0 8 #fcfcfc #000000 #000000 0 256;
#X obj 30 329 snake~ in 2;
#X obj 30 350 outlet~;
#X obj 14 48 inlet;
#X obj 14 69 * 100;
#X connect 0 0 13 0;
#X connect 0 1 13 1;
#X connect 1 0 7 1;
#X connect 1 0 12 0;
#X connect 2 0 7 0;
#X connect 2 1 1 1;
#X connect 2 2 1 0;
#X connect 3 0 6 0;
#X connect 4 0 9 0;
#X connect 5 0 0 0;
#X connect 6 0 0 0;
#X connect 7 0 8 0;
#X connect 8 0 3 0;
#X connect 9 0 2 0;
#X connect 10 0 0 0;
#X connect 11 0 5 0;
#X connect 11 0 10 0;
#X connect 13 0 14 0;
#X connect 15 0 16 0;
#X connect 16 0 4 0;
#X restore 561 275 pd som;
#X obj 561 296 snake~ out 2;
#N canvas -24 14 1143 806 som 0;
#X obj 30 308 else/plaits~ -trigger;
#X obj 142 174 f;
#X obj 25 133 t f f b, f 24;
#X obj 25 248 sel 1;
#X obj 25 97 int;
#X msg 78 251 model 11;
#X obj 25 269 bng 15 250 50 0 empty empty empty 0 -8 0 8 #fcfcfc #000000 #000000;
#X obj 25 198 expr if($f1 > $f2 \, 1 \, 0);
#X obj 25 219 change;
#X obj 25 115 change;
#X msg 131 252 midi \, 67;
#X obj 77 227 loadbang;
#X obj 192 204 nbx 5 14 -1e+37 1e+37 0 0 empty empty empty 0 -8 0 8 #fcfcfc #000000 #000000 0 256;
#X obj 30 329 snake~ in 2;
#X obj 30 350 outlet~;
#X obj 14 48 inlet;
#X obj 14 69 * 100;
#X connect 0 0 13 0;
#X connect 0 1 13 1;
#X connect 1 0 7 1;
#X connect 1 0 12 0;
#X connect 2 0 7 0;
#X connect 2 1 1 1;
#X connect 2 2 1 0;
#X connect 3 0 6 0;
#X connect 4 0 9 0;
#X connect 5 0 0 0;
#X connect 6 0 0 0;
#X connect 7 0 8 0;
#X connect 8 0 3 0;
#X connect 9 0 2 0;
#X connect 10 0 0 0;
#X connect 11 0 5 0;
#X connect 11 0 10 0;
#X connect 13 0 14 0;
#X connect 15 0 16 0;
#X connect 16 0 4 0;
#X restore 644 274 pd som;
#X obj 644 295 snake~ out 2;
#N canvas -24 14 1143 806 som 0;
#X obj 30 308 else/plaits~ -trigger;
#X obj 142 174 f;
#X obj 25 133 t f f b, f 24;
#X obj 25 248 sel 1;
#X obj 25 97 int;
#X msg 78 251 model 11;
#X obj 25 269 bng 15 250 50 0 empty empty empty 0 -8 0 8 #fcfcfc #000000 #000000;
#X obj 25 198 expr if($f1 > $f2 \, 1 \, 0);
#X obj 25 219 change;
#X obj 25 115 change;
#X msg 131 252 midi \, 67;
#X obj 77 227 loadbang;
#X obj 192 204 nbx 5 14 -1e+37 1e+37 0 0 empty empty empty 0 -8 0 8 #fcfcfc #000000 #000000 0 256;
#X obj 30 329 snake~ in 2;
#X obj 30 350 outlet~;
#X obj 14 48 inlet;
#X obj 14 69 * 100;
#X connect 0 0 13 0;
#X connect 0 1 13 1;
#X connect 1 0 7 1;
#X connect 1 0 12 0;
#X connect 2 0 7 0;
#X connect 2 1 1 1;
#X connect 2 2 1 0;
#X connect 3 0 6 0;
#X connect 4 0 9 0;
#X connect 5 0 0 0;
#X connect 6 0 0 0;
#X connect 7 0 8 0;
#X connect 8 0 3 0;
#X connect 9 0 2 0;
#X connect 10 0 0 0;
#X connect 11 0 5 0;
#X connect 11 0 10 0;
#X connect 13 0 14 0;
#X connect 15 0 16 0;
#X connect 16 0 4 0;
#X restore 714 273 pd som;
#X obj 714 294 snake~ out 2;
#X connect 0 0 7 0;
#X connect 1 0 3 0;
#X connect 1 1 2 0;
#X connect 6 0 7 0;
#X connect 7 0 1 0;
#X connect 8 0 10 0;
#X connect 9 0 16 0;
#X connect 10 0 9 0;
#X connect 11 0 13 0;
#X connect 13 0 12 0;
#X connect 13 1 12 1;
#X connect 14 0 15 0;
#X connect 15 0 12 0;
#X connect 15 1 12 1;
#X connect 16 0 11 0;
#X connect 16 1 14 0;
#X connect 16 2 17 0;
#X connect 16 3 19 0;
#X connect 16 4 21 0;
#X connect 16 5 23 0;
#X connect 16 6 25 0;
#X connect 17 0 18 0;
#X connect 18 0 12 0;
#X connect 18 1 12 1;
#X connect 19 0 20 0;
#X connect 20 0 12 0;
#X connect 20 1 12 1;
#X connect 21 0 22 0;
#X connect 22 0 12 0;
#X connect 22 1 12 1;
#X connect 23 0 24 0;
#X connect 24 0 12 0;
#X connect 24 1 12 1;
#X connect 25 0 26 0;
#X connect 26 0 12 0;
#X connect 26 1 12 1;
