#N canvas 447 -9 1190 959 8;
#X obj 164 145 readsf~;
#X msg 164 124 open CTp-stacc-C5-mf.aif \, 1;
#X obj 93 15 bng 15 250 50 0 empty empty empty 0 -8 0 8 #fcfcfc #000000 #000000;
#X obj 93 60 t b b b;
#X msg 222 58 size 160 \, decay 5.85 \, damp 0.41 \, bw 0.69 \, dry 0.7 \, early 0.15 \, late 0.6, f 28;
#X text 268 148 resonant/cutoff frequency;
#X obj 181 454 dac~, f 14;
#X obj 97 224 *~;
#X obj 109 147 line~;
#X msg 109 124 0 \, 1 1000;
#X obj 92 314 * 11;
#X obj 181 426 else/giga.rev~;
#X msg 218 390 size 143 \, decay 7 \, damp 0.71 \, bw 0.34 \, dry 0.7 \, early 0.28 \, late 0.35, f 69;
#X obj 133 182 *~ 4;
#X obj 240 304 * 7;
#X obj 303 238 unpack f f;
#X msg 223 243 522;
#X msg 224 162 2 3;
#X msg 233 179 3 4;
#X msg 243 196 7 11;
#X obj 223 215 t b a;
#X obj 456 198 bp~, f 10;
#X obj 33 361 bp~, f 24;
#X obj 181 359 bp~, f 24;
#X msg 298 337 0.1;
#X msg 150 338 0.1;
#X connect 0 0 13 0;
#X connect 1 0 0 0;
#X connect 2 0 3 0;
#X connect 3 1 9 0;
#X connect 3 2 1 0;
#X connect 7 0 22 0;
#X connect 7 0 23 0;
#X connect 8 0 7 1;
#X connect 9 0 8 0;
#X connect 10 0 22 1;
#X connect 11 0 6 0;
#X connect 11 1 6 1;
#X connect 12 0 11 0;
#X connect 13 0 7 0;
#X connect 14 0 23 1;
#X connect 15 0 10 1;
#X connect 15 1 14 1;
#X connect 16 0 10 0;
#X connect 16 0 14 0;
#X connect 17 0 20 0;
#X connect 18 0 20 0;
#X connect 19 0 20 0;
#X connect 20 0 16 0;
#X connect 20 1 15 0;
#X connect 22 0 11 0;
#X connect 23 0 11 0;
#X connect 24 0 23 2;
#X connect 25 0 22 2;
