#N canvas 963 28 200 200 10;
#X obj 8 3 vu 18 120 r-vu empty -1 -9 0 10 #404040 #000000 0 0;
#X obj 36 273 dac~, f 6;
#N canvas 329 161 625 417 vu 0;
#X obj 59 129 env~ 1024;
#X obj 161 111 abs~;
#X obj 161 213 snapshot~;
#X obj 161 256 rmstodb;
#X obj 161 21 inlet~;
#X obj 161 288 - 100;
#X obj 59 287 - 100;
#X obj 59 361 outlet;
#X obj 161 361 outlet;
#X text 344 307 Check the help file of env~ and slop~ for more details., f 31;
#X obj 239 89 expr 1000 / $f1;
#X floatatom 239 117 5 0 0 0 - - - 0;
#X obj 161 146 slop~ 0 0 0 0 1e+09;
#X obj 239 18 inlet;
#X floatatom 239 57 5 0 0 0 - - - 0;
#X text 359 89 convert to hz;
#X text 282 118 hz;
#X text 284 57 peak decay time in ms;
#X obj 59 171 t f b;
#X text 345 132 The env~ object is dedicated to RMS analysis. Its output is in dB (0-100 range \, pd style) but needs to be converted to dBFS (and we do that by simply subtracting 100)., f 31;
#X text 345 225 The slop~ object is used here for peak detection. We need to convert the output to dB with rmstodb and also subtract by 100 to convert it to dBFS., f 31;
#X connect 0 0 18 0;
#X connect 1 0 12 0;
#X connect 2 0 3 0;
#X connect 3 0 5 0;
#X connect 4 0 0 0;
#X connect 4 0 1 0;
#X connect 5 0 8 0;
#X connect 6 0 7 0;
#X connect 10 0 11 0;
#X connect 11 0 12 3;
#X connect 12 0 2 0;
#X connect 13 0 14 0;
#X connect 14 0 10 0;
#X connect 18 0 6 0;
#X connect 18 1 2 0;
#X restore 93 236 pd vu;
#X obj 93 258 s r-vu;
#X obj 36 3 bng 25 250 50 0 t1-s t1-r empty 0 -9 0 10 #fcfcfc #000000 #000000;
#X obj 157 134 loadbang;
#X msg 157 171 trigger 1;
#X obj 36 171 pack f f;
#X obj 36 110 expr random(60 \, 81);
#X text 66 7 Play;
#X msg 224 170 model 11;
#X obj 36 196 else/plaits~ -midi;
#X obj 36 149 makenote 100 300;
#X obj 36 87 r t1-s;
#X text 34 32 Soon a better GUI for this.;
#X connect 2 0 3 0;
#X connect 5 0 6 0;
#X connect 5 0 10 0;
#X connect 6 0 11 0;
#X connect 7 0 11 0;
#X connect 8 0 12 0;
#X connect 10 0 11 0;
#X connect 11 0 1 0;
#X connect 11 0 2 0;
#X connect 11 1 1 1;
#X connect 12 0 7 0;
#X connect 12 1 7 1;
#X connect 13 0 8 0;
