#N canvas 4 21 1912 1020 10;
#X obj 173 372 s poem-phrase;
#X obj 533 7 r naipe;
#X obj 6 101 s composer;
#X obj 533 30 sel 1 2 3 4, f 30;
#X obj 15 443 s pitch-syl;
#X obj 6 61 list;
#X msg 6 37 Charles K. Neimog;
#X obj 6 4 loadbang;
#X text 61 376 <Pitch> <Silaba>;
#X obj 4 195 line, f 10;
#X obj 4 151 loadbang;
#X obj 4 217 s duration-bar;
#X obj 173 300 sel 40 80, f 22;
#X msg 173 323 Template;
#X obj 173 351 list;
#X msg 4 174 0 \, 100 6000;
#X obj 173 248 int;
#X obj 173 270 change;
#X msg 238 323 number 4;
#X obj 119 61 list;
#X obj 119 4 loadbang;
#X obj 119 101 s title;
#X msg 119 37 Template 4;
#X obj 434 73 s piece-duration-bar;
#X obj 434 52 line, f 10;
#X obj 434 8 loadbang;
#X msg 434 31 0 \, 100 60000;
#X msg 15 377 C4 pao;
#X obj 15 399 list;
#X connect 1 0 3 0;
#X connect 5 0 2 0;
#X connect 6 0 5 0;
#X connect 7 0 6 0;
#X connect 9 0 11 0;
#X connect 9 0 16 0;
#X connect 10 0 15 0;
#X connect 12 0 13 0;
#X connect 12 0 27 0;
#X connect 12 1 18 0;
#X connect 13 0 14 0;
#X connect 14 0 0 0;
#X connect 15 0 9 0;
#X connect 16 0 17 0;
#X connect 17 0 12 0;
#X connect 18 0 14 0;
#X connect 19 0 21 0;
#X connect 20 0 22 0;
#X connect 22 0 19 0;
#X connect 24 0 23 0;
#X connect 25 0 26 0;
#X connect 26 0 24 0;
#X connect 27 0 28 0;
#X connect 28 0 4 0;
