#N canvas 466 107 1244 835 8;
#X obj 5 2 inlet;
#X obj 5 178 change;
#X obj 5 110 t f f b, f 24;
#X obj 5 158 expr if($f1 > $f2 \, 1 \, 0);
#X obj 122 137 int;
#X obj 5 44 expr round($f1);
#X obj 5 233 else/nmess 1;
#X obj 5 199 b;
#X obj 62 185 loadbang;
#X obj 138 179 bng 15 250 50 0 empty empty empty 0 -8 0 8 #fcfcfc #000000 #000000;
#X obj 62 210 metro 200;
#X obj 270 41 else/args;
#X obj 270 22 loadbang;
#X obj 270 98 soundfiler;
#X obj 465 20 array define slap-\$0;
#X obj 270 62 list append slap-\$0;
#X msg 270 80 read -resize \$1 \$2;
#X obj 5 378 outlet~;
#X obj 5 330 clone 4 clone-tabplay;
#X obj 317 119 bng 15 250 50 0 empty empty empty 0 -8 0 8 #fcfcfc #000000 #000000;
#X obj 317 139 symbol slap-\$0;
#X msg 317 160 all set \$1;
#X msg 5 254 next bang;
#X obj 5 351 *~ 1;
#X connect 0 0 5 0;
#X connect 1 0 7 0;
#X connect 2 0 3 0;
#X connect 2 1 4 1;
#X connect 2 2 4 0;
#X connect 3 0 1 0;
#X connect 4 0 3 1;
#X connect 5 0 2 0;
#X connect 6 0 22 0;
#X connect 7 0 6 0;
#X connect 8 0 10 0;
#X connect 9 0 10 0;
#X connect 10 0 6 1;
#X connect 11 0 15 0;
#X connect 12 0 11 0;
#X connect 13 1 19 0;
#X connect 15 0 16 0;
#X connect 16 0 13 0;
#X connect 18 0 23 0;
#X connect 19 0 20 0;
#X connect 20 0 21 0;
#X connect 21 0 18 0;
#X connect 22 0 18 0;
#X connect 23 0 17 0;
