#N canvas 0 32 1920 977 8;
#X obj 122 130 f;
#X obj 5 226 sel 1;
#X obj 5 53 int;
#X msg 58 237 model 11;
#X obj 5 184 expr if($f1 > $f2 \, 1 \, 0);
#X obj 5 205 change;
#X obj 5 71 change;
#X obj 57 213 loadbang;
#X obj 5 463 outlet~;
#X obj 5 4 inlet;
#X obj 202 11 loadbang;
#X obj 207 176 expr if($f1 < $f2 \, 1 \, 0);
#X obj 365 43 loadbang;
#X obj 202 221 sel 1;
#X obj 205 272 bng 15 250 50 0 empty empty empty 0 -8 0 8 #fcfcfc #000000 #000000;
#X obj 202 202 change;
#X obj 5 328 +~;
#X obj 5 89 t f f b, f 24;
#X obj 5 355 +~;
#X obj 211 335 +~;
#X obj 5 437 earplug~;
#X obj 47 463 outlet~;
#X obj 377 434 % 360;
#X obj 377 329 int, f 19;
#X obj 377 242 bng 15 250 50 0 empty empty empty 0 -8 0 8 #fcfcfc #000000 #000000;
#X obj 377 394 t f f;
#X obj 377 415 nbx 5 14 -1e+37 1e+37 0 0 empty empty empty 0 -8 0 8 #fcfcfc #000000 #000000 0 256;
#X obj 492 140 loadbang;
#X obj 5 25 * 100000;
#X obj 377 455 nbx 5 14 -1e+37 1e+37 0 0 empty empty empty 0 -8 0 8 #fcfcfc #000000 #000000 0 256;
#X obj 5 376 *~ 0.1;
#X obj 434 184 random 32;
#X obj 434 205 - 16;
#X obj 464 88 metro;
#X obj 494 32 random 20000;
#X obj 494 53 + 20000;
#X obj 447 12 loadbang;
#X obj 464 109 bng 15 250 50 0 empty empty empty 0 -8 0 8 #fcfcfc #000000 #000000;
#X obj 506 5 bng 15 250 50 0 empty empty empty 0 -8 0 8 #fcfcfc #000000 #000000;
#X obj 365 106 * 0.01;
#X obj 365 85 + 6000;
#X obj 365 64 random 2400;
#X obj 202 68 random 3200;
#X obj 201 110 * 0.01;
#X obj 201 89 + 6000;
#X obj 570 408 s harmonics-\$0;
#X obj 585 45 random 100, f 16;
#X obj 585 66 * 0.01;
#X msg 573 372 harmonics \$1;
#X obj 585 26 bng 15 250 50 0 empty empty empty 0 -8 0 8 #fcfcfc #000000 #000000;
#X obj 573 310 line, f 13;
#X obj 688 44 random 100, f 16;
#X obj 688 87 * 0.01;
#X obj 688 25 bng 15 250 50 0 empty empty empty 0 -8 0 8 #fcfcfc #000000 #000000;
#X msg 671 202 timbre \$1;
#X obj 671 228 s timbre-\$0;
#X obj 270 245 r timbre-\$0;
#X obj 291 265 r harmonics-\$0;
#X obj 377 373 expr $f1 + $f2;
#X obj 791 51 random 100, f 16;
#X obj 791 72 * 0.01;
#X obj 791 32 bng 15 250 50 0 empty empty empty 0 -8 0 8 #fcfcfc #000000 #000000;
#X obj 835 205 s morph-\$0;
#X msg 835 186 morph \$1;
#X obj 302 290 r morph-\$0;
#X msg 707 397 decay \$1;
#X obj 707 419 s decay-\$0;
#X obj 384 263 r decay-\$0;
#X obj 439 64 bng 15 250 50 0 empty empty empty 0 -8 0 8 #fcfcfc #000000 #000000;
#X obj 573 156 list;
#X obj 556 98 inlet;
#X obj 671 126 list;
#X obj 671 178 line, f 13;
#X msg 573 293 \$2 \$1;
#X msg 671 146 \$2 \$1;
#X obj 835 128 list;
#X obj 835 166 line, f 13;
#X msg 835 148 \$2 \$1;
#X obj 707 294 list;
#X obj 707 334 line, f 13;
#X msg 707 314 \$2 \$1;
#X obj 768 240 random 100, f 16;
#X obj 768 261 * 0.01;
#X obj 768 221 bng 15 250 50 0 empty empty empty 0 -8 0 8 #fcfcfc #000000 #000000;
#X obj 532 119 bng 15 250 50 0 empty empty empty 0 -8 0 8 #fcfcfc #000000 #000000;
#X obj 492 428 switch~;
#X obj 489 185 loadbang;
#X obj 489 295 del 1000 1 msec;
#X obj 491 324 tgl 15 0 empty empty empty 0 -8 0 8 #fcfcfc #000000 #000000 0 1;
#X obj 489 206 t b b;
#X obj 530 241 random 20000;
#X obj 530 262 + 1000;
#X obj 211 314 else/plaits~ -trigger -midi;
#X obj 5 301 else/plaits~ -trigger -midi;
#X obj 53 268 f;
#X obj 3 247 t b b b;
#X obj 355 195 f;
#X obj 202 239 t b b;
#X connect 0 0 4 1;
#X connect 0 0 11 1;
#X connect 1 0 95 0;
#X connect 2 0 6 0;
#X connect 3 0 92 0;
#X connect 3 0 93 0;
#X connect 4 0 5 0;
#X connect 5 0 1 0;
#X connect 6 0 17 0;
#X connect 7 0 3 0;
#X connect 9 0 28 0;
#X connect 10 0 42 0;
#X connect 11 0 15 0;
#X connect 12 0 41 0;
#X connect 13 0 97 0;
#X connect 14 0 24 0;
#X connect 14 0 92 0;
#X connect 15 0 13 0;
#X connect 16 0 18 0;
#X connect 17 0 4 0;
#X connect 17 0 11 0;
#X connect 17 1 0 1;
#X connect 17 2 0 0;
#X connect 18 0 30 0;
#X connect 19 0 18 1;
#X connect 20 0 8 0;
#X connect 20 1 21 0;
#X connect 22 0 20 1;
#X connect 22 0 29 0;
#X connect 23 0 58 0;
#X connect 24 0 23 0;
#X connect 25 0 26 0;
#X connect 25 1 23 1;
#X connect 26 0 22 0;
#X connect 27 0 31 0;
#X connect 28 0 2 0;
#X connect 30 0 20 0;
#X connect 31 0 32 0;
#X connect 32 0 58 1;
#X connect 33 0 37 0;
#X connect 33 0 49 0;
#X connect 33 0 53 0;
#X connect 33 0 61 0;
#X connect 33 0 83 0;
#X connect 34 0 35 0;
#X connect 35 0 33 1;
#X connect 36 0 33 0;
#X connect 36 0 34 0;
#X connect 37 0 41 0;
#X connect 37 0 31 0;
#X connect 38 0 34 0;
#X connect 39 0 96 1;
#X connect 40 0 39 0;
#X connect 41 0 40 0;
#X connect 42 0 44 0;
#X connect 43 0 94 1;
#X connect 44 0 43 0;
#X connect 46 0 47 0;
#X connect 47 0 69 1;
#X connect 48 0 45 0;
#X connect 49 0 46 0;
#X connect 50 0 48 0;
#X connect 51 0 52 0;
#X connect 52 0 71 1;
#X connect 53 0 51 0;
#X connect 54 0 55 0;
#X connect 56 0 92 0;
#X connect 56 0 93 0;
#X connect 57 0 92 0;
#X connect 57 0 93 0;
#X connect 58 0 25 0;
#X connect 59 0 60 0;
#X connect 60 0 75 1;
#X connect 61 0 59 0;
#X connect 63 0 62 0;
#X connect 64 0 92 0;
#X connect 64 0 93 0;
#X connect 65 0 66 0;
#X connect 67 0 92 0;
#X connect 67 0 93 0;
#X connect 68 0 33 0;
#X connect 69 0 73 0;
#X connect 70 0 69 0;
#X connect 70 0 71 0;
#X connect 70 0 75 0;
#X connect 70 0 78 0;
#X connect 70 0 84 0;
#X connect 71 0 74 0;
#X connect 72 0 54 0;
#X connect 73 0 50 0;
#X connect 74 0 72 0;
#X connect 75 0 77 0;
#X connect 76 0 63 0;
#X connect 77 0 76 0;
#X connect 78 0 80 0;
#X connect 79 0 65 0;
#X connect 80 0 79 0;
#X connect 81 0 82 0;
#X connect 82 0 78 1;
#X connect 83 0 81 0;
#X connect 84 0 41 0;
#X connect 84 0 42 0;
#X connect 86 0 89 0;
#X connect 87 0 88 0;
#X connect 88 0 85 0;
#X connect 89 0 87 0;
#X connect 89 1 90 0;
#X connect 90 0 91 0;
#X connect 91 0 87 1;
#X connect 92 0 19 0;
#X connect 92 1 19 1;
#X connect 93 0 16 0;
#X connect 93 1 16 1;
#X connect 94 0 93 0;
#X connect 95 0 93 0;
#X connect 95 1 24 0;
#X connect 95 2 94 0;
#X connect 96 0 92 0;
#X connect 97 0 14 0;
#X connect 97 1 96 0;
