#N canvas 12 44 941 996 10;
#X obj 43 39 r receiver;
#X obj 43 127 print;
#X obj 99 90 cyclone/zl len;
#X obj 99 113 nbx 5 16 -1e+37 1e+37 0 0 empty empty empty 0 -9 0 10 #fcfcfc #000000 #000000 0 256;
#X obj 99 134 print received;
#X connect 0 0 1 0;
#X connect 0 0 2 0;
#X connect 2 0 3 0;
#X connect 3 0 4 0;
