#N canvas 0 0 925 1129 10;
#X declare -path Gui;
#X obj 7 5 pdlua;
#X obj 45 5 declare -path Gui;
#X obj 9 71 l.bng 18 250 50 0 empty empty empty 0 -9 0 10 #fcfcfc #000000 #000000;
#X obj 9 51 nbx 5 16 -1e+37 1e+37 0 0 empty empty empty 0 -9 0 10 #fcfcfc #000000 #000000 0 256;
#X obj 9 94 print;
#X obj 98 75 l.nbx;
#X obj 99 48 nbx 5 16 -1e+37 1e+37 0 0 empty empty empty 0 -9 0 10 #fcfcfc #000000 #000000 0 256;
#X obj 98 96 print;
#X obj 235 116 l.nbx;
#X obj 148 140 nbx 5 16 -1e+37 1e+37 0 0 empty empty empty 0 -9 0 10 #fcfcfc #000000 #000000 0 256;
#X obj 148 161 print;
#X obj 235 137 print;
#X msg 170 13 symbol 439;
#X msg 220 51 20020 3892 3892 4892;
#X msg 291 79 reload;
#X obj 254 263 hradio 18 1 0 8 empty empty empty 0 -9 0 10 #fcfcfc #000000 #000000 0;
#X obj 254 286 print;
#X obj 34 144 l.vradio;
#X obj 34 293 print;
#X msg 67 124 reload;
#X connect 2 0 4 0;
#X connect 3 0 2 0;
#X connect 5 0 7 0;
#X connect 6 0 5 0;
#X connect 8 0 11 0;
#X connect 9 0 10 0;
#X connect 12 0 9 0;
#X connect 12 0 8 0;
#X connect 13 0 8 0;
#X connect 13 0 9 0;
#X connect 14 0 8 0;
#X connect 15 0 16 0;
#X connect 17 0 18 0;
#X connect 19 0 17 0;
#X coords 0 -1 1 1 510 350 1 1 1;
