#N canvas 965 30 938 1001 10;
#X declare -lib pdlua;
#X declare -path Gui;
#X obj 123 465 declare -lib pdlua;
#X obj 171 589 dac~;
#X obj 8 522 notein, f 10;
#X obj 39 693 line~;
#X obj 39 673 / 127;
#X obj 8 694 osc~;
#X obj 8 672 mtof;
#X obj 8 715 *~;
#X obj 8 580 poly 4 1, f 21;
#X obj 8 624 route 1 2 3 4, f 38;
#X obj 8 602 pack f f f, f 21;
#X obj 8 651 unpack f f;
#X obj 112 693 line~;
#X obj 112 673 / 127;
#X obj 81 694 osc~;
#X obj 81 672 mtof;
#X obj 81 715 *~;
#X obj 81 651 unpack f f;
#X obj 184 693 line~;
#X obj 184 673 / 127;
#X obj 153 694 osc~;
#X obj 153 672 mtof;
#X obj 154 715 *~;
#X obj 153 651 unpack f f;
#X obj 254 693 line~;
#X obj 254 673 / 127;
#X obj 223 694 osc~;
#X obj 223 672 mtof;
#X obj 224 715 *~;
#X obj 223 651 unpack f f;
#X obj 8 745 *~ 0.25;
#X obj 8 768 dac~;
#X text 7 499 MIDI;
#X obj 243 465 pdlua;
#X obj 4 278 Gui/l.keyboard;
#X obj 280 465 declare -path Gui;
#X obj 5 227 l.hsl;
#X obj 4 249 l.hradio;
#X obj 100 3 saf.panning;
#X obj 3 3 l.tgl 45 0 empty empty empty 0 -9 0 10 #ffc7c6 #000000 #000000 0 1;
#X obj 52 3 l.tgl 45 0 empty empty empty 0 -9 0 10 #feffc6 #000000 #000000 0 1;
#X obj 3 52 l.bng 45 250 50 0 empty empty empty 0 -9 0 10 #c6ffc7 #000000 #000000;
#X obj 52 52 l.bng 45 250 50 0 empty empty empty 0 -9 0 10 #c6feff #000000 #000000;
#X obj 124 533 *~;
#X obj 215 505 osc~ 330;
#X obj 124 511 *~ 0.1;
#X obj 577 70 osc~ 100;
#X obj 637 70 osc~ 200;
#X obj 697 70 osc~ 300;
#X obj 757 70 osc~ 400;
#X obj 817 70 osc~ 500;
#X obj 592 49 osc~ 0.1;
#X obj 652 49 osc~ 0.2;
#X obj 712 49 osc~ 0.3;
#X obj 772 49 osc~ 0.4;
#X obj 832 49 osc~ 0.5;
#X obj 577 151 snake~ in 5;
#X obj 577 91 *~;
#X obj 637 91 *~;
#X obj 697 91 *~;
#X obj 757 91 *~;
#X obj 817 91 *~;
#X obj 306 4 show~;
#X obj 303 203 show~;
#X obj 577 183 *~ 0.2;
#X connect 2 0 8 0;
#X connect 2 1 8 1;
#X connect 3 0 7 1;
#X connect 4 0 3 0;
#X connect 5 0 7 0;
#X connect 6 0 5 0;
#X connect 7 0 30 0;
#X connect 8 0 10 0;
#X connect 8 1 10 1;
#X connect 8 2 10 2;
#X connect 9 0 11 0;
#X connect 9 1 17 0;
#X connect 9 2 23 0;
#X connect 9 3 29 0;
#X connect 10 0 9 0;
#X connect 11 0 6 0;
#X connect 11 1 4 0;
#X connect 12 0 16 1;
#X connect 13 0 12 0;
#X connect 14 0 16 0;
#X connect 15 0 14 0;
#X connect 16 0 30 0;
#X connect 17 0 15 0;
#X connect 17 1 13 0;
#X connect 18 0 22 1;
#X connect 19 0 18 0;
#X connect 20 0 22 0;
#X connect 21 0 20 0;
#X connect 22 0 30 0;
#X connect 23 0 21 0;
#X connect 23 1 19 0;
#X connect 24 0 28 1;
#X connect 25 0 24 0;
#X connect 26 0 28 0;
#X connect 27 0 26 0;
#X connect 28 0 30 0;
#X connect 29 0 27 0;
#X connect 29 1 25 0;
#X connect 30 0 31 0;
#X connect 30 0 31 1;
#X connect 39 0 43 1;
#X connect 43 0 1 0;
#X connect 43 0 1 1;
#X connect 44 0 45 0;
#X connect 45 0 43 0;
#X connect 46 0 57 0;
#X connect 47 0 58 0;
#X connect 48 0 59 0;
#X connect 49 0 60 0;
#X connect 50 0 61 0;
#X connect 51 0 57 1;
#X connect 52 0 58 1;
#X connect 53 0 59 1;
#X connect 54 0 60 1;
#X connect 55 0 61 1;
#X connect 56 0 62 0;
#X connect 56 0 64 0;
#X connect 57 0 56 0;
#X connect 58 0 56 1;
#X connect 59 0 56 2;
#X connect 60 0 56 3;
#X connect 61 0 56 4;
#X connect 64 0 63 0;
#X coords 0 -1 1 1 510 350 1 1 1;
