#N canvas 965 30 938 1001 10;
#X declare -lib pdlua;
#X declare -path Gui;
#X obj 4 5 declare -lib pdlua;
#X obj 5 30 adc~ 1;
#X obj 5 53 *~ 0.01;
#X obj 5 75 dac~;
#X obj 437 50 notein, f 10;
#X obj 468 221 line~;
#X obj 468 201 / 127;
#X obj 437 222 osc~;
#X obj 437 200 mtof;
#X obj 437 243 *~;
#X obj 437 108 poly 4 1, f 21;
#X obj 437 152 route 1 2 3 4, f 38;
#X obj 437 130 pack f f f, f 21;
#X obj 437 179 unpack f f;
#X obj 541 221 line~;
#X obj 541 201 / 127;
#X obj 510 222 osc~;
#X obj 510 200 mtof;
#X obj 510 243 *~;
#X obj 510 179 unpack f f;
#X obj 613 221 line~;
#X obj 613 201 / 127;
#X obj 582 222 osc~;
#X obj 582 200 mtof;
#X obj 583 243 *~;
#X obj 582 179 unpack f f;
#X obj 683 221 line~;
#X obj 683 201 / 127;
#X obj 652 222 osc~;
#X obj 652 200 mtof;
#X obj 653 243 *~;
#X obj 652 179 unpack f f;
#X obj 437 273 *~ 0.25;
#X obj 437 296 dac~;
#X text 436 27 MIDI;
#X obj 124 5 pdlua;
#X obj 5 227 Gui/l.keyboard;
#X obj 161 5 declare -path Gui;
#X obj 64 35 l.bng 18 250 50 0 empty empty empty 0 -9 0 10 #fcfcfc #000000 #000000;
#X obj 324 7 l.vradio;
#X obj 302 7 l.vsl 18 153 0 127 0 0 empty empty empty -2 -9 0 10 #fcfcfc #000000 #000000 0 1;
#X obj 7 154 l.hsl;
#X obj 7 175 l.hradio;
#X obj 110 35 nbx 5 16 -1e+37 1e+37 0 0 empty empty empty 0 -9 0 10 #fcfcfc #000000 #000000 0 256;
#X msg 252 47 reload;
#X obj 252 107 l.vu 18 160 empty empty -1 -9 0 10 #404040 #000000 1 0;
#X obj 187 71 nbx 5 16 -1e+37 1e+37 0 0 empty empty empty 0 -9 0 10 #fcfcfc #000000 #000000 0 256;
#X obj 92 75 osc~ 0.3;
#X obj 92 97 env~;
#X obj 92 119 - 100;
#X obj 302 165 loadbang;
#X obj 302 185 metro 500;
#X connect 1 0 2 0;
#X connect 2 0 3 0;
#X connect 2 0 3 1;
#X connect 4 0 10 0;
#X connect 4 1 10 1;
#X connect 5 0 9 1;
#X connect 6 0 5 0;
#X connect 7 0 9 0;
#X connect 8 0 7 0;
#X connect 9 0 32 0;
#X connect 10 0 12 0;
#X connect 10 1 12 1;
#X connect 10 2 12 2;
#X connect 11 0 13 0;
#X connect 11 1 19 0;
#X connect 11 2 25 0;
#X connect 11 3 31 0;
#X connect 12 0 11 0;
#X connect 13 0 8 0;
#X connect 13 1 6 0;
#X connect 14 0 18 1;
#X connect 15 0 14 0;
#X connect 16 0 18 0;
#X connect 17 0 16 0;
#X connect 18 0 32 0;
#X connect 19 0 17 0;
#X connect 19 1 15 0;
#X connect 20 0 24 1;
#X connect 21 0 20 0;
#X connect 22 0 24 0;
#X connect 23 0 22 0;
#X connect 24 0 32 0;
#X connect 25 0 23 0;
#X connect 25 1 21 0;
#X connect 26 0 30 1;
#X connect 27 0 26 0;
#X connect 28 0 30 0;
#X connect 29 0 28 0;
#X connect 30 0 32 0;
#X connect 31 0 29 0;
#X connect 31 1 27 0;
#X connect 32 0 33 0;
#X connect 32 0 33 1;
#X connect 44 0 45 0;
#X connect 46 0 45 0;
#X connect 47 0 48 0;
#X connect 48 0 49 0;
#X connect 49 0 45 0;
#X connect 50 0 51 0;
#X coords 0 -1 1 1 400 300 1 1 1;
