#N canvas 0 0 1259 1005 10;
#X declare -lib pdlua;
#X declare -path Gui;
#X obj 123 465 declare -lib pdlua;
#X obj 273 601 dac~;
#X obj 8 522 notein, f 10;
#X obj 39 693 line~;
#X obj 39 673 / 127;
#X obj 8 694 osc~;
#X obj 8 672 mtof;
#X obj 8 715 *~;
#X obj 8 580 poly 4 1, f 21;
#X obj 8 624 route 1 2 3 4, f 38;
#X obj 8 602 pack f f f, f 21;
#X obj 8 651 unpack f f;
#X obj 112 693 line~;
#X obj 112 673 / 127;
#X obj 81 694 osc~;
#X obj 81 672 mtof;
#X obj 81 715 *~;
#X obj 81 651 unpack f f;
#X obj 184 693 line~;
#X obj 184 673 / 127;
#X obj 153 694 osc~;
#X obj 153 672 mtof;
#X obj 154 715 *~;
#X obj 153 651 unpack f f;
#X obj 254 693 line~;
#X obj 254 673 / 127;
#X obj 223 694 osc~;
#X obj 223 672 mtof;
#X obj 224 715 *~;
#X obj 223 651 unpack f f;
#X obj 8 745 *~ 0.25;
#X obj 8 768 dac~;
#X text 7 499 MIDI;
#X obj 243 465 pdlua;
#X obj 4 278 Gui/l.keyboard;
#X obj 280 465 declare -path Gui;
#X obj 4 249 l.hradio;
#X obj 305 149 saf.panning -plan_size 200 -sources_size 3 -fig_size 200;
#X obj 5 198 l.tgl 45 0 empty empty empty 0 -9 0 10 #ffc7c6 #000000 #000000 0 1;
#X obj 54 198 l.bng 45 250 50 0 empty empty empty 0 -9 0 10 #c6feff #000000 #000000;
#X obj 124 533 *~;
#X obj 164 435 osc~ 330;
#X obj 124 511 *~ 0.1;
#X obj 305 5 show~ -width 152 -interval 0.01;
#X obj 564 190 *~ 0.2;
#N canvas 965 553 941 481 POSITIONS 0;
#X msg 3 191 source 1 \$1 \$2;
#X text 361 189 source <source_index> <azi> <ele>;
#X obj 3 170 list;
#X obj 3 93 nbx 5 16 -180 180 0 0 empty empty empty 0 -9 0 10 #fcfcfc #000000 #000000 0 256;
#X obj 24 147 nbx 5 16 -90 90 0 1 empty empty empty 0 -9 0 10 #fcfcfc #000000 #000000 -192 256;
#N canvas 1442 550 472 489 (subpatch) 0;
#X obj 11 51 tgl 28 0 empty empty empty 0 -9 0 10 #fcfcfc #000000 #000000 0 1;
#X obj 11 106 int;
#X obj 11 128 + 1;
#X obj 11 150 % 360;
#X obj 11 172 - 180;
#X obj 11 194 outlet;
#X obj 11 24 inlet;
#X obj 11 84 metro 50;
#X connect 0 0 7 0;
#X connect 1 0 2 0;
#X connect 2 0 1 1;
#X connect 2 0 3 0;
#X connect 3 0 4 0;
#X connect 4 0 5 0;
#X connect 6 0 0 0;
#X connect 7 0 1 0;
#X coords 0 -1 1 1 30 30 1 10 50;
#X restore 3 59 pd;
#X obj 3 253 s enc;
#X obj 111 198 list;
#X obj 111 124 nbx 5 16 -180 180 0 0 empty empty empty 0 -9 0 10 #fcfcfc #000000 #000000 0 256;
#X obj 132 175 nbx 5 16 -90 90 0 1 empty empty empty 0 -9 0 10 #fcfcfc #000000 #000000 50 256;
#X obj 111 252 s enc;
#X msg 111 221 source 2 \$1 \$2;
#X obj 3 40 loadbang;
#N canvas 1442 550 472 489 (subpatch) 0;
#X obj 11 51 tgl 28 0 empty empty empty 0 -9 0 10 #fcfcfc #000000 #000000 0 1;
#X obj 11 106 int;
#X obj 11 128 + 1;
#X obj 11 173 % 360;
#X obj 11 153 - 180;
#X obj 11 216 outlet;
#X obj 11 24 inlet;
#X obj 11 195 - 180;
#X obj 11 84 metro 33;
#X connect 0 0 8 0;
#X connect 1 0 2 0;
#X connect 2 0 1 1;
#X connect 2 0 4 0;
#X connect 3 0 7 0;
#X connect 4 0 3 0;
#X connect 6 0 0 0;
#X connect 7 0 5 0;
#X connect 8 0 1 0;
#X coords 0 -1 1 1 30 30 1 10 50;
#X restore 111 90 pd;
#X obj 111 60 loadbang;
#X obj 239 114 nbx 5 16 -180 180 0 0 empty empty empty 0 -9 0 10 #fcfcfc #000000 #000000 0 256;
#N canvas 1442 550 472 489 (subpatch) 0;
#X obj 11 51 tgl 28 0 empty empty empty 0 -9 0 10 #fcfcfc #000000 #000000 0 1;
#X obj 11 106 int;
#X obj 11 128 + 1;
#X obj 11 173 % 360;
#X obj 11 153 - 180;
#X obj 11 216 outlet;
#X obj 11 24 inlet;
#X obj 11 195 - 180;
#X obj 11 84 metro 100;
#X connect 0 0 8 0;
#X connect 1 0 2 0;
#X connect 2 0 1 1;
#X connect 2 0 4 0;
#X connect 3 0 7 0;
#X connect 4 0 3 0;
#X connect 6 0 0 0;
#X connect 7 0 5 0;
#X connect 8 0 1 0;
#X coords 0 -1 1 1 30 30 1 10 50;
#X restore 239 80 pd;
#X obj 239 59 loadbang;
#X obj 238 240 s enc;
#X obj 239 187 pack f f f;
#X msg 261 156 0;
#X msg 238 217 source 3 \$1 \$2 \$3;
#X obj 296 135 expr abs($f1 / 360);
#X obj 177 90 loadbang;
#X obj 111 145 - 360;
#X obj 111 167 abs;
#X msg 177 112 50;
#X obj 24 121 - 180;
#X connect 0 0 6 0;
#X connect 2 0 0 0;
#X connect 3 0 2 0;
#X connect 3 0 27 0;
#X connect 4 0 2 1;
#X connect 5 0 3 0;
#X connect 7 0 11 0;
#X connect 8 0 24 0;
#X connect 9 0 7 1;
#X connect 11 0 10 0;
#X connect 12 0 5 0;
#X connect 13 0 8 0;
#X connect 14 0 13 0;
#X connect 15 0 19 0;
#X connect 15 0 22 0;
#X connect 16 0 15 0;
#X connect 17 0 16 0;
#X connect 19 0 21 0;
#X connect 20 0 19 1;
#X connect 21 0 18 0;
#X connect 22 0 19 2;
#X connect 23 0 26 0;
#X connect 24 0 25 0;
#X connect 25 0 7 0;
#X connect 26 0 9 0;
#X connect 27 0 4 0;
#X restore 638 270 pd POSITIONS;
#X obj 545 309 r enc;
#X text 133 214 This is my text;
#X obj 4 361 unpack f f;
#X obj 100 393 expr $f1 * 200 * 1.03 + random(-50 \, 50);
#X obj 281 8 l.vsl 18 135 0 1 0 0 empty empty empty 0 -9 0 10 #fcfcfc #000000 #000000 0 1;
#X obj 224 363 expr random(100 \, 1000);
#X msg 589 347 \; pd dsp 1;
#X obj 429 378 midiin;
#X obj 103 198 l.nbx;
#X obj 520 510 bng 18 250 50 0 empty empty empty 0 -9 0 10 #fcfcfc #000000 #000000;
#X obj 520 417 loadbang;
#X obj 539 440 tgl 18 0 empty empty empty 0 -9 0 10 #fcfcfc #000000 #000000 0 1;
#X obj 520 654 s r-test;
#X obj 748 479 r r-js;
#X obj 520 478 metro 2000;
#X obj 559 509 del 700 1 ms;
#X obj 559 553 random 1000;
#X obj 642 552 del 700 1 ms;
#X msg 642 574 list first hello world list! 2025;
#X obj 75 6 show~ -width 152 -interval 0.01;
#X obj 518 190 *~ 0.6;
#X obj 281 148 - 1;
#X obj 281 171 abs;
#X obj 372 366 loadbang;
#X msg 372 389 330;
#X obj 203 235 s freq;
#N canvas 965 553 941 481 (subpatch) 0;
#X obj 14 108 osc~ 100;
#X obj 70 138 osc~ 0.1;
#X obj 14 159 *~;
#X obj 14 46 * 1;
#X obj 133 107 osc~ 100;
#X obj 189 137 osc~ 0.1;
#X obj 133 158 *~;
#X obj 133 45 * 2;
#X obj 250 105 osc~ 100;
#X obj 306 135 osc~ 0.1;
#X obj 250 156 *~;
#X obj 250 43 * 3;
#X obj 14 290 outlet~;
#X obj 14 5 r freq;
#X obj 70 75 / 1000;
#X obj 189 74 / 1000;
#X obj 306 72 / 1000;
#X obj 14 267 snake~ in 3, f 98;
#X connect 0 0 2 0;
#X connect 1 0 2 1;
#X connect 2 0 17 0;
#X connect 3 0 0 0;
#X connect 3 0 14 0;
#X connect 4 0 6 0;
#X connect 5 0 6 1;
#X connect 6 0 17 1;
#X connect 7 0 4 0;
#X connect 7 0 15 0;
#X connect 8 0 10 0;
#X connect 9 0 10 1;
#X connect 10 0 17 2;
#X connect 11 0 8 0;
#X connect 11 0 16 0;
#X connect 13 0 3 0;
#X connect 13 0 7 0;
#X connect 13 0 11 0;
#X connect 14 0 1 0;
#X connect 15 0 5 0;
#X connect 16 0 9 0;
#X connect 17 0 12 0;
#X restore 518 0 pd;
#X msg 215 181 400;
#X obj 445 481 *~ 0.04;
#X obj 155 563 +~;
#X obj 639 18 r freq;
#X msg 639 179 interval \$1;
#X obj 639 202 s int;
#X obj 22 34 r int;
#X obj 686 49 samplerate~;
#X obj 686 18 loadbang;
#X obj 765 16 bng 18 250 50 0 empty empty empty 0 -9 0 10 #fcfcfc #000000 #000000;
#X obj 639 108 pack f f;
#X obj 639 131 expr $f2 / $f1 * $f3;
#X obj 785 83 r p;
#X obj 6 178 s p;
#X obj 4 97 loadbang;
#X msg 4 120 1.001;
#X obj 4 153 l.nbx;
#X obj 64 172 loadbang;
#X connect 2 0 8 0;
#X connect 2 1 8 1;
#X connect 3 0 7 1;
#X connect 4 0 3 0;
#X connect 5 0 7 0;
#X connect 6 0 5 0;
#X connect 7 0 30 0;
#X connect 8 0 10 0;
#X connect 8 1 10 1;
#X connect 8 2 10 2;
#X connect 9 0 11 0;
#X connect 9 1 17 0;
#X connect 9 2 23 0;
#X connect 9 3 29 0;
#X connect 10 0 9 0;
#X connect 11 0 6 0;
#X connect 11 1 4 0;
#X connect 12 0 16 1;
#X connect 13 0 12 0;
#X connect 14 0 16 0;
#X connect 15 0 14 0;
#X connect 16 0 30 0;
#X connect 17 0 15 0;
#X connect 17 1 13 0;
#X connect 18 0 22 1;
#X connect 19 0 18 0;
#X connect 20 0 22 0;
#X connect 21 0 20 0;
#X connect 22 0 30 0;
#X connect 23 0 21 0;
#X connect 23 1 19 0;
#X connect 24 0 28 1;
#X connect 25 0 24 0;
#X connect 26 0 28 0;
#X connect 27 0 26 0;
#X connect 28 0 30 0;
#X connect 29 0 27 0;
#X connect 29 1 25 0;
#X connect 30 0 31 0;
#X connect 30 0 31 1;
#X connect 34 0 48 0;
#X connect 36 0 49 0;
#X connect 38 0 40 1;
#X connect 39 0 51 0;
#X connect 40 0 75 0;
#X connect 41 0 42 0;
#X connect 42 0 40 0;
#X connect 44 0 43 0;
#X connect 46 0 37 0;
#X connect 48 0 8 0;
#X connect 48 1 8 1;
#X connect 49 0 41 0;
#X connect 49 0 54 0;
#X connect 50 0 44 1;
#X connect 50 0 67 0;
#X connect 51 0 41 0;
#X connect 51 0 54 0;
#X connect 53 0 8 0;
#X connect 53 1 8 1;
#X connect 54 0 41 0;
#X connect 54 0 71 0;
#X connect 56 0 60 0;
#X connect 57 0 60 0;
#X connect 60 0 55 0;
#X connect 60 0 61 0;
#X connect 61 0 62 0;
#X connect 61 0 63 0;
#X connect 63 0 64 0;
#X connect 66 0 65 0;
#X connect 66 0 74 0;
#X connect 67 0 68 0;
#X connect 68 0 66 1;
#X connect 69 0 70 0;
#X connect 70 0 54 0;
#X connect 72 0 66 0;
#X connect 72 0 44 0;
#X connect 73 0 71 0;
#X connect 74 0 75 1;
#X connect 75 0 1 0;
#X connect 75 0 1 1;
#X connect 76 0 83 0;
#X connect 77 0 78 0;
#X connect 79 0 65 0;
#X connect 79 0 43 0;
#X connect 80 0 83 1;
#X connect 81 0 80 0;
#X connect 82 0 80 0;
#X connect 83 0 84 0;
#X connect 84 0 77 0;
#X connect 85 0 84 2;
#X connect 87 0 88 0;
#X connect 88 0 89 0;
#X connect 89 0 86 0;
#X connect 90 0 39 0;
#X coords 0 -1 1 1 510 350 1 1 1;
