#N canvas 965 30 938 1001 10;
#X declare -lib pdlua;
#X declare -path Gui;
#X obj 171 315 declare -lib pdlua;
#X obj 172 340 adc~ 1;
#X obj 172 361 *~ 0.01;
#X obj 172 383 dac~;
#X obj 56 372 notein, f 10;
#X obj 87 543 line~;
#X obj 87 523 / 127;
#X obj 56 544 osc~;
#X obj 56 522 mtof;
#X obj 56 565 *~;
#X obj 56 430 poly 4 1, f 21;
#X obj 56 474 route 1 2 3 4, f 38;
#X obj 56 452 pack f f f, f 21;
#X obj 56 501 unpack f f;
#X obj 160 543 line~;
#X obj 160 523 / 127;
#X obj 129 544 osc~;
#X obj 129 522 mtof;
#X obj 129 565 *~;
#X obj 129 501 unpack f f;
#X obj 232 543 line~;
#X obj 232 523 / 127;
#X obj 201 544 osc~;
#X obj 201 522 mtof;
#X obj 202 565 *~;
#X obj 201 501 unpack f f;
#X obj 302 543 line~;
#X obj 302 523 / 127;
#X obj 271 544 osc~;
#X obj 271 522 mtof;
#X obj 272 565 *~;
#X obj 271 501 unpack f f;
#X obj 56 595 *~ 0.25;
#X obj 56 618 dac~;
#X text 55 349 MIDI;
#X obj 291 315 pdlua;
#X obj 5 227 Gui/l.keyboard;
#X obj 328 315 declare -path Gui;
#X obj 8 153 l.hsl;
#X obj 7 175 l.hradio;
#X msg 255 106 reload;
#X obj 245 100 saf.panning;
#X obj 3 3 l.tgl 45 0 empty empty empty 0 -9 0 10 #ffc7c6 #000000 #000000 0 1;
#X obj 52 3 l.tgl 45 0 empty empty empty 0 -9 0 10 #feffc6 #000000 #000000 0 1;
#X obj 3 52 l.bng 45 250 50 0 empty empty empty 0 -9 0 10 #c6ffc7 #000000 #000000;
#X obj 52 52 l.bng 45 250 50 0 empty empty empty 0 -9 0 10 #c6feff #000000 #000000;
#X obj 472 436 osc~ 440;
#X obj 472 459 *~ 0.01;
#X obj 472 482 dac~;
#X connect 1 0 2 0;
#X connect 2 0 3 0;
#X connect 2 0 3 1;
#X connect 4 0 10 0;
#X connect 4 1 10 1;
#X connect 5 0 9 1;
#X connect 6 0 5 0;
#X connect 7 0 9 0;
#X connect 8 0 7 0;
#X connect 9 0 32 0;
#X connect 10 0 12 0;
#X connect 10 1 12 1;
#X connect 10 2 12 2;
#X connect 11 0 13 0;
#X connect 11 1 19 0;
#X connect 11 2 25 0;
#X connect 11 3 31 0;
#X connect 12 0 11 0;
#X connect 13 0 8 0;
#X connect 13 1 6 0;
#X connect 14 0 18 1;
#X connect 15 0 14 0;
#X connect 16 0 18 0;
#X connect 17 0 16 0;
#X connect 18 0 32 0;
#X connect 19 0 17 0;
#X connect 19 1 15 0;
#X connect 20 0 24 1;
#X connect 21 0 20 0;
#X connect 22 0 24 0;
#X connect 23 0 22 0;
#X connect 24 0 32 0;
#X connect 25 0 23 0;
#X connect 25 1 21 0;
#X connect 26 0 30 1;
#X connect 27 0 26 0;
#X connect 28 0 30 0;
#X connect 29 0 28 0;
#X connect 30 0 32 0;
#X connect 31 0 29 0;
#X connect 31 1 27 0;
#X connect 32 0 33 0;
#X connect 32 0 33 1;
#X connect 46 0 47 0;
#X connect 47 0 48 0;
#X coords 0 -1 1 1 450 300 1 1 1;
