#N canvas 965 30 938 1001 10;
#X declare -lib pdlua;
#X obj 4 5 declare -lib pdlua;
#X obj 5 30 adc~ 1;
#X obj 5 53 *~ 0.01;
#X obj 5 75 dac~;
#X obj 125 14 notein, f 10;
#X obj 39 226 line~;
#X obj 39 206 / 127;
#X obj 8 227 osc~;
#X obj 8 205 mtof;
#X obj 8 248 *~;
#X obj 125 72 poly 4 1, f 21;
#X obj 125 116 route 1 2 3 4, f 38;
#X obj 125 94 pack f f f, f 21;
#X obj 8 184 unpack f f;
#X obj 112 226 line~;
#X obj 112 206 / 127;
#X obj 81 227 osc~;
#X obj 81 205 mtof;
#X obj 81 248 *~;
#X obj 81 184 unpack f f;
#X obj 184 226 line~;
#X obj 184 206 / 127;
#X obj 153 227 osc~;
#X obj 153 205 mtof;
#X obj 154 248 *~;
#X obj 153 184 unpack f f;
#X obj 254 226 line~;
#X obj 254 206 / 127;
#X obj 223 227 osc~;
#X obj 223 205 mtof;
#X obj 224 248 *~;
#X obj 223 184 unpack f f;
#X obj 56 359 *~ 0.25;
#X obj 56 382 dac~;
#X connect 1 0 2 0;
#X connect 2 0 3 0;
#X connect 2 0 3 1;
#X connect 4 0 10 0;
#X connect 4 1 10 1;
#X connect 5 0 9 1;
#X connect 6 0 5 0;
#X connect 7 0 9 0;
#X connect 8 0 7 0;
#X connect 9 0 32 0;
#X connect 10 0 12 0;
#X connect 10 1 12 1;
#X connect 10 2 12 2;
#X connect 11 0 13 0;
#X connect 11 1 19 0;
#X connect 11 2 25 0;
#X connect 11 3 31 0;
#X connect 12 0 11 0;
#X connect 13 0 8 0;
#X connect 13 1 6 0;
#X connect 14 0 18 1;
#X connect 15 0 14 0;
#X connect 16 0 18 0;
#X connect 17 0 16 0;
#X connect 18 0 32 0;
#X connect 19 0 17 0;
#X connect 19 1 15 0;
#X connect 20 0 24 1;
#X connect 21 0 20 0;
#X connect 22 0 24 0;
#X connect 23 0 22 0;
#X connect 24 0 32 0;
#X connect 25 0 23 0;
#X connect 25 1 21 0;
#X connect 26 0 30 1;
#X connect 27 0 26 0;
#X connect 28 0 30 0;
#X connect 29 0 28 0;
#X connect 30 0 32 0;
#X connect 31 0 29 0;
#X connect 31 1 27 0;
#X connect 32 0 33 0;
#X connect 32 0 33 1;
#X coords 0 -1 1 1 400 300 1 1 1;
