#N canvas 965 30 938 1001 10;
#X declare -lib pdlua;
#X declare -path Gui;
#X obj 123 465 declare -lib pdlua;
#X obj 171 589 dac~;
#X obj 8 522 notein, f 10;
#X obj 39 693 line~;
#X obj 39 673 / 127;
#X obj 8 694 osc~;
#X obj 8 672 mtof;
#X obj 8 715 *~;
#X obj 8 580 poly 4 1, f 21;
#X obj 8 624 route 1 2 3 4, f 38;
#X obj 8 602 pack f f f, f 21;
#X obj 8 651 unpack f f;
#X obj 112 693 line~;
#X obj 112 673 / 127;
#X obj 81 694 osc~;
#X obj 81 672 mtof;
#X obj 81 715 *~;
#X obj 81 651 unpack f f;
#X obj 184 693 line~;
#X obj 184 673 / 127;
#X obj 153 694 osc~;
#X obj 153 672 mtof;
#X obj 154 715 *~;
#X obj 153 651 unpack f f;
#X obj 254 693 line~;
#X obj 254 673 / 127;
#X obj 223 694 osc~;
#X obj 223 672 mtof;
#X obj 224 715 *~;
#X obj 223 651 unpack f f;
#X obj 8 745 *~ 0.25;
#X obj 8 768 dac~;
#X text 7 499 MIDI;
#X obj 243 465 pdlua;
#X obj 4 278 Gui/l.keyboard;
#X obj 280 465 declare -path Gui;
#X obj 4 249 l.hradio;
#X obj 305 149 saf.panning -plan_size 200 -sources_size 3 -fig_size 200;
#X obj 3 3 l.tgl 45 0 empty empty empty 0 -9 0 10 #ffc7c6 #000000 #000000 0 1;
#X obj 52 3 l.bng 45 250 50 0 empty empty empty 0 -9 0 10 #c6feff #000000 #000000;
#X obj 124 533 *~;
#X obj 98 419 osc~ 330;
#X obj 124 511 *~ 0.1;
#X obj 577 70 osc~ 100;
#X obj 637 70 osc~ 200;
#X obj 697 70 osc~ 300;
#X obj 757 70 osc~ 400;
#X obj 817 70 osc~ 500;
#X obj 592 49 osc~ 0.1;
#X obj 652 49 osc~ 0.2;
#X obj 712 49 osc~ 0.3;
#X obj 772 49 osc~ 0.4;
#X obj 832 49 osc~ 0.5;
#X obj 577 151 snake~ in 5;
#X obj 577 91 *~;
#X obj 637 91 *~;
#X obj 697 91 *~;
#X obj 757 91 *~;
#X obj 817 91 *~;
#X obj 305 5 show~;
#X obj 577 183 *~ 0.2;
#N canvas 965 552 938 479 POSITIONS 0;
#X msg 3 191 source 1 \$1 \$2;
#X text 361 189 source <source_index> <azi> <ele>;
#X obj 3 170 list;
#X obj 3 93 nbx 5 16 -180 180 0 0 empty empty empty 0 -9 0 10 #fcfcfc #000000 #000000 0 256;
#X obj 24 147 nbx 5 16 -90 90 0 1 empty empty empty 0 -9 0 10 #fcfcfc #000000 #000000 -334 256;
#N canvas 1442 550 472 489 (subpatch) 0;
#X obj 11 51 tgl 28 0 empty empty empty 0 -9 0 10 #fcfcfc #000000 #000000 0 1;
#X obj 11 106 int;
#X obj 11 128 + 1;
#X obj 11 150 % 360;
#X obj 11 172 - 180;
#X obj 11 194 outlet;
#X obj 11 24 inlet;
#X obj 11 84 metro 50;
#X connect 0 0 7 0;
#X connect 1 0 2 0;
#X connect 2 0 1 1;
#X connect 2 0 3 0;
#X connect 3 0 4 0;
#X connect 4 0 5 0;
#X connect 6 0 0 0;
#X connect 7 0 1 0;
#X coords 0 -1 1 1 30 30 1 10 50;
#X restore 3 59 pd;
#X obj 3 253 s enc;
#X obj 111 198 list;
#X obj 111 124 nbx 5 16 -180 180 0 0 empty empty empty 0 -9 0 10 #fcfcfc #000000 #000000 0 256;
#X obj 132 175 nbx 5 16 -90 90 0 1 empty empty empty 0 -9 0 10 #fcfcfc #000000 #000000 50 256;
#X obj 111 252 s enc;
#X msg 111 221 source 2 \$1 \$2;
#X obj 3 40 loadbang;
#N canvas 1442 550 472 489 (subpatch) 0;
#X obj 11 51 tgl 28 0 empty empty empty 0 -9 0 10 #fcfcfc #000000 #000000 0 1;
#X obj 11 106 int;
#X obj 11 128 + 1;
#X obj 11 173 % 360;
#X obj 11 153 - 180;
#X obj 11 216 outlet;
#X obj 11 24 inlet;
#X obj 11 195 - 180;
#X obj 11 84 metro 33;
#X connect 0 0 8 0;
#X connect 1 0 2 0;
#X connect 2 0 1 1;
#X connect 2 0 4 0;
#X connect 3 0 7 0;
#X connect 4 0 3 0;
#X connect 6 0 0 0;
#X connect 7 0 5 0;
#X connect 8 0 1 0;
#X coords 0 -1 1 1 30 30 1 10 50;
#X restore 111 90 pd;
#X obj 111 60 loadbang;
#X obj 239 114 nbx 5 16 -180 180 0 0 empty empty empty 0 -9 0 10 #fcfcfc #000000 #000000 0 256;
#N canvas 1442 550 472 489 (subpatch) 0;
#X obj 11 51 tgl 28 0 empty empty empty 0 -9 0 10 #fcfcfc #000000 #000000 0 1;
#X obj 11 106 int;
#X obj 11 128 + 1;
#X obj 11 173 % 360;
#X obj 11 153 - 180;
#X obj 11 216 outlet;
#X obj 11 24 inlet;
#X obj 11 195 - 180;
#X obj 11 84 metro 100;
#X connect 0 0 8 0;
#X connect 1 0 2 0;
#X connect 2 0 1 1;
#X connect 2 0 4 0;
#X connect 3 0 7 0;
#X connect 4 0 3 0;
#X connect 6 0 0 0;
#X connect 7 0 5 0;
#X connect 8 0 1 0;
#X coords 0 -1 1 1 30 30 1 10 50;
#X restore 239 80 pd;
#X obj 239 59 loadbang;
#X obj 238 240 s enc;
#X obj 239 187 pack f f f;
#X msg 261 156 0;
#X msg 238 217 source 3 \$1 \$2 \$3;
#X obj 296 135 expr abs($f1 / 360);
#X obj 177 90 loadbang;
#X obj 111 145 - 360;
#X obj 111 167 abs;
#X msg 177 112 50;
#X obj 24 121 - 180;
#X connect 0 0 6 0;
#X connect 2 0 0 0;
#X connect 3 0 2 0;
#X connect 3 0 27 0;
#X connect 4 0 2 1;
#X connect 5 0 3 0;
#X connect 7 0 11 0;
#X connect 8 0 24 0;
#X connect 9 0 7 1;
#X connect 11 0 10 0;
#X connect 12 0 5 0;
#X connect 13 0 8 0;
#X connect 14 0 13 0;
#X connect 15 0 19 0;
#X connect 15 0 22 0;
#X connect 16 0 15 0;
#X connect 17 0 16 0;
#X connect 19 0 21 0;
#X connect 20 0 19 1;
#X connect 21 0 18 0;
#X connect 22 0 19 2;
#X connect 23 0 26 0;
#X connect 24 0 25 0;
#X connect 25 0 7 0;
#X connect 26 0 9 0;
#X connect 27 0 4 0;
#X restore 638 270 pd POSITIONS;
#X obj 571 230 r enc;
#X text 131 19 This is my text;
#X obj 4 361 unpack f f;
#X obj 100 393 expr $f1 * 200 * 1.03 + random(-50 \, 50);
#X obj 281 8 l.vsl 18 135 0 1 0 0 empty empty empty 0 -9 0 10 #fcfcfc #000000 #000000 0 1;
#X obj 224 363 expr random(100 \, 1000);
#X msg 589 347 \; pd dsp 1;
#X obj 432 477 r test;
#X obj 432 500 print;
#X obj 429 378 midiin;
#X connect 2 0 8 0;
#X connect 2 1 8 1;
#X connect 3 0 7 1;
#X connect 4 0 3 0;
#X connect 5 0 7 0;
#X connect 6 0 5 0;
#X connect 7 0 30 0;
#X connect 8 0 10 0;
#X connect 8 1 10 1;
#X connect 8 2 10 2;
#X connect 9 0 11 0;
#X connect 9 1 17 0;
#X connect 9 2 23 0;
#X connect 9 3 29 0;
#X connect 10 0 9 0;
#X connect 11 0 6 0;
#X connect 11 1 4 0;
#X connect 12 0 16 1;
#X connect 13 0 12 0;
#X connect 14 0 16 0;
#X connect 15 0 14 0;
#X connect 16 0 30 0;
#X connect 17 0 15 0;
#X connect 17 1 13 0;
#X connect 18 0 22 1;
#X connect 19 0 18 0;
#X connect 20 0 22 0;
#X connect 21 0 20 0;
#X connect 22 0 30 0;
#X connect 23 0 21 0;
#X connect 23 1 19 0;
#X connect 24 0 28 1;
#X connect 25 0 24 0;
#X connect 26 0 28 0;
#X connect 27 0 26 0;
#X connect 28 0 30 0;
#X connect 29 0 27 0;
#X connect 29 1 25 0;
#X connect 30 0 31 0;
#X connect 30 0 31 1;
#X connect 34 0 64 0;
#X connect 36 0 65 0;
#X connect 38 0 40 1;
#X connect 39 0 67 0;
#X connect 40 0 1 0;
#X connect 40 0 1 1;
#X connect 41 0 42 0;
#X connect 42 0 40 0;
#X connect 43 0 54 0;
#X connect 44 0 55 0;
#X connect 45 0 56 0;
#X connect 46 0 57 0;
#X connect 47 0 58 0;
#X connect 48 0 54 1;
#X connect 49 0 55 1;
#X connect 50 0 56 1;
#X connect 51 0 57 1;
#X connect 52 0 58 1;
#X connect 53 0 60 0;
#X connect 54 0 53 0;
#X connect 55 0 53 1;
#X connect 56 0 53 2;
#X connect 57 0 53 3;
#X connect 58 0 53 4;
#X connect 60 0 59 0;
#X connect 62 0 37 0;
#X connect 64 0 8 0;
#X connect 64 1 8 1;
#X connect 65 0 41 0;
#X connect 66 0 60 1;
#X connect 67 0 41 0;
#X connect 69 0 70 0;
#X connect 71 0 8 0;
#X connect 71 1 8 1;
#X coords 0 -1 1 1 510 350 1 1 1;
