#N canvas 572 -23 1217 974 8;
#X declare -path Abstractions -path Audios;
#X obj 6 4 adc~ 1;
#N canvas 485 -19 1206 890 pitch 0;
#X obj 4 132 float;
#X obj 4 105 expr if($f1 > ($f2 + 0.5) || $f1 < ($f2 - 0.5) \, $f1 \, $f2);
#X obj 4 175 nbx 5 14 -1e+37 1e+37 0 0 empty empty empty 0 -8 0 8 #fcfcfc #000000 #000000 0 256;
#X obj 4 194 change;
#X obj 23 374 float;
#X obj 45 260 t f b b, f 32;
#X msg 202 277 stop;
#X obj 4 260 t b;
#X msg 4 281 stop;
#X obj 23 414 outlet;
#X obj 126 174 inlet;
#X obj 4 215 + 0, f 25;
#X obj 23 395 change;
#X obj 4 46 t f f, f 7;
#X obj 4 85 spigot, f 7;
#X obj 36 67 expr if($f1 < 58 || $f1 > 80 \, 0 \, 1);
#X obj 4 5 inlet~;
#X obj 123 324 delay 200 1 msec;
#X obj 4 154 cyclone/round 1 @nearest 1;
#X obj 4 233 else/spread 60 84;
#X obj 446 45 s PEAKS;
#X obj 4 25 sigmund~ -npts 1024 -hop 512 -npeak 9 -minpower 60 -quality 0.6 pitch peaks, f 89;
#X connect 0 0 1 1;
#X connect 0 0 18 0;
#X connect 1 0 0 0;
#X connect 2 0 3 0;
#X connect 3 0 11 0;
#X connect 4 0 12 0;
#X connect 5 0 4 1;
#X connect 5 1 17 0;
#X connect 5 2 6 0;
#X connect 6 0 17 0;
#X connect 7 0 8 0;
#X connect 8 0 17 0;
#X connect 10 0 11 1;
#X connect 11 0 19 0;
#X connect 12 0 9 0;
#X connect 13 0 14 0;
#X connect 13 1 15 0;
#X connect 14 0 1 0;
#X connect 15 0 14 1;
#X connect 16 0 21 0;
#X connect 17 0 4 0;
#X connect 18 0 2 0;
#X connect 19 0 7 0;
#X connect 19 1 5 0;
#X connect 19 2 7 0;
#X connect 21 0 13 0;
#X connect 21 1 20 0;
#X restore 6 77 pd pitch;
#X obj 92 24 text define -k note2wait;
#A set 69 2000 \; 68 3000 \; 72 4000 \;;
#X obj 6 104 t f f b, f 49;
#N canvas 671 426 938 401 HTMLGUI 0;
#X obj 14 3 inlet;
#X obj 60 3 inlet;
#X obj 14 40 f;
#X obj 107 53 b;
#X msg 107 98 0;
#X obj 14 153 s ui_notedetected;
#X obj 107 74 delay 2000 1 msec;
#X text 199 72 Visível por 2 segundos;
#X connect 0 0 2 0;
#X connect 0 0 3 0;
#X connect 1 0 2 1;
#X connect 2 0 5 0;
#X connect 3 0 6 0;
#X connect 4 0 5 0;
#X connect 6 0 4 0;
#X restore 6 235 pd HTMLGUI;
#X obj 92 3 declare -path Abstractions -path Audios;
#N canvas 171 33 1443 687 newnote 0;
#X obj 11 12 inlet;
#X obj 238 299 s ui_gestoNumber;
#X obj 365 280 s ui_DelayToScore;
#X text 329 229 Delay to actually change;
#X text 364 300 GUI interaction!;
#X obj 131 271 s NEXT_NOTE;
#X obj 131 13 loadbang;
#X obj 131 107 text get MOMENTS;
#X msg 131 58 0;
#X obj 131 128 unpack f f f f, f 65;
#X obj 238 230 delay 1 1 msec;
#X obj 238 161 t b f f, f 26;
#X obj 238 251 f, f 18;
#X msg 350 61 NOTE DELAY_TO_CHANGE GESTURE_NUMBER SOUNDCONFIG;
#X obj 453 190 s soundConfig;
#X obj 11 56 cyclone/counter 0 1 50;
#X obj 11 137 s EVENTS;
#X obj 182 13 r RESTART;
#X msg 70 15 0;
#X obj 159 58 r EVENTS;
#X connect 0 0 15 0;
#X connect 6 0 8 0;
#X connect 7 0 9 0;
#X connect 8 0 7 0;
#X connect 9 0 5 0;
#X connect 9 1 11 0;
#X connect 9 2 12 1;
#X connect 9 3 14 0;
#X connect 10 0 12 0;
#X connect 11 0 10 0;
#X connect 11 1 10 1;
#X connect 11 2 2 0;
#X connect 12 0 1 0;
#X connect 15 0 16 0;
#X connect 17 0 8 0;
#X connect 17 0 15 2;
#X connect 19 0 7 0;
#X restore 153 220 pd newnote;
#N canvas 114 110 1267 822 respostaEspectral 0;
#X msg 4 48 all sigmund \$1 \$2 \$3 \$4 \$5;
#X msg 23 120 next go bang;
#X obj 143 88 loadbang;
#X obj 4 211 clone Libs/resposta 2, f 70;
#X msg 143 109 all switch 1;
#X obj 4 353 outlet~;
#X obj 71 354 outlet~;
#X obj 304 20 inlet;
#X obj 304 41 switch~;
#X obj 4 235 else/giga.rev~;
#X obj 178 235 else/giga.rev~;
#X obj 351 233 else/giga.rev~;
#X obj 23 73 r EVENTS;
#X obj 23 94 sel 2 3 4 5;
#X obj 4 23 r PEAKS;
#X connect 0 0 3 0;
#X connect 1 0 3 0;
#X connect 2 0 4 0;
#X connect 3 0 9 0;
#X connect 3 1 10 0;
#X connect 3 2 11 0;
#X connect 4 0 3 0;
#X connect 7 0 8 0;
#X connect 9 0 5 0;
#X connect 9 1 6 0;
#X connect 10 0 5 0;
#X connect 11 1 6 0;
#X connect 12 0 13 0;
#X connect 13 0 1 0;
#X connect 13 1 1 0;
#X connect 13 2 1 0;
#X connect 13 3 1 0;
#X connect 14 0 0 0;
#X restore 7 417 pd respostaEspectral;
#X obj 7 441 dac~, f 20;
#X obj 314 3 text define -k configsubpatches;
#A set 1 0 0 0 \; 1 1 0 0 \;;
#X obj 7 331 text get configsubpatches;
#X obj 7 286 loadbang;
#X msg 7 307 0;
#X obj 7 373 tgl 15 0 empty empty empty 0 -8 0 8 #fcfcfc #000000 #000000 0 1;
#X obj 33 132 r NEXT_NOTE;
#X obj 6 166 sel, f 6;
#X obj 33 307 r soundConfig;
#X obj 7 352 unpack f f f f f, f 115;
#N canvas 204 344 845 541 EVENTS 0;
#X obj 4 9 r EVENTS;
#X obj 4 239 outlet~;
#X obj 46 239 outlet~;
#N canvas 426 120 1111 714 event1 0;
#X obj 5 6 inlet;
#X obj 170 17 loadbang;
#X obj 243 93 soundfiler;
#X obj 361 27 array define event1-s1;
#X obj 127 33 bng 15 250 50 0 empty empty empty 0 -8 0 8 #fcfcfc #000000 #000000;
#X obj 5 307 outlet~;
#X obj 136 288 else/vu~ 1024 128;
#X obj 136 309 expr if($f1 < -988 \, 0 \, 1);
#X obj 136 330 switch~;
#X msg 61 107 1;
#X obj 5 259 else/giga.rev~;
#X obj 72 308 outlet~;
#X obj 5 184 Libs/clone-tabplay;
#X msg 5 107 bang;
#X msg 290 115 set event1-s1;
#X msg 243 75 read -resize TpC+SW-flatt_open-D#5-mf-N-N.wav event1-s1;
#X obj 5 225 *~, f 29;
#X obj 147 189 line~;
#X obj 5 27 t b b b b, f 19;
#X obj 150 85 del 800 1 msec;
#X msg 150 107 0 1400;
#X obj 68 7 bng 15 250 50 0 empty empty empty 0 -8 0 8 #fcfcfc #000000 #000000;
#X msg 90 107 0 \, 4 800;
#X connect 0 0 18 0;
#X connect 1 0 15 0;
#X connect 2 1 14 0;
#X connect 4 0 15 0;
#X connect 6 0 7 0;
#X connect 7 0 8 0;
#X connect 9 0 8 0;
#X connect 10 0 5 0;
#X connect 10 0 6 0;
#X connect 10 1 11 0;
#X connect 12 0 16 0;
#X connect 13 0 12 0;
#X connect 14 0 12 0;
#X connect 15 0 2 0;
#X connect 16 0 10 0;
#X connect 17 0 16 1;
#X connect 18 0 13 0;
#X connect 18 1 9 0;
#X connect 18 2 22 0;
#X connect 18 3 19 0;
#X connect 19 0 20 0;
#X connect 20 0 17 0;
#X connect 21 0 18 0;
#X connect 22 0 17 0;
#X restore 4 71 pd event1;
#X obj 4 38 sel 1 2, f 49;
#N canvas 426 120 1111 714 event2 0;
#X obj 5 6 inlet;
#X obj 170 17 loadbang;
#X obj 243 93 soundfiler;
#X obj 127 33 bng 15 250 50 0 empty empty empty 0 -8 0 8 #fcfcfc #000000 #000000;
#X obj 5 307 outlet~;
#X obj 136 288 else/vu~ 1024 128;
#X obj 136 309 expr if($f1 < -988 \, 0 \, 1);
#X obj 136 330 switch~;
#X msg 61 107 1;
#X obj 5 259 else/giga.rev~;
#X obj 72 308 outlet~;
#X obj 5 184 Libs/clone-tabplay;
#X msg 5 107 bang;
#X obj 5 225 *~, f 29;
#X obj 147 189 line~;
#X obj 5 27 t b b b b, f 19;
#X obj 150 85 del 800 1 msec;
#X msg 150 107 0 1400;
#X obj 361 27 array define event2-s1;
#X msg 290 115 set event2-s1;
#X msg 243 75 read -resize TpC+SW-flatt_open-A4-mf-N-N.wav event2-s1;
#X msg 90 107 0 \, 2 800;
#X obj 58 8 bng 15 250 50 0 empty empty empty 0 -8 0 8 #fcfcfc #000000 #000000;
#X connect 0 0 15 0;
#X connect 1 0 20 0;
#X connect 2 1 19 0;
#X connect 3 0 20 0;
#X connect 5 0 6 0;
#X connect 6 0 7 0;
#X connect 8 0 7 0;
#X connect 9 0 4 0;
#X connect 9 0 5 0;
#X connect 9 1 10 0;
#X connect 11 0 13 0;
#X connect 12 0 11 0;
#X connect 13 0 9 0;
#X connect 14 0 13 1;
#X connect 15 0 12 0;
#X connect 15 1 8 0;
#X connect 15 2 21 0;
#X connect 15 3 16 0;
#X connect 16 0 17 0;
#X connect 17 0 14 0;
#X connect 19 0 11 0;
#X connect 20 0 2 0;
#X connect 21 0 14 0;
#X connect 22 0 15 0;
#X restore 125 72 pd event2;
#X obj 229 228 s EVENTS;
#X obj 229 199 nbx 5 14 -1e+37 1e+37 0 0 empty empty empty 0 -8 0 8 #fcfcfc #000000 #000000 0 256;
#X connect 0 0 4 0;
#X connect 3 0 1 0;
#X connect 3 1 2 0;
#X connect 4 0 3 0;
#X connect 4 1 5 0;
#X connect 5 0 1 0;
#X connect 5 1 2 0;
#X connect 7 0 6 0;
#X restore 149 418 pd EVENTS;
#X obj 149 439 dac~, f 9;
#X obj 544 91 s RESTART;
#X obj 544 62 bng 25 250 50 0 empty empty empty 0 -8 0 8 #fcfcfc #000000 #000000;
#X obj 6 187 t b b, f 30;
#X obj 211 220 bng 15 250 50 0 empty empty empty 0 -8 0 8 #fcfcfc #000000 #000000;
#X obj 44 167 nbx 5 14 -1e+37 1e+37 0 0 empty empty empty 0 -8 0 8 #fcfcfc #000000 #000000 0 256;
#N canvas 476 32 1276 929 plaits 0;
#X obj 13 27 r EVENTS;
#X obj 13 169 Libs/plaits-gesto1;
#X obj 13 260 outlet~;
#X obj 100 263 outlet~;
#X obj 287 168 Libs/plaits-gesto1;
#X obj 287 72 sel 3 4, f 50;
#X obj 13 72 sel 1 2 3 4, f 50;
#X obj 531 168 s EVENTS;
#X obj 531 143 nbx 5 14 -1e+37 1e+37 0 0 empty empty empty 0 -8 0 8 #fcfcfc #000000 #000000 0 256;
#X msg 13 93 200 1.8 75 0.2 0.13 240;
#X msg 22 115 250 2 78 0.2 -0.2 50;
#X msg 137 112 400 2 78 0.2 -0.5 90;
#X text 409 112 DUR REPETICAO NOTA VOLUME CENTS LUGAR;
#X msg 411 93 250 2 78 0.1 -0.2 130;
#X msg 287 93 500 1.8 75 0.15 0.1 280;
#X connect 0 0 5 0;
#X connect 0 0 6 0;
#X connect 1 0 2 0;
#X connect 1 1 3 0;
#X connect 4 0 2 0;
#X connect 4 1 3 0;
#X connect 5 0 14 0;
#X connect 5 1 13 0;
#X connect 6 0 9 0;
#X connect 6 1 10 0;
#X connect 6 2 11 0;
#X connect 8 0 7 0;
#X connect 9 0 1 0;
#X connect 10 0 1 0;
#X connect 11 0 1 0;
#X connect 13 0 4 0;
#X connect 14 0 4 0;
#X restore 380 200 pd plaits;
#X obj 314 24 text define -k MOMENTS;
#A set 75 0 1 0 \; 78 0 1 1 \; 75 0 1 1 \; 69 0 1 0 0 \; 67 2000 2 0 0 \; 66 0 2 0 0 \; 61 0 2 0 0 \; 74 2000 3 0 0 \; 78 0 3 0 0 \;;
#X obj 380 221 dac~, f 9;
#X msg 544 32 \; pd dsp \$1;
#X obj 544 3 tgl 25 0 empty empty empty 0 -8 0 8 #fcfcfc #000000 #000000 0 1;
#X text 149 374 TEXTURAS;
#X text 386 166 Gestos;
#X obj 43 56 nbx 5 14 -1e+37 1e+37 0 0 empty empty empty 0 -8 0 8 #fcfcfc #000000 #000000 0 256;
#X text 89 54 Transposition;
#X connect 0 0 1 0;
#X connect 1 0 3 0;
#X connect 3 0 15 0;
#X connect 3 1 4 1;
#X connect 7 0 8 0;
#X connect 7 1 8 1;
#X connect 10 0 17 0;
#X connect 11 0 12 0;
#X connect 12 0 10 0;
#X connect 13 0 7 0;
#X connect 14 0 24 0;
#X connect 14 0 15 1;
#X connect 15 0 22 0;
#X connect 16 0 10 0;
#X connect 17 0 13 0;
#X connect 18 0 19 0;
#X connect 18 1 19 1;
#X connect 21 0 20 0;
#X connect 22 0 4 0;
#X connect 22 1 6 0;
#X connect 22 1 23 0;
#X connect 25 0 27 0;
#X connect 25 1 27 1;
#X connect 29 0 28 0;
#X connect 32 0 1 1;
