#N canvas 0 0 943 1005 12;
#X obj 9 459 inlet;
#X obj 166 630 loadbang;
#X msg 166 676 tr_active 1;
#X obj 9 822 outlet~;
#X obj 405 581 block~ 1024;
#X obj 9 526 f, f 5;
#X obj 9 483 t b f f, f 10;
#X obj 9 550 t f b;
#X obj 62 597 expr random(20 \, 80);
#X obj 9 634 pack f f;
#X obj 178 448 r clear;
#X obj 102 531 f;
#X msg 178 472 bang;
#X msg 102 555 \$1 0;
#X obj 316 629 r plaits;
#X obj 316 653 t b a;
#X obj 68 822 outlet~;
#X obj 9 780 *~;
#X obj 68 780 *~;
#X obj 414 682 expr 1 - $f1;
#X obj 415 633 r pos;
#X obj 9 718 else/plaits~ -midi -model 11;
#X connect 0 0 6 0;
#X connect 1 0 2 0;
#X connect 2 0 21 0;
#X connect 5 0 7 0;
#X connect 6 0 5 0;
#X connect 6 1 5 1;
#X connect 6 2 11 1;
#X connect 7 0 9 0;
#X connect 7 1 8 0;
#X connect 8 0 9 1;
#X connect 9 0 21 0;
#X connect 10 0 12 0;
#X connect 11 0 13 0;
#X connect 12 0 11 0;
#X connect 13 0 21 0;
#X connect 14 0 15 0;
#X connect 15 0 2 0;
#X connect 15 1 21 0;
#X connect 17 0 3 0;
#X connect 18 0 16 0;
#X connect 19 0 18 1;
#X connect 20 0 19 0;
#X connect 20 0 17 1;
#X connect 21 0 17 0;
#X connect 21 0 18 0;
#X coords 0 1005 1 1004 200 200 0;
