#N canvas 963 28 951 1012 8;
#X obj 5 4 tgl 45 0 r-t1 s-t1 empty 0 -8 0 8 #fcfcfc #000000 #000000 0 1;
#X obj 42 156 osc~ 440;
#X obj 42 177 *~ 0.2;
#X obj 125 156 r r-t1;
#X obj 88 156 osc~ 1;
#X obj 88 177 *~;
#X obj 42 200 *~;
#X obj 42 297 dac~;
#X obj 42 242 *~ 0.2;
#X connect 1 0 2 0;
#X connect 2 0 6 0;
#X connect 3 0 5 1;
#X connect 4 0 5 0;
#X connect 5 0 6 1;
#X connect 6 0 8 0;
#X connect 8 0 7 0;
#X connect 8 0 7 1;
