#N canvas 803 483 313 96 10;
#N canvas 1443 23 471 1016 (subpatch) 0;
#X msg 31 177 0;
#X obj 77 15 cnv 18 10 10 empty empty BWV-1013 20 12 0 18 #ffffff #000000 0;
#X obj 33 261 dac~;
#X obj 16 14 loadbang;
#X obj 16 118 t b b;
#X obj 16 371 nbx 3 24 -1e+37 1e+37 0 0 empty empty empty 0 -9 0 20 #fcfcfc #ff0400 #ff0400 0 256;
#X obj 187 375 nbx 5 16 -1e+37 1e+37 0 0 empty empty empty 0 -9 0 10 #fcfcfc #000000 #000000 0 256;
#X obj 16 400 list, f 29;
#X msg 43 318 score Audios/score.txt \, start;
#X obj 15 345 o.scofo~;
#X obj 98 257 vu~;
#X obj 98 279 s r-vu1;
#X obj 39 39 r s-bng1;
#X obj 205 81 soundfiler;
#X obj 167 149 array define sound;
#X msg 205 51 read -resize Audios/audio.wav sound;
#X obj 16 209 tabplay~ sound;
#X obj 205 26 loadbang;
#X obj 16 423 s r-nbx1;
#X obj 16 85 delay 50 1 msec;
#X connect 0 0 16 0;
#X connect 3 0 19 0;
#X connect 4 0 16 0;
#X connect 4 1 8 0;
#X connect 5 0 7 0;
#X connect 6 0 7 1;
#X connect 7 0 18 0;
#X connect 8 0 9 0;
#X connect 9 0 5 0;
#X connect 9 1 6 0;
#X connect 10 0 11 0;
#X connect 12 0 19 0;
#X connect 15 0 13 0;
#X connect 16 0 2 0;
#X connect 16 0 2 1;
#X connect 16 0 9 0;
#X connect 16 0 10 0;
#X connect 17 0 15 0;
#X connect 19 0 4 0;
#X restore 199 69 pd;
#X obj 226 4 vu 18 80 r-vu1 empty -1 -9 0 10 #404040 #000000 0 0;
#X text 114 4 Score Event Index;
#X obj 4 37 bng 25 250 50 0 s-bng1 r-bng1 empty 0 -9 0 10 #fcfcfc #000000 #000000;
#X text 32 38 Start Again!;
#X obj 4 4 nbx 5 16 -1e+37 1e+37 0 0 s-nbx1 r-nbx1 empty 0 -9 0 10 #fcfcfc #000000 #000000 0 256;
