#N canvas 901 58 867 805 8;
#X obj 2 30 py4pd;
#X msg 2 3 pip install pd4web;
#X obj 3 107 openpanel;
#X obj 3 84 bng 19 250 50 0 empty empty empty 17 7 0 10 #dfdfdf #000000 #000000;
#X text 26 86 <= Click to choose the patch to compile;
#X text 34 30 If this not work \, you must install Python and py4pd first.;
#X obj 79 159 openpanel 1;
#X text 77 110 directory;
#X obj 79 131 bng 19 250 50 0 empty empty empty 17 7 0 10 #dfdfdf #000000 #000000;
#X obj 79 186 print dir;
#X obj 179 210 nbx 4 14 -1e+37 1e+37 0 1 empty initial-memory empty 0 -8 0 8 #fcfcfc #000000 #000000 32 256;
#X obj 310 237 loadbang;
#X obj 310 279 s initial-memory;
#X msg 310 258 32;
#X connect 1 0 0 0;
#X connect 3 0 2 0;
#X connect 6 0 9 0;
#X connect 8 0 6 0;
#X connect 11 0 13 0;
#X connect 13 0 12 0;
#X coords 0 402.5 1 401.5 200 100 0;
